<?xml version="1.0" standalone="no"?>
<!DOCTYPE svg PUBLIC "-//W3C//DTD SVG 20010904//EN"
 "http://www.w3.org/TR/2001/REC-SVG-20010904/DTD/svg10.dtd">
<svg version="1.0" xmlns="http://www.w3.org/2000/svg"
 width="194.000000pt" height="230.000000pt" viewBox="0 0 194.000000 230.000000"
 preserveAspectRatio="xMidYMid meet">

<g transform="translate(0.000000,230.000000) scale(0.100000,-0.100000)"
fill="#000000" stroke="none">
<path d="M0 1150 l0 -1150 746 0 c435 0 743 4 740 9 -4 5 10 5 32 0 20 -5 124
-9 230 -9 l192 0 0 1150 0 1150 -970 0 -970 0 0 -1150z m770 681 c0 -17 84
-35 110 -24 35 14 56 12 84 -8 25 -19 38 -21 107 -16 60 4 81 2 90 -9 11 -14
10 -15 -13 -18 -14 -1 -19 -56 -6 -56 15 0 8 -28 -9 -34 -26 -10 -3 -24 47
-28 l45 -4 -40 -7 c-89 -18 -93 -21 -40 -27 l50 -7 -32 -13 c-40 -17 -42 -30
-5 -30 l27 -1 -25 -14 c-19 -11 -21 -14 -7 -15 23 0 22 -27 -2 -39 -10 -6 -37
-13 -59 -17 -28 -4 -43 -13 -47 -25 -4 -11 -10 -19 -15 -19 -16 0 -42 -60 -32
-73 13 -17 22 -52 33 -127 5 -36 11 -84 15 -108 9 -61 -6 -75 -73 -68 -39 4
-53 2 -53 -7 0 -21 22 -37 51 -37 38 0 45 -17 17 -41 l-23 -20 35 6 c19 3 73
10 120 14 83 8 87 7 162 -26 42 -18 109 -39 148 -47 77 -14 96 -26 86 -51 -4
-12 -10 -14 -25 -5 -28 15 -49 13 -29 -2 11 -9 17 -37 21 -87 3 -40 14 -90 25
-111 12 -26 16 -45 10 -60 -4 -12 -6 -26 -2 -31 3 -5 -2 -9 -10 -9 -8 0 -20
-9 -26 -20 -6 -11 -17 -20 -25 -20 -19 0 -19 -16 0 -24 21 -8 19 -26 -4 -26
-11 0 -23 -9 -26 -20 -7 -21 -25 -28 -25 -10 0 6 -7 10 -15 10 -8 0 -15 -7
-15 -15 0 -24 -13 -18 -44 20 -16 19 -35 35 -43 35 -8 0 -13 12 -13 34 0 28 8
41 42 70 23 20 50 36 60 36 14 0 18 8 18 35 0 19 5 35 10 35 6 0 10 5 10 10 0
6 -9 10 -20 10 -23 0 -24 4 -9 31 9 19 9 19 -10 10 -26 -15 -38 -14 -23 1 20
20 14 28 -14 18 -14 -6 -40 -10 -58 -10 -25 0 -39 -9 -67 -43 -20 -23 -43 -56
-52 -72 -22 -39 -46 -70 -51 -64 -8 8 14 104 27 114 7 6 18 23 25 38 12 28 12
28 -9 13 -25 -17 -49 -60 -49 -88 0 -29 -18 -58 -37 -58 -22 0 -10 86 22 153
14 28 25 54 25 59 0 18 -17 7 -30 -19 -31 -61 -90 -102 -77 -53 3 11 0 20 -6
21 -7 0 -2 4 11 9 13 6 23 19 24 32 1 13 2 30 3 38 1 24 15 40 34 40 10 0 26
8 35 19 15 17 15 19 1 25 -9 3 -25 6 -36 6 -10 0 -19 5 -19 10 0 6 -5 10 -11
10 -5 0 -7 -4 -4 -10 3 -5 2 -10 -4 -10 -5 0 -12 6 -15 13 -3 8 -8 7 -16 -5
-6 -10 -20 -18 -31 -18 -16 0 -19 5 -14 20 6 18 2 19 -74 16 -45 -2 -81 0 -81
3 0 4 14 17 30 29 16 13 30 29 30 37 0 20 -7 19 -37 -5 -20 -15 -29 -17 -39
-9 -8 6 -14 17 -14 24 0 6 -9 20 -19 29 -11 10 -22 29 -25 42 -7 25 -39 64
-54 64 -9 0 -30 49 -42 98 -7 29 -6 32 15 32 13 0 26 -4 30 -9 3 -5 18 -12 34
-16 16 -3 37 -15 47 -26 9 -10 29 -19 43 -19 l26 0 -23 -18 c-26 -20 -20 -32
14 -32 29 0 81 52 89 90 4 16 10 30 13 30 13 0 32 54 32 87 0 18 -4 33 -10 33
-5 0 -10 15 -11 33 0 28 -1 30 -9 10 -15 -38 -45 -46 -144 -39 -78 6 -96 4
-125 -12 -27 -15 -39 -16 -58 -8 -12 6 -24 17 -24 24 -4 32 -3 37 9 35 6 -2
12 2 12 7 0 6 -5 10 -11 10 -9 0 -10 19 -5 68 5 37 7 100 6 140 -2 89 20 126
76 128 19 0 37 -3 40 -8 6 -9 68 -11 77 -2 3 4 -1 17 -10 30 -9 15 -11 24 -4
24 6 0 11 -4 11 -9z m407 -153 c-3 -8 -6 -5 -6 6 -1 11 2 17 5 13 3 -3 4 -12
1 -19z m63 -128 c12 -8 11 -10 -7 -10 -13 0 -23 5 -23 10 0 13 11 13 30 0z
m-720 -151 c0 -6 -4 -7 -10 -4 -5 3 -10 11 -10 16 0 6 5 7 10 4 6 -3 10 -11
10 -16z m238 -39 c15 0 15 -2 2 -10 -19 -12 -77 -13 -85 -1 -6 10 32 20 53 15
8 -2 21 -4 30 -4z m442 0 c0 -5 -4 -10 -10 -10 -5 0 -10 5 -10 10 0 6 5 10 10
10 6 0 10 -4 10 -10z m-652 -50 c-2 -7 -10 1 -17 16 -12 27 -11 28 4 12 10 -9
16 -21 13 -28z m657 21 c6 -1 -12 -12 -39 -26 -45 -22 -51 -22 -72 -8 -22 14
-36 41 -15 28 5 -3 12 -1 15 4 5 7 58 8 111 2z m-575 -15 c0 -2 -8 -10 -17
-17 -16 -13 -17 -12 -4 4 13 16 21 21 21 13z m216 -20 c14 -30 3 -36 -62 -36
-30 0 -44 4 -44 13 0 9 9 12 29 9 23 -3 30 1 36 17 9 28 27 26 41 -3z m54 -6
c0 -5 -7 -10 -16 -10 -8 0 -12 5 -9 10 3 6 10 10 16 10 5 0 9 -4 9 -10z m-299
-78 c6 -20 16 -43 22 -49 14 -19 -3 -16 -25 4 -10 9 -18 27 -18 40 0 13 -5 34
-12 46 -10 20 -10 21 5 9 9 -8 21 -30 28 -50z m654 18 c-3 -5 -18 -10 -33 -9
l-27 1 25 8 c35 11 42 11 35 0z m-70 -19 c49 -2 57 -14 50 -71 -2 -25 -5 -52
-6 -62 -1 -30 -37 -29 -59 2 -11 16 -20 32 -19 37 1 4 0 10 -1 13 -1 3 -4 18
-6 34 -3 16 -10 39 -16 50 -9 18 -9 19 3 10 8 -6 32 -12 54 -13z m-75 -111 c0
-5 -4 -10 -10 -10 -5 0 -10 5 -10 10 0 6 5 10 10 10 6 0 10 -4 10 -10z m-415
-70 c3 -5 1 -10 -4 -10 -6 0 -11 5 -11 10 0 6 2 10 4 10 3 0 8 -4 11 -10z
m272 -176 c-3 -3 -12 -4 -19 -1 -8 3 -5 6 6 6 11 1 17 -2 13 -5z m-58 -181
c19 -18 39 -33 43 -33 5 0 -5 -27 -22 -60 -17 -34 -34 -59 -39 -56 -4 3 -14
31 -21 63 -7 32 -18 67 -25 78 -11 18 -45 112 -45 124 0 2 17 -15 37 -40 21
-24 53 -59 72 -76z m36 -193 c-21 -47 -35 -52 -35 -11 0 18 8 34 23 44 30 21
33 14 12 -33z m583 -87 c-15 -18 -31 -16 -45 6 -11 17 -9 21 7 26 11 4 18 10
15 15 -3 5 1 10 7 13 17 5 30 -43 16 -60z m170 -32 c3 -8 0 -11 -6 -8 -5 4
-12 -3 -15 -14 -6 -23 -32 -21 -33 2 -1 35 43 52 54 20z m87 -61 c22 -34 25
-51 25 -124 l0 -85 -30 1 c-16 1 -28 4 -25 7 2 4 6 25 9 46 3 22 9 57 15 77 7
30 5 44 -10 73 -11 19 -19 37 -19 40 0 13 12 1 35 -35z m-265 20 c0 -5 -7 -10
-15 -10 -8 0 -15 5 -15 10 0 6 7 10 15 10 8 0 15 -4 15 -10z m68 -60 c1 -35
10 -53 23 -45 5 4 10 -4 10 -17 1 -17 3 -18 6 -5 7 25 23 21 23 -6 0 -16 -9
-28 -26 -36 -28 -12 -48 -6 -25 8 9 6 10 11 2 15 -6 4 -11 2 -11 -3 0 -6 -5
-11 -11 -11 -6 0 -8 9 -4 20 4 11 2 20 -4 20 -17 0 -33 40 -27 66 9 36 43 32
44 -6z m-104 -100 c4 -28 3 -40 -3 -31 -7 11 -10 9 -15 -7 -9 -28 3 -72 20
-72 8 0 14 -4 14 -10 0 -18 -19 -10 -36 15 -14 22 -15 33 -4 90 7 36 14 65 15
63 1 -2 5 -23 9 -48z m201 -6 c0 -12 -8 -20 -22 -22 -20 -3 -21 -1 -10 22 14
29 32 29 32 0z m-110 -24 c3 -5 1 -10 -4 -10 -6 0 -11 5 -11 10 0 6 2 10 4 10
3 0 8 -4 11 -10z m55 1 c0 -5 -9 -11 -20 -14 -11 -3 -20 -1 -20 3 0 5 8 11 18
13 9 3 18 5 20 6 1 0 2 -3 2 -8z m130 -96 c0 -25 0 -25 -36 -10 -20 8 -66 16
-103 17 -57 2 -53 3 34 8 55 3 101 7 103 8 1 1 2 -9 2 -23z m-230 5 c0 -5 -4
-10 -10 -10 -5 0 -10 5 -10 10 0 6 5 10 10 10 6 0 10 -4 10 -10z"/>
<path d="M720 1220 c0 -5 5 -10 11 -10 5 0 7 5 4 10 -3 6 -8 10 -11 10 -2 0
-4 -4 -4 -10z"/>
<path d="M890 1123 c0 -5 7 -18 15 -29 13 -18 14 -18 8 4 -5 22 -23 41 -23 25z"/>
<path d="M1205 809 c-10 -15 3 -25 16 -12 7 7 7 13 1 17 -6 3 -14 1 -17 -5z"/>
</g>
</svg>
