<?xml version="1.0" standalone="no"?>
<!DOCTYPE svg PUBLIC "-//W3C//DTD SVG 20010904//EN"
 "http://www.w3.org/TR/2001/REC-SVG-20010904/DTD/svg10.dtd">
<svg version="1.0" xmlns="http://www.w3.org/2000/svg"
 width="175.000000pt" height="250.000000pt" viewBox="0 0 175.000000 250.000000"
 preserveAspectRatio="xMidYMid meet">

<g transform="translate(0.000000,250.000000) scale(0.100000,-0.100000)"
fill="#000000" stroke="none">
<path d="M670 2395 c-94 -20 -161 -59 -244 -142 -63 -63 -86 -94 -124 -172
-25 -52 -52 -102 -59 -110 -8 -9 -34 -38 -58 -66 -25 -28 -50 -68 -55 -90 -6
-22 -18 -55 -26 -73 -14 -29 -18 -96 -13 -180 1 -16 -13 -36 -45 -64 -46 -41
-59 -62 -31 -52 17 7 20 -11 4 -22 -8 -5 -9 -35 -4 -103 5 -53 9 -112 11 -131
1 -19 3 -37 4 -40 8 -20 -10 -97 -18 -83 -4 6 -6 -30 -4 -80 3 -122 5 -141 14
-147 8 -7 29 -114 28 -149 0 -14 7 -35 15 -47 8 -13 15 -33 15 -44 0 -12 4
-18 11 -15 10 7 49 -21 49 -36 0 -14 -42 -22 -50 -9 -5 8 -8 4 -7 -11 2 -20 7
-24 35 -24 18 0 36 6 41 14 7 10 13 11 31 1 13 -7 38 -10 56 -7 19 3 34 2 34
-4 0 -5 -4 -9 -10 -9 -5 0 -10 -4 -10 -10 0 -5 7 -7 15 -4 11 5 15 -1 15 -25
0 -20 7 -34 20 -41 11 -6 20 -17 20 -24 0 -7 8 -21 19 -30 17 -16 19 -16 24 5
3 12 3 35 0 50 -4 19 1 36 16 54 11 15 23 42 27 60 5 26 10 32 26 27 11 -2 15
-8 9 -11 -6 -4 -17 -45 -26 -91 -25 -133 -57 -228 -85 -254 -14 -13 -42 -31
-62 -39 -34 -14 -38 -14 -47 1 -7 13 -12 14 -24 4 -20 -17 -34 2 -40 53 l-4
40 -1 -47 c-2 -59 5 -78 30 -78 17 0 18 -3 8 -15 -6 -8 -8 -20 -4 -26 5 -9 2
-10 -9 -6 -11 4 -17 1 -17 -9 0 -8 -12 -31 -26 -50 l-26 -34 816 0 816 0 0
633 0 634 -41 99 c-39 93 -67 141 -112 189 -29 31 -40 55 -25 55 6 0 -2 15
-19 33 -43 45 -68 93 -103 200 -17 51 -48 121 -69 157 -21 36 -54 93 -72 127
-77 143 -234 259 -362 268 -155 11 -226 11 -277 0z m75 -225 c-3 -5 -12 -10
-18 -10 -7 0 -6 4 3 10 19 12 23 12 15 0z m390 -179 c-4 -8 -13 -4 -25 11 -24
30 -14 46 12 20 11 -11 17 -25 13 -31z m49 17 c20 -40 20 -41 -4 -26 -11 7
-20 18 -20 25 0 7 -6 13 -12 13 -9 0 -8 4 2 10 8 5 16 10 17 10 1 0 9 -14 17
-32z m-559 -49 c-4 -16 -3 -29 2 -29 16 0 74 40 79 55 8 21 24 19 24 -3 0 -29
22 -50 59 -56 19 -2 38 -11 42 -18 13 -21 21 -1 9 22 -18 33 -5 34 22 1 30
-35 78 -61 113 -61 14 0 24 -4 21 -9 -3 -5 1 -11 9 -15 17 -6 55 -64 55 -84 0
-8 -12 0 -26 18 -54 63 -125 80 -241 55 -64 -15 -172 -61 -153 -66 30 -9 92
-3 120 11 95 48 195 26 248 -55 4 -5 24 -19 45 -29 36 -19 97 -100 97 -130 0
-8 6 -16 13 -19 12 -4 8 -13 -39 -99 -17 -32 -9 -65 12 -47 11 9 14 5 14 -24
0 -19 7 -40 15 -47 10 -8 15 -30 15 -64 0 -41 -7 -62 -35 -106 -39 -61 -102
-130 -119 -130 -6 0 -22 -9 -36 -20 -30 -24 -40 -25 -40 -4 0 9 5 12 13 8 9
-5 9 -4 0 6 -10 11 -17 10 -40 -5 -40 -26 -100 -89 -96 -100 4 -15 -97 -55
-137 -54 -31 0 -32 1 -12 9 23 10 30 30 10 30 -6 0 -26 11 -44 25 -41 31 -48
31 -42 0 l5 -25 -31 19 c-17 11 -37 34 -44 51 -12 30 -12 30 21 30 19 0 36 3
40 6 9 9 -16 44 -30 44 -7 0 -13 7 -13 15 0 9 -7 18 -15 21 -18 7 -20 34 -2
35 6 0 25 2 41 4 17 2 35 -2 44 -12 14 -13 17 -13 33 9 l18 23 -77 3 c-42 2
-81 7 -86 12 -7 7 -5 11 5 11 7 1 30 4 49 6 19 2 64 5 100 7 36 1 83 6 106 10
35 6 45 4 71 -18 39 -33 43 -32 43 2 0 28 -24 60 -45 61 -5 0 -29 8 -53 17
-32 12 -49 13 -72 6 -18 -7 -32 -7 -35 -1 -9 14 -57 11 -53 -3 3 -8 27 -14 59
-16 30 -2 58 -7 63 -12 14 -14 -38 -23 -76 -12 -24 7 -46 6 -71 -3 -36 -12
-47 -10 -47 7 0 5 9 7 19 3 11 -3 22 -1 25 4 10 16 -5 61 -20 61 -17 0 -18 12
-2 28 9 9 5 12 -18 12 -34 0 -74 25 -74 46 0 8 4 22 9 32 13 23 31 105 31 139
0 15 7 46 16 70 26 67 14 103 -52 153 -30 23 -68 46 -84 52 -31 10 -41 38 -15
38 8 0 15 4 15 10 0 5 15 18 34 27 62 32 144 82 150 92 3 5 15 7 27 4 16 -5
19 -11 14 -34z m-164 -272 c13 -13 31 -27 39 -31 8 -3 4 -3 -10 0 -14 4 -50 9
-80 13 l-55 6 30 17 c40 23 46 22 76 -5z m-13 -95 c22 -2 34 2 38 12 10 25 27
19 19 -6 -8 -26 -42 -174 -54 -233 -10 -51 -56 -122 -65 -99 -9 22 -7 36 3 30
4 -3 6 6 3 19 -2 14 -7 25 -11 25 -4 0 -5 15 -3 34 3 25 -2 40 -17 55 -12 12
-21 29 -21 39 0 10 -5 23 -12 30 -20 20 -1 25 25 7 16 -10 40 -15 63 -13 47 4
59 28 15 28 -43 0 -39 18 5 26 42 8 28 24 -23 24 -27 0 -30 3 -26 23 10 46 16
53 22 27 5 -19 14 -26 39 -28z m-288 -212 c0 -5 -8 -10 -17 -10 -15 0 -16 2
-3 10 19 12 20 12 20 0z m0 -44 c0 -2 -7 -6 -15 -10 -8 -3 -15 -1 -15 4 0 6 7
10 15 10 8 0 15 -2 15 -4z m1032 -268 l-5 -42 32 35 32 34 -6 -30 c-3 -16 -9
-42 -11 -56 -6 -29 32 -83 66 -94 26 -8 26 -41 0 -57 -27 -17 -25 -23 14 -42
24 -11 47 -14 75 -10 24 4 41 3 41 -3 0 -11 -61 -64 -230 -200 -69 -56 -163
-137 -210 -181 -48 -45 -90 -77 -97 -73 -6 3 -27 20 -46 38 -61 55 -168 124
-272 174 -55 26 -111 56 -124 67 l-25 20 64 75 c60 72 66 76 114 82 69 9 123
28 185 64 29 17 54 31 56 31 2 0 23 13 47 29 24 16 84 50 133 76 50 26 106 60
125 75 19 16 38 29 42 29 3 1 4 -18 0 -41z m-982 -28 c0 -5 -7 -10 -16 -10 -8
0 -12 5 -9 10 3 6 10 10 16 10 5 0 9 -4 9 -10z m1069 -69 c9 -16 8 -18 -9 -14
-11 3 -20 12 -20 19 0 20 18 17 29 -5z m-839 -248 c-1 -13 -40 -56 -46 -50 -3
3 5 16 18 30 26 28 28 30 28 20z m-66 -73 c-17 -4 -37 -10 -44 -15 -8 -5 -11
-3 -8 6 5 16 46 28 68 20 9 -3 4 -7 -16 -11z"/>
<path d="M817 1749 c-16 -4 -35 -16 -42 -26 -12 -15 -17 -16 -35 -5 -18 11
-22 9 -32 -14 -11 -24 -10 -29 15 -50 16 -13 26 -28 22 -33 -14 -23 18 -20 36
3 25 32 31 32 44 4 12 -29 41 -35 64 -14 12 11 20 13 28 5 16 -16 63 1 76 28
9 21 6 28 -26 58 -20 19 -40 35 -45 35 -4 0 -23 4 -42 9 -19 4 -48 4 -63 0z
m122 -44 c22 -22 23 -25 7 -40 -10 -11 -23 -14 -34 -10 -9 4 -42 11 -72 14
-51 7 -53 8 -30 19 18 8 20 11 8 11 -27 1 -21 18 10 29 37 14 82 5 111 -23z"/>
<path d="M740 1577 c0 -17 68 -63 78 -53 3 4 0 11 -8 16 -10 6 -7 10 16 15 74
17 72 20 -18 30 -57 5 -68 4 -68 -8z"/>
<path d="M776 1396 c3 -8 13 -17 21 -20 26 -10 25 0 -1 18 -20 13 -24 13 -20
2z"/>
<path d="M660 1356 c-42 -13 -60 -24 -60 -36 0 -11 91 19 110 36 13 12 13 14
0 13 -8 -1 -31 -6 -50 -13z"/>
<path d="M640 1074 c0 -8 5 -12 10 -9 6 4 8 11 5 16 -9 14 -15 11 -15 -7z"/>
<path d="M615 1040 c-3 -5 1 -10 9 -10 9 0 16 5 16 10 0 6 -4 10 -9 10 -6 0
-13 -4 -16 -10z"/>
<path d="M30 624 c0 -3 5 -14 10 -25 16 -28 32 -23 18 6 -10 22 -28 35 -28 19z"/>
<path d="M240 455 c0 -16 27 -32 37 -21 7 7 -16 36 -28 36 -5 0 -9 -7 -9 -15z"/>
<path d="M304 377 c-3 -9 -12 -17 -20 -17 -8 0 -14 -7 -14 -15 0 -11 5 -12 25
-5 25 9 25 9 9 -15 -16 -25 -24 -25 -57 3 -19 17 -32 10 -24 -12 4 -9 13 -13
22 -10 17 7 22 -21 5 -31 -5 -3 -10 -14 -9 -23 0 -11 3 -12 6 -4 8 21 20 13
16 -12 -7 -32 10 -40 47 -21 51 26 57 55 27 122 -19 43 -28 53 -33 40z"/>
<path d="M160 319 c0 -11 5 -17 10 -14 6 3 10 13 10 21 0 8 -4 14 -10 14 -5 0
-10 -9 -10 -21z"/>
<path d="M187 294 c-14 -15 -6 -34 14 -34 14 0 19 5 17 17 -3 18 -20 27 -31
17z"/>
<path d="M90 85 c0 -8 5 -15 10 -15 6 0 10 -7 10 -15 0 -18 -16 -20 -23 -2 -3
6 -6 3 -6 -8 0 -11 3 -26 8 -34 8 -12 11 -12 23 0 8 7 13 21 10 31 -3 12 1 18
12 18 9 0 16 7 16 15 0 18 -12 19 -28 3 -9 -9 -12 -8 -12 5 0 9 -4 17 -10 17
-5 0 -10 -7 -10 -15z"/>
<path d="M0 10 c0 -5 18 -10 40 -10 22 0 40 5 40 10 0 6 -18 10 -40 10 -22 0
-40 -4 -40 -10z"/>
</g>
</svg>
