<?xml version="1.0" standalone="no"?>
<!DOCTYPE svg PUBLIC "-//W3C//DTD SVG 20010904//EN"
 "http://www.w3.org/TR/2001/REC-SVG-20010904/DTD/svg10.dtd">
<svg version="1.0" xmlns="http://www.w3.org/2000/svg"
 width="230.000000pt" height="284.000000pt" viewBox="0 0 230.000000 284.000000"
 preserveAspectRatio="xMidYMid meet">

<g transform="translate(0.000000,284.000000) scale(0.100000,-0.100000)"
fill="#000000" stroke="none">
<path d="M373 2824 c-7 -7 -13 -18 -13 -23 0 -16 -22 -25 -30 -11 -4 7 -10 -1
-14 -22 -5 -26 -9 -30 -16 -18 -8 12 -10 11 -10 -6 0 -13 -14 -31 -35 -45 -19
-13 -35 -27 -35 -31 0 -5 -5 -8 -11 -8 -6 0 -25 -17 -42 -37 -18 -20 -44 -50
-60 -66 -15 -16 -25 -33 -21 -38 3 -5 -5 -13 -18 -18 -20 -8 -21 -10 -6 -16
24 -9 23 -20 -4 -45 -12 -11 -16 -20 -10 -20 19 0 14 -20 -5 -20 -16 -1 -16
-2 2 -13 27 -16 32 -47 7 -40 -15 3 -21 -2 -26 -21 -3 -14 -11 -26 -16 -26
-14 0 -13 -139 1 -178 6 -18 15 -29 20 -26 5 3 7 10 4 15 -4 5 -1 9 4 9 6 0
11 9 11 20 0 14 -5 18 -17 14 -17 -5 -17 -5 -1 6 10 6 21 18 26 26 19 34 20
-23 1 -62 -17 -39 -17 -39 3 -44 12 -3 24 -12 26 -19 3 -9 -2 -11 -14 -8 -52
14 -74 17 -74 8 0 -6 18 -15 41 -21 23 -6 39 -14 36 -16 -3 -3 -21 -1 -40 4
l-35 10 -1 -69 c-1 -57 1 -69 14 -69 10 0 15 7 14 18 -4 24 10 72 21 72 5 0
10 -23 12 -52 3 -43 6 -52 23 -53 11 -1 30 -5 42 -9 16 -5 28 0 47 19 27 27
33 45 16 45 -22 0 -9 50 18 67 15 10 30 22 34 27 4 6 5 -12 3 -39 -1 -28 2
-56 9 -64 9 -12 8 -14 -6 -8 -12 4 -24 -2 -37 -18 -10 -14 -24 -25 -30 -25
-15 0 -14 -43 1 -58 6 -6 11 -25 10 -42 0 -16 3 -30 8 -30 12 0 19 26 13 49
-3 12 -1 21 6 21 6 0 11 9 11 20 0 11 7 20 15 20 8 0 15 5 15 10 0 6 5 10 12
10 6 0 2 -10 -10 -23 -25 -27 -28 -37 -8 -37 8 0 16 -7 20 -15 6 -18 -20 -85
-34 -85 -6 0 -10 -6 -10 -14 0 -17 -45 -27 -59 -13 -8 8 -11 5 -11 -8 0 -10
-3 -15 -7 -12 -3 4 -12 2 -19 -4 -9 -7 -14 -6 -20 2 -11 18 -13 129 -3 129 5
0 9 9 9 20 0 12 9 24 21 29 17 6 8 10 -42 18 -35 6 -72 14 -82 18 -16 7 -17 0
-16 -76 1 -46 6 -89 11 -96 5 -7 5 -14 -2 -18 -5 -3 -10 -22 -10 -41 0 -19 4
-33 9 -29 5 3 12 1 16 -5 3 -5 -1 -10 -9 -10 -23 0 -20 -15 6 -33 l23 -16 -22
0 c-22 -1 -34 -21 -13 -21 6 0 10 -5 10 -11 0 -5 -4 -7 -10 -4 -5 3 -10 0 -10
-9 0 -8 6 -17 13 -19 9 -4 8 -8 -3 -16 -13 -9 -12 -12 7 -17 13 -4 23 -10 23
-14 0 -5 -9 -6 -20 -3 -22 6 -28 -12 -7 -20 10 -4 10 -6 0 -6 -8 -1 -13 -14
-13 -31 0 -25 4 -30 23 -30 62 0 99 -47 78 -101 -9 -22 -10 -21 -10 14 -1 21
-5 36 -10 33 -5 -3 -8 -19 -7 -36 1 -16 -1 -30 -6 -30 -4 0 -8 18 -8 40 0 22
-4 40 -10 40 -5 0 -10 -19 -10 -42 0 -50 -8 -47 -13 7 -2 21 -8 40 -13 42 -6
2 -11 -103 -13 -267 -1 -148 1 -270 6 -270 4 0 43 20 87 45 43 25 82 42 87 39
5 -3 9 -1 9 5 0 9 70 51 85 51 9 0 -56 -60 -124 -115 -115 -92 -151 -127 -151
-147 0 -10 4 -16 10 -13 6 4 10 -11 11 -37 0 -24 2 -84 4 -135 3 -71 1 -94
-10 -103 -19 -16 -20 -106 -2 -113 9 -4 9 -6 0 -6 -10 -1 -13 -31 -13 -116 0
-112 0 -115 23 -115 22 -1 22 -1 -3 -15 -22 -13 20 -14 350 -12 l375 2 3 25
c4 27 -15 100 -26 100 -10 0 -6 205 5 225 5 9 20 22 33 28 13 7 27 23 31 37 5
18 7 20 8 6 1 -16 6 -18 40 -12 22 3 46 8 53 11 16 6 88 -97 88 -125 0 -8 -11
-78 -25 -154 -14 -77 -25 -141 -25 -143 0 -2 6 -3 13 -3 9 0 17 29 25 88 14
94 42 224 51 232 4 3 12 17 20 32 8 16 16 26 19 24 5 -5 -25 -199 -37 -241 -5
-16 -12 -54 -15 -82 l-7 -53 31 0 c27 0 30 2 24 25 -3 14 -2 25 4 25 5 0 10
10 10 23 2 59 5 83 14 94 5 7 5 13 -1 17 -11 7 -2 46 11 46 5 0 7 13 3 28 -3
16 -2 47 4 71 8 39 7 42 -18 56 -33 18 -22 18 53 1 81 -19 177 -34 256 -41 36
-4 86 -13 113 -21 l47 -16 0 -54 c0 -32 -4 -54 -11 -54 -6 0 -8 -9 -4 -21 6
-18 4 -20 -17 -14 l-23 8 25 -22 25 -22 -27 4 c-16 2 -28 0 -28 -4 0 -5 7 -9
16 -9 10 0 14 -6 10 -15 -3 -8 2 -21 10 -30 14 -13 13 -15 -10 -15 -32 0 -34
-15 -3 -24 16 -4 19 -8 9 -15 -11 -6 -10 -10 3 -15 48 -18 49 -17 41 155 -6
155 5 370 24 449 11 44 2 -129 -11 -216 -5 -33 -7 -78 -4 -100 2 -21 7 -96 11
-166 l6 -128 62 0 61 1 -23 19 c-13 11 -21 25 -19 32 4 10 6 10 6 1 1 -7 8
-13 16 -13 9 0 18 -7 21 -15 4 -10 13 -13 26 -9 14 4 18 2 14 -5 -5 -7 3 -11
23 -11 33 0 34 2 51 100 19 111 58 247 89 307 24 49 131 204 131 192 0 -2 -4
-19 -10 -38 -10 -35 -64 -403 -74 -503 -4 -32 -2 -58 3 -58 9 0 31 107 31 152
0 14 9 54 21 89 15 46 20 89 20 153 -1 88 0 91 31 123 18 18 35 33 39 33 5 0
-4 -26 -18 -58 -20 -44 -27 -83 -34 -172 -7 -100 -29 -249 -45 -302 -4 -13 0
-18 13 -18 14 0 22 17 38 83 10 45 20 91 21 102 1 11 4 27 7 35 3 8 10 56 17
105 10 74 19 100 49 147 20 31 39 57 43 57 4 1 9 -9 11 -22 3 -16 5 -13 6 10
1 26 4 31 17 26 14 -5 16 -17 12 -68 -3 -33 -10 -70 -16 -81 -6 -10 -18 -53
-28 -94 -9 -41 -21 -80 -25 -86 -5 -6 -6 -14 -3 -17 5 -5 -16 -121 -32 -179
-5 -16 3 -18 75 -18 l80 0 0 336 c1 309 -1 338 -17 363 -22 31 -66 122 -67
136 0 5 -9 19 -20 31 -12 12 -27 35 -35 49 -14 26 -13 29 8 43 29 19 30 74 1
100 -18 17 -18 21 -5 34 8 8 11 20 6 27 -5 9 -9 5 -14 -13 -3 -14 -11 -26 -16
-26 -18 0 -59 43 -53 54 3 6 3 8 -2 4 -4 -4 -14 -3 -22 3 -11 10 -10 14 4 24
22 17 8 33 -15 18 -14 -8 -27 -2 -68 36 l-51 47 44 38 c41 36 43 39 37 79 -7
46 -30 97 -43 97 -4 0 -11 64 -14 143 -6 162 -11 179 -109 372 -66 131 -86
157 -138 186 -19 11 -55 31 -80 45 -48 28 -55 30 -170 64 -41 12 -82 24 -90
28 -8 3 -33 7 -55 8 -37 3 -39 2 -21 -11 11 -8 26 -15 33 -15 7 0 36 -23 64
-50 44 -43 50 -54 45 -78 -6 -26 -6 -26 9 -8 8 11 18 17 21 13 4 -4 1 -13 -6
-22 -7 -8 -10 -21 -7 -29 8 -21 -15 -36 -44 -29 -13 3 -39 19 -57 35 -18 15
-37 28 -42 28 -5 0 -15 6 -22 13 -18 18 -98 47 -128 47 -37 -1 -67 -30 -73
-73 -7 -42 9 -87 30 -87 7 0 13 -5 13 -11 0 -5 4 -8 8 -5 5 3 39 -26 75 -64
52 -53 67 -75 67 -98 0 -17 -6 -33 -12 -36 -10 -5 -10 -7 0 -12 19 -9 14 -24
-9 -24 -21 0 -79 -53 -79 -72 0 -14 -31 -37 -49 -38 -7 0 -11 6 -8 14 3 8 3
17 0 20 -7 6 -27 -13 -35 -34 -3 -8 -28 -26 -54 -40 -53 -27 -94 -64 -94 -83
0 -18 -43 -120 -63 -150 -14 -22 -25 -27 -57 -27 -21 0 -42 5 -45 10 -4 6 -28
8 -59 4 -63 -8 -140 17 -158 50 -7 13 -12 73 -11 159 0 75 -2 137 -6 137 -4 0
-12 -5 -18 -11 -8 -8 -13 -7 -18 1 -4 6 -2 17 4 23 6 6 11 17 11 25 0 11 53
87 71 102 4 3 6 16 5 29 0 13 4 26 11 28 7 3 9 -3 6 -16 -4 -16 -1 -21 15 -21
11 0 22 -7 26 -15 3 -8 12 -12 21 -9 20 8 19 24 -2 24 -16 0 -16 1 -1 17 14
13 20 14 31 4 12 -9 18 -8 31 4 9 9 16 23 16 31 0 8 6 24 13 35 10 18 9 23
-12 40 -13 11 -31 24 -40 28 -13 8 -13 14 0 52 7 24 13 48 11 52 -1 4 4 18 13
30 8 12 15 17 15 11 0 -5 -5 -15 -12 -22 -6 -6 -8 -15 -3 -19 4 -5 10 -1 13 7
9 25 81 92 92 85 5 -3 10 -15 10 -26 0 -31 61 -52 126 -44 72 9 85 26 57 75
l-22 37 47 6 c26 3 80 3 121 -1 45 -3 72 -1 68 4 -3 6 -48 11 -99 13 -51 1
-116 3 -145 4 -28 1 -49 -1 -46 -5 4 -7 -29 -12 -79 -11 -10 0 -18 -4 -18 -7
0 -4 -13 -10 -29 -13 -16 -3 -36 -13 -45 -22 -22 -22 -22 2 0 33 8 12 13 26 9
31 -3 5 3 12 12 14 15 4 15 5 2 6 -17 1 -73 -103 -110 -202 l-19 -52 3 47 c1
25 -1 44 -4 42 -9 -5 -26 -92 -28 -141 -1 -13 -6 -23 -12 -23 -14 0 -5 97 16
180 23 89 90 204 169 291 42 46 151 109 317 183 45 20 242 38 275 25 13 -4 24
-7 24 -4 0 2 29 -7 65 -20 36 -14 75 -25 87 -25 26 0 83 -17 121 -37 15 -8 39
-20 53 -28 31 -16 81 -62 157 -144 31 -34 57 -58 57 -53 0 6 -14 24 -30 42
-17 18 -30 38 -30 45 0 16 62 13 68 -3 2 -6 9 -9 15 -6 7 2 17 -4 23 -13 12
-20 6 -103 -7 -103 -5 0 -9 5 -9 10 0 6 -4 10 -10 10 -18 0 -10 -47 11 -66 22
-19 22 -19 15 9 -5 20 -3 27 9 27 8 0 15 8 15 18 1 16 1 16 14 0 7 -10 16 -15
19 -11 4 3 7 -10 7 -31 0 -22 4 -35 10 -31 6 3 7 17 4 30 -5 20 -1 25 21 31
15 4 23 9 18 13 -5 3 -17 32 -27 64 -10 31 -22 57 -27 57 -5 0 -9 5 -9 11 0 5
5 7 11 4 14 -9 -11 32 -38 62 -12 14 -27 22 -32 18 -6 -3 -9 0 -6 7 3 8 -8 21
-25 31 -30 18 -32 21 -33 67 0 23 0 23 -4 3 -6 -32 -23 -29 -23 4 0 26 -1 26
-15 7 -14 -18 -14 -18 -15 8 0 14 4 28 9 30 4 2 -1 12 -12 23 -20 20 -20 20
-13 -6 4 -18 1 -31 -9 -39 -13 -11 -15 -7 -15 29 0 22 -4 41 -9 41 -6 0 -8
-17 -5 -37 2 -21 1 -31 -2 -23 -15 38 -35 80 -38 80 -2 0 -13 -15 -25 -32
l-21 -33 0 29 c0 35 -7 31 -12 -7 -6 -45 -22 -30 -19 18 l3 45 -301 0 c-298 0
-300 0 -307 -22 -6 -19 -7 -19 -16 -5 -11 20 -34 22 -41 5 -3 -8 -6 -6 -6 5
-1 16 -17 17 -196 17 -165 -1 -193 -3 -188 -15 3 -8 1 -15 -5 -15 -6 0 -8 -8
-5 -18 2 -10 -3 -24 -11 -31 -14 -12 -16 -10 -16 17 0 17 -6 33 -12 35 -10 4
-10 8 1 16 11 7 -14 10 -83 10 l-98 1 7 -40 c4 -26 3 -40 -4 -40 -6 0 -11 15
-11 34 0 19 -4 38 -10 41 -6 4 -10 -5 -10 -19 0 -33 -16 -34 -27 -2 -7 20 -10
22 -20 10z m1267 -19 c6 -8 10 -22 7 -32 -4 -14 -5 -13 -6 5 -1 12 -7 22 -16
22 -8 0 -15 5 -15 10 0 15 16 12 30 -5z m-920 -37 c0 6 8 8 18 5 10 -2 24 3
31 11 8 9 21 16 30 16 14 -1 14 -2 -2 -14 -9 -7 -15 -20 -12 -27 4 -11 -7 -14
-48 -14 -53 0 -54 1 -54 29 l0 29 19 -23 c10 -12 18 -18 18 -12z m160 -14 c0
-4 -9 1 -20 11 -11 10 -20 23 -20 28 0 6 9 1 20 -11 11 -12 20 -24 20 -28z
m-270 16 c-7 -13 -16 -17 -28 -12 -16 6 -16 7 1 10 9 2 17 8 17 13 0 5 5 9 10
9 7 0 7 -6 0 -20z m217 -5 c0 -18 -19 -15 -25 3 -2 7 3 12 11 12 7 0 14 -7 14
-15z m768 1 c17 -17 7 -30 -12 -15 -13 12 -18 29 -7 29 3 0 12 -6 19 -14z
m215 -30 c0 -40 12 -86 21 -80 5 3 9 -2 9 -10 0 -9 9 -16 20 -16 17 0 19 -5
14 -25 -4 -17 -2 -25 7 -25 10 0 10 -3 2 -11 -8 -8 -19 -6 -42 7 -16 10 -28
21 -25 26 3 4 -2 11 -10 14 -12 5 -16 22 -16 75 0 39 4 69 10 69 6 0 10 -11
10 -24z m-1320 -12 c0 -8 -4 -12 -10 -9 -5 3 -10 13 -10 21 0 8 5 12 10 9 6
-3 10 -13 10 -21z m-100 -23 c0 -32 15 -50 23 -29 3 7 6 -1 6 -19 1 -17 7 -34
14 -36 8 -4 9 -8 1 -14 -6 -4 -13 -29 -16 -55 -5 -40 -3 -48 13 -53 20 -7 49
6 68 29 16 19 33 12 24 -9 -3 -8 0 -15 6 -15 6 0 11 6 11 14 0 8 7 16 15 20
10 4 15 -1 15 -14 0 -11 7 -20 15 -20 8 0 15 -4 15 -10 0 -5 -7 -7 -16 -3 -12
4 -15 2 -12 -8 3 -8 12 -13 22 -11 11 2 16 -4 16 -23 0 -14 -4 -25 -9 -25 -5
0 -11 -9 -14 -20 -3 -13 -10 -18 -21 -14 -11 4 -16 1 -16 -12 0 -16 -2 -15
-20 4 -24 26 -43 28 -64 7 -22 -22 -9 -43 31 -51 33 -6 35 -8 28 -38 -3 -17
-7 -41 -8 -52 -1 -13 -7 -19 -14 -17 -7 3 -16 -2 -19 -11 -5 -12 -10 -14 -19
-6 -7 6 -17 10 -21 9 -24 -6 -44 15 -44 45 0 39 -23 76 -35 57 -4 -7 -7 -31
-7 -53 1 -41 -30 -88 -44 -67 -4 8 -9 7 -15 -2 -8 -11 -12 -10 -24 5 -12 16
-18 17 -27 8 -21 -21 -24 -14 -24 53 0 60 1 65 21 65 57 0 77 64 20 66 -17 0
-33 -5 -37 -10 -11 -16 -78 23 -78 45 0 10 -5 21 -10 24 -6 4 -8 11 -4 16 3 5
10 7 15 3 6 -3 7 4 3 19 -5 23 -3 25 17 20 18 -5 21 -3 16 10 -7 19 17 24 29
6 5 -8 9 -7 14 1 6 10 15 8 35 -9 15 -11 36 -21 46 -21 26 0 25 40 -2 71 -18
21 -19 24 -4 27 12 3 15 10 11 28 -5 18 -3 22 9 18 10 -4 15 0 15 15 0 14 5
19 15 15 11 -5 15 1 15 25 0 17 5 31 10 31 6 0 10 -13 10 -29z m1320 19 c0 -5
-4 -10 -10 -10 -5 0 -10 5 -10 10 0 6 5 10 10 10 6 0 10 -4 10 -10z m-960 -4
c0 -11 -19 -15 -25 -6 -3 5 1 10 9 10 9 0 16 -2 16 -4z m40 0 c0 -3 -4 -8 -10
-11 -5 -3 -10 -1 -10 4 0 6 5 11 10 11 6 0 10 -2 10 -4z m167 -18 c-3 -8 -6
-5 -6 6 -1 11 2 17 5 13 3 -3 4 -12 1 -19z m-251 -13 c16 -24 16 -27 -2 -40
-34 -25 -39 -21 -24 19 9 24 8 25 -23 19 -29 -6 -31 -5 -18 10 20 24 48 21 67
-8z m-146 -1 c0 -8 -4 -12 -10 -9 -5 3 -10 10 -10 16 0 5 5 9 10 9 6 0 10 -7
10 -16z m265 6 c3 -5 -3 -10 -15 -10 -12 0 -18 5 -15 10 3 6 10 10 15 10 5 0
12 -4 15 -10z m-45 -22 c0 -16 -3 -19 -11 -11 -6 6 -8 16 -5 22 11 17 16 13
16 -11z m-193 -20 c-3 -8 -6 -5 -6 6 -1 11 2 17 5 13 3 -3 4 -12 1 -19z m-337
-38 c0 -23 -4 -30 -20 -30 -11 0 -20 4 -20 9 0 5 -3 17 -6 25 -4 12 -2 15 9
10 8 -3 18 -1 22 5 11 18 15 13 15 -19z m367 -2 c-3 -7 -5 -2 -5 12 0 14 2 19
5 13 2 -7 2 -19 0 -25z m183 22 c0 -5 -2 -10 -4 -10 -3 0 -8 5 -11 10 -3 6 -1
10 4 10 6 0 11 -4 11 -10z m-270 -21 c0 -6 -4 -7 -10 -4 -5 3 -10 11 -10 16 0
6 5 7 10 4 6 -3 10 -11 10 -16z m215 1 c3 -5 1 -10 -4 -10 -6 0 -11 5 -11 10
0 6 2 10 4 10 3 0 8 -4 11 -10z m-95 -15 c0 -8 -2 -15 -4 -15 -2 0 -6 7 -10
15 -3 8 -1 15 4 15 6 0 10 -7 10 -15z m1300 11 c0 -3 -4 -8 -10 -11 -5 -3 -10
-1 -10 4 0 6 5 11 10 11 6 0 10 -2 10 -4z m40 0 c0 -2 -7 -7 -16 -10 -8 -3
-12 -2 -9 4 6 10 25 14 25 6z m-1250 -116 c0 -5 -4 -10 -10 -10 -5 0 -10 5
-10 10 0 6 5 10 10 10 6 0 10 -4 10 -10z m-24 -35 c17 -16 14 -18 -10 -9 -9 3
-16 10 -16 15 0 13 9 11 26 -6z m1354 -24 c0 -6 -4 -13 -10 -16 -5 -3 -10 1
-10 9 0 9 5 16 10 16 6 0 10 -4 10 -9z m-1923 -80 c18 -15 22 -26 17 -50 -6
-31 -7 -31 -21 -11 -8 11 -24 20 -36 20 -21 1 -21 2 -4 14 10 8 15 20 11 30
-8 21 6 20 33 -3z m469 -28 c-3 -3 -13 -3 -22 1 -16 6 -15 8 2 21 16 12 19 12
22 -1 2 -9 1 -18 -2 -21z m-538 -32 c3 -8 -1 -12 -9 -9 -7 2 -15 10 -17 17 -3
8 1 12 9 9 7 -2 15 -10 17 -17z m-38 -31 c0 -5 -5 -10 -11 -10 -5 0 -7 5 -4
10 3 6 8 10 11 10 2 0 4 -4 4 -10z m50 -10 c0 -5 -2 -10 -4 -10 -3 0 -8 5 -11
10 -3 6 -1 10 4 10 6 0 11 -4 11 -10z m-60 -32 c0 -7 -4 -19 -9 -27 -6 -9 -9
-5 -8 13 0 14 3 26 8 26 5 0 9 -6 9 -12z m95 1 c10 -15 -1 -23 -20 -15 -9 3
-13 10 -10 16 8 13 22 13 30 -1z m20 -39 c-3 -5 -10 -10 -16 -10 -5 0 -9 5 -9
10 0 6 7 10 16 10 8 0 12 -4 9 -10z m242 -22 c23 -21 32 -45 13 -33 -6 3 -10
-5 -10 -19 0 -35 -18 -42 -22 -9 -2 22 -8 27 -23 24 -19 -3 -19 -2 -1 17 10
12 15 26 11 31 -11 19 8 12 32 -11z m-207 -8 c0 -5 -4 -10 -10 -10 -5 0 -10 5
-10 10 0 6 5 10 10 10 6 0 10 -4 10 -10z m17 -26 c-3 -3 -12 -4 -19 -1 -8 3
-5 6 6 6 11 1 17 -2 13 -5z m-97 -8 c0 -2 -7 -7 -16 -10 -8 -3 -12 -2 -9 4 6
10 25 14 25 6z m133 -23 c-7 -2 -19 -2 -25 0 -7 3 -2 5 12 5 14 0 19 -2 13 -5z
m317 -3 c0 -5 -2 -10 -4 -10 -3 0 -8 5 -11 10 -3 6 -1 10 4 10 6 0 11 -4 11
-10z m-40 -20 c0 -5 -4 -10 -9 -10 -6 0 -13 5 -16 10 -3 6 1 10 9 10 9 0 16
-4 16 -10z m-364 -15 c-8 -8 -20 -15 -27 -15 -9 0 -8 4 1 15 7 8 19 15 27 15
12 0 12 -2 -1 -15z m124 5 c0 -5 -7 -7 -15 -4 -8 4 -15 8 -15 10 0 2 7 4 15 4
8 0 15 -4 15 -10z m451 -36 c16 -18 20 -28 12 -31 -7 -3 -13 -11 -13 -19 0
-11 -7 -9 -30 8 -28 21 -38 47 -23 61 12 13 30 7 54 -19z m-79 -16 c-7 -7 -12
-8 -12 -2 0 14 12 26 19 19 2 -3 -1 -11 -7 -17z m-367 2 c3 -5 1 -10 -4 -10
-6 0 -11 5 -11 10 0 6 2 10 4 10 3 0 8 -4 11 -10z m60 -1 c4 -6 5 -12 2 -15
-7 -7 -37 7 -37 17 0 13 27 11 35 -2z m120 -9 c-3 -5 -10 -10 -16 -10 -5 0 -9
5 -9 10 0 6 7 10 16 10 8 0 12 -4 9 -10z m125 -53 c0 -5 -4 -5 -10 -2 -5 3
-10 -1 -10 -9 0 -11 -10 -16 -30 -16 -24 0 -33 6 -40 26 -14 35 -13 38 13 49
18 9 27 6 50 -15 15 -14 27 -29 27 -33z m-470 24 c0 -5 10 -11 23 -13 15 -2
23 -11 25 -28 2 -22 -1 -26 -26 -28 -32 -2 -50 21 -32 43 6 8 6 15 -2 23 -9 9
-9 12 0 12 7 0 12 -4 12 -9z m248 -14 c2 -10 -3 -17 -13 -17 -9 0 -13 5 -10
10 3 6 1 10 -5 10 -6 0 -8 5 -5 11 9 14 29 6 33 -14z m63 -38 l-9 -24 -10 25
c-8 20 -7 28 6 38 21 16 27 -2 13 -39z m-55 -34 c2 -17 -2 -25 -12 -25 -10 0
-14 8 -12 23 2 17 -3 23 -22 26 l-25 4 25 7 c30 8 42 -1 46 -35z m44 -14 c0
-12 -20 -25 -27 -18 -7 7 6 27 18 27 5 0 9 -4 9 -9z m10 -50 c0 -5 -8 -11 -19
-14 -14 -3 -17 -11 -14 -31 7 -34 -10 -34 -26 0 -7 16 -17 24 -25 21 -20 -8
-27 3 -13 19 13 15 97 19 97 5z m-370 -36 c11 -13 10 -14 -4 -9 -9 3 -16 10
-16 15 0 13 6 11 20 -6z m293 -21 c3 -4 -3 -24 -13 -45 -11 -21 -20 -47 -20
-59 0 -19 -14 -25 -48 -21 -9 2 -13 -7 -10 -25 2 -16 -2 -29 -10 -32 -9 -3
-11 3 -7 21 5 20 3 25 -9 23 -23 -3 -32 -16 -18 -25 17 -10 4 -41 -14 -34 -19
7 -18 -6 4 -30 17 -19 16 -20 -10 -13 -20 4 -28 3 -28 -7 0 -18 45 -41 64 -34
9 4 16 2 16 -4 0 -6 9 -8 19 -4 14 4 26 -2 42 -25 14 -19 25 -26 30 -19 4 7 9
7 12 2 4 -5 -1 -19 -9 -31 -12 -18 -19 -20 -35 -12 -21 12 -26 1 -6 -19 16
-16 -19 -43 -96 -72 -31 -12 -62 -29 -67 -38 -6 -10 -9 18 -9 82 1 77 3 97 14
94 8 -4 12 3 12 19 1 13 -5 24 -12 24 -16 0 -25 58 -11 68 27 17 39 42 27 56
-24 29 26 70 55 45 9 -7 14 -4 19 10 3 12 13 21 21 21 8 0 14 7 14 15 0 8 3
14 8 13 9 -4 52 39 52 52 0 11 13 13 23 4z m1096 -20 c2 -2 -9 -4 -26 -4 -36
0 -63 -22 -88 -70 -10 -19 -20 -29 -23 -22 -4 13 -42 -53 -42 -75 0 -16 5 -16
32 -2 14 8 23 8 31 0 8 -8 -1 -22 -32 -50 -33 -30 -44 -36 -48 -24 -9 23 18
183 30 176 6 -4 8 4 5 20 -6 29 18 51 63 60 23 4 90 -2 98 -9z m-1399 -4 c0
-5 -2 -10 -4 -10 -3 0 -8 5 -11 10 -3 6 -1 10 4 10 6 0 11 -4 11 -10z m430
-42 c0 -19 2 -20 10 -8 8 13 10 12 10 -3 0 -14 -5 -17 -22 -11 -30 9 -32 10
-25 29 9 23 27 18 27 -7z m-71 -77 c1 -42 2 -43 19 -28 22 20 32 21 32 4 0
-19 -40 -41 -53 -28 -6 6 -16 11 -22 11 -12 0 -45 -72 -45 -99 0 -11 -5 -23
-11 -27 -8 -5 -10 3 -7 25 5 36 -6 49 -27 31 -12 -10 -15 -9 -15 3 0 8 -3 24
-6 34 -5 15 -4 15 5 3 8 -12 11 -12 11 -1 0 9 8 11 28 7 15 -3 21 -3 15 0 -7
3 -13 17 -13 30 0 19 5 24 25 24 20 0 25 6 31 38 4 20 9 41 12 46 9 15 21 -25
21 -73z m992 55 c-8 -10 -9 -16 -1 -21 5 -3 10 -1 10 6 0 7 3 10 6 6 7 -7 -14
-75 -26 -82 -5 -3 -6 10 -3 29 3 20 1 36 -7 41 -8 5 -7 12 6 26 20 22 33 17
15 -5z m-1338 -19 c4 3 7 1 7 -5 0 -7 -9 -12 -20 -12 -12 0 -20 7 -20 16 0 13
3 14 13 5 8 -6 17 -8 20 -4z m75 -52 c-1 -25 -6 -39 -10 -32 -11 17 -10 77 2
77 5 0 9 -20 8 -45z m1302 -9 l-22 -21 18 35 c10 21 19 30 22 21 2 -7 -6 -23
-18 -35z m-342 -19 c9 -10 6 -23 -9 -52 -24 -44 -36 -57 -67 -74 -28 -15 -52
-8 -52 14 0 8 -6 15 -14 15 -11 0 -12 5 -3 24 7 13 15 22 20 19 5 -3 23 11 42
31 34 37 65 46 83 23z m312 -22 c-7 -9 -15 -13 -17 -11 -7 7 7 26 19 26 6 0 6
-6 -2 -15z m-1300 -11 c0 -8 -4 -12 -10 -9 -5 3 -10 10 -10 16 0 5 5 9 10 9 6
0 10 -7 10 -16z m0 -44 c0 -5 -2 -10 -4 -10 -3 0 -8 5 -11 10 -3 6 -1 10 4 10
6 0 11 -4 11 -10z m534 -125 c9 -14 15 -25 13 -25 -2 0 -14 11 -27 25 -13 14
-19 25 -13 25 6 0 18 -11 27 -25z m-579 5 c3 -5 1 -10 -4 -10 -6 0 -11 5 -11
10 0 6 2 10 4 10 3 0 8 -4 11 -10z m69 -155 c-4 -8 -8 -15 -10 -15 -2 0 -4 7
-4 15 0 8 4 15 10 15 5 0 7 -7 4 -15z m-44 -5 c0 -5 -4 -10 -10 -10 -5 0 -10
5 -10 10 0 6 5 10 10 10 6 0 10 -4 10 -10z m63 -66 c-9 -23 -23 -16 -23 12 0
22 2 24 14 14 8 -6 12 -18 9 -26z m957 -297 c0 -2 -15 -16 -32 -33 l-33 -29
29 33 c28 30 36 37 36 29z m-817 -50 c4 3 7 -1 7 -10 0 -15 -3 -15 -20 -5 -11
7 -20 20 -20 28 1 12 3 12 14 -2 7 -10 16 -15 19 -11z m580 6 c-7 -2 -19 -2
-25 0 -7 3 -2 5 12 5 14 0 19 -2 13 -5z m-53 -21 c17 -8 25 -32 10 -32 -5 0
-7 -6 -4 -14 3 -7 -2 -16 -11 -20 -9 -3 -13 -11 -10 -17 4 -6 13 -8 21 -5 10
4 14 -2 14 -19 0 -34 15 -39 28 -10 13 29 27 31 49 10 13 -14 12 -17 -16 -26
-17 -6 -31 -15 -31 -20 0 -5 -7 -9 -15 -9 -8 0 -24 -9 -35 -20 -11 -11 -15
-20 -10 -20 18 0 10 -21 -17 -45 -35 -31 -47 -31 -67 -1 -41 63 -27 187 26
231 30 26 42 29 68 17z m-480 -22 c9 -16 8 -18 -5 -14 -8 4 -15 12 -15 20 0
20 7 17 20 -6z m659 -24 c26 -41 28 -123 5 -169 -18 -34 -71 -87 -88 -87 -5 0
0 10 12 23 36 39 44 74 32 150 -6 37 -7 74 -3 80 4 7 8 15 9 20 5 25 9 23 33
-17z m-789 -17 c0 -4 -4 -11 -10 -14 -5 -3 -10 -1 -10 4 0 6 -5 11 -11 11 -5
0 -7 -6 -3 -12 5 -10 4 -10 -6 -1 -7 6 -9 16 -6 21 7 11 46 4 46 -9z m100 11
c0 -5 -4 -10 -10 -10 -5 0 -10 5 -10 10 0 6 5 10 10 10 6 0 10 -4 10 -10z m50
-25 c0 -22 -2 -24 -19 -13 -11 7 -17 16 -15 20 3 5 10 6 15 3 5 -4 9 -1 9 4 0
6 2 11 5 11 3 0 5 -11 5 -25z m-75 -17 c33 -16 45 -28 45 -44 0 -20 -5 -22
-50 -21 -40 2 -51 6 -59 24 -9 20 -7 24 22 32 25 7 27 9 10 10 -13 1 -23 6
-23 11 0 14 3 13 55 -12z m135 2 c6 -11 8 -20 6 -20 -3 0 -10 9 -16 20 -6 11
-8 20 -6 20 3 0 10 -9 16 -20z m-242 -31 c-16 -10 -33 5 -23 21 5 8 11 8 21
-1 12 -10 12 -14 2 -20z m31 -28 c8 -14 6 -22 -7 -34 -9 -9 -21 -16 -27 -17
-15 -2 -20 -10 -7 -10 7 0 12 -4 12 -10 0 -12 -11 -13 -30 0 -12 8 -13 13 -3
29 9 14 9 22 2 27 -6 4 -1 11 13 19 32 18 36 18 47 -4z m174 -13 c9 -18 14
-35 11 -39 -8 -13 -56 42 -50 57 9 23 22 16 39 -18z m32 12 c3 -5 1 -10 -4
-10 -6 0 -11 5 -11 10 0 6 2 10 4 10 3 0 8 -4 11 -10z m162 4 c-3 -3 -12 -4
-19 -1 -8 3 -5 6 6 6 11 1 17 -2 13 -5z m636 -1 c-7 -2 -21 -2 -30 0 -10 3 -4
5 12 5 17 0 24 -2 18 -5z m-868 -63 c3 -5 1 -10 -4 -10 -6 0 -11 5 -11 10 0 6
2 10 4 10 3 0 8 -4 11 -10z m70 -68 c-1 -15 -3 -31 -4 -35 0 -5 -6 -5 -12 -1
-8 4 -7 9 2 15 11 6 11 11 1 21 -6 6 -12 23 -12 38 1 24 1 24 15 7 7 -11 12
-31 10 -45z m-43 14 c6 -28 -27 -102 -49 -110 -26 -10 -28 2 -6 27 15 15 20
30 16 49 -3 15 -3 34 1 43 9 23 33 18 38 -9z m98 8 c0 -15 -33 -11 -38 4 -2 6
6 10 17 9 12 -1 21 -7 21 -13z m-300 -11 c0 -11 -3 -14 -8 -7 -4 6 -14 14 -22
17 -10 4 -8 6 8 6 15 1 22 -5 22 -16z m0 -33 c0 -5 -8 -10 -17 -10 -15 0 -16
2 -3 10 19 12 20 12 20 0z m1591 -116 c38 -43 56 -76 36 -68 -10 3 -13 -9 -11
-44 0 -27 4 -54 8 -60 4 -6 -2 -8 -16 -4 -16 4 -20 2 -15 -10 3 -9 1 -20 -5
-26 -7 -7 -6 -17 1 -31 9 -16 9 -21 0 -21 -6 0 -8 -7 -5 -17 4 -9 1 -20 -6
-25 -11 -6 -10 -10 1 -17 16 -10 0 -23 -17 -12 -7 4 -11 18 -11 32 1 13 -2 32
-6 42 -5 12 -2 17 10 17 17 0 17 1 -1 21 -15 17 -16 23 -6 40 10 16 10 19 -3
19 -8 0 -15 5 -15 10 0 16 32 11 46 -7 13 -17 13 -17 14 0 0 9 -4 17 -10 17
-5 0 -23 20 -40 45 -23 34 -31 55 -29 83 2 33 -10 76 -28 106 -12 19 70 -50
108 -90z m-1586 54 c-5 -17 -4 -19 4 -8 8 12 13 12 30 -4 15 -13 18 -23 11
-31 -5 -6 -6 -15 -2 -20 4 -4 -3 -2 -15 4 -27 14 -47 47 -39 67 9 23 18 16 11
-8z m216 -7 c-11 -20 -41 -47 -41 -36 0 4 8 20 17 35 18 31 40 31 24 1z m63
14 c4 -10 -1 -15 -14 -15 -13 0 -18 5 -14 15 4 8 10 15 14 15 4 0 10 -7 14
-15z m-123 -58 c11 -19 6 -22 -44 -31 -40 -7 -56 7 -43 39 7 20 75 14 87 -8z
m86 5 c0 -10 -7 -19 -14 -19 -15 0 -15 0 -7 21 8 22 23 20 21 -2z m-332 -42
c3 -5 1 -10 -4 -10 -6 0 -11 5 -11 10 0 6 2 10 4 10 3 0 8 -4 11 -10z m265
-10 c0 -5 -12 -10 -27 -9 -25 0 -26 1 -8 9 27 12 35 12 35 0z m-213 -6 c-3 -3
-12 -4 -19 -1 -8 3 -5 6 6 6 11 1 17 -2 13 -5z m58 -44 c3 -6 -1 -7 -9 -4 -18
7 -21 14 -7 14 6 0 13 -4 16 -10z m-65 -20 c12 -8 11 -10 -7 -10 -12 0 -25 5
-28 10 -8 13 15 13 35 0z m74 -15 c4 -10 -1 -15 -14 -15 -11 0 -20 7 -20 15 0
8 6 15 14 15 8 0 16 -7 20 -15z m153 9 c-3 -3 -12 -4 -19 -1 -8 3 -5 6 6 6 11
1 17 -2 13 -5z m-122 -13 c-3 -6 6 -9 21 -8 19 1 27 -3 30 -16 3 -22 -23 -34
-39 -18 -6 6 -21 11 -34 11 -22 0 -22 1 -5 19 18 20 38 28 27 12z m-118 -7
c-3 -3 -12 -4 -19 -1 -8 3 -5 6 6 6 11 1 17 -2 13 -5z m266 -21 c-7 -2 -19 -2
-25 0 -7 3 -2 5 12 5 14 0 19 -2 13 -5z m31 -25 c-2 -3 2 -9 8 -12 7 -3 -9 -3
-37 0 -67 8 -76 19 -15 19 26 0 46 -3 44 -7z m-210 -7 c3 -5 -1 -14 -9 -21
-12 -10 -15 -9 -15 6 0 14 -3 15 -9 6 -6 -10 -10 -10 -21 3 -11 13 -8 15 18
15 17 0 33 -4 36 -9z m-87 -7 c-3 -3 -12 -4 -19 -1 -8 3 -5 6 6 6 11 1 17 -2
13 -5z m1574 -21 c13 -16 12 -17 -3 -4 -17 13 -22 21 -14 21 2 0 10 -8 17 -17z
m-1521 -13 c0 -13 -11 -13 -30 0 -12 8 -11 10 8 10 12 0 22 -4 22 -10z m233 3
c-7 -2 -19 -2 -25 0 -7 3 -2 5 12 5 14 0 19 -2 13 -5z m37 -39 c0 -8 -5 -12
-10 -9 -6 4 -8 11 -5 16 9 14 15 11 15 -7z m100 -4 c0 -11 -7 -20 -15 -20 -8
0 -15 5 -15 11 0 5 5 7 10 4 6 -3 10 1 10 9 0 9 2 16 5 16 3 0 5 -9 5 -20z
m37 -12 c-3 -8 -6 -5 -6 6 -1 11 2 17 5 13 3 -3 4 -12 1 -19z m-154 -33 c-3
-8 -9 -15 -14 -15 -10 0 -12 24 -3 33 11 11 24 -3 17 -18z m-89 -16 c-10 -16
-24 -9 -24 12 0 18 2 19 15 9 8 -7 12 -16 9 -21z m36 11 c0 -11 -2 -20 -4 -20
-2 0 -6 9 -9 20 -3 11 -1 20 4 20 5 0 9 -9 9 -20z m67 -26 c-3 -3 -12 -4 -19
-1 -8 3 -5 6 6 6 11 1 17 -2 13 -5z"/>
<path d="M370 2631 c0 -5 3 -17 6 -26 5 -12 9 -14 14 -4 5 7 6 18 3 26 -6 15
-23 18 -23 4z"/>
<path d="M407 2613 c-4 -3 -7 -11 -7 -17 0 -6 5 -5 12 2 6 6 9 14 7 17 -3 3
-9 2 -12 -2z"/>
<path d="M347 2593 c-11 -10 -8 -43 3 -43 6 0 10 4 10 9 0 5 3 16 6 25 6 16
-7 22 -19 9z"/>
<path d="M366 2536 c-10 -41 -52 -76 -91 -76 -41 0 -55 -15 -17 -18 15 -1 29
-7 30 -12 2 -6 10 -10 17 -10 22 0 29 -57 11 -85 -9 -14 -12 -26 -6 -30 5 -3
17 6 26 20 20 30 54 33 79 5 26 -29 40 -25 21 6 -14 21 -15 31 -6 60 6 18 17
34 25 34 7 0 27 3 44 6 27 6 31 4 31 -15 0 -11 5 -21 10 -21 15 0 12 30 -5 47
-12 11 -27 14 -53 9 -31 -5 -42 -1 -65 20 -26 24 -39 73 -16 58 7 -4 10 -1 7
7 -8 25 -35 22 -42 -5z m32 -132 c-13 -13 -20 -14 -37 -4 -27 14 -23 31 10 47
21 11 25 10 33 -8 7 -14 5 -24 -6 -35z"/>
<path d="M560 2430 c0 -5 7 -10 15 -10 8 0 15 5 15 10 0 6 -7 10 -15 10 -8 0
-15 -4 -15 -10z"/>
<path d="M1720 180 c0 -5 5 -10 10 -10 6 0 10 5 10 10 0 6 -4 10 -10 10 -5 0
-10 -4 -10 -10z"/>
<path d="M258 373 c7 -3 16 -2 19 1 4 3 -2 6 -13 5 -11 0 -14 -3 -6 -6z"/>
<path d="M260 2764 c0 -8 5 -12 10 -9 6 3 10 10 10 16 0 5 -4 9 -10 9 -5 0
-10 -7 -10 -16z"/>
<path d="M1277 2633 c18 -2 50 -2 70 0 21 2 7 4 -32 4 -38 0 -55 -2 -38 -4z"/>
<path d="M1133 2615 c-14 -10 -32 -13 -50 -9 -22 4 -25 3 -13 -5 14 -10 12
-12 -15 -15 -19 -2 -60 -36 -44 -36 8 0 19 4 25 9 9 9 135 56 169 64 11 3 5 5
-15 6 -20 0 -45 -6 -57 -14z"/>
<path d="M1478 2613 c7 -3 16 -2 19 1 4 3 -2 6 -13 5 -11 0 -14 -3 -6 -6z"/>
<path d="M1200 2560 c-12 -8 -10 -10 8 -10 13 0 20 4 17 10 -7 12 -6 12 -25 0z"/>
<path d="M1058 2544 c-35 -18 -37 -28 -3 -12 19 9 28 9 37 0 7 -7 17 -12 23
-12 5 0 2 5 -8 11 -9 6 -15 14 -12 20 9 13 -6 11 -37 -7z"/>
<path d="M956 2531 c-11 -4 -15 -10 -10 -13 5 -4 18 0 29 8 20 15 12 17 -19 5z"/>
<path d="M924 2512 c3 -5 0 -12 -6 -15 -7 -2 -10 -7 -7 -11 3 -4 12 0 18 8 9
11 9 16 0 22 -7 4 -9 3 -5 -4z"/>
<path d="M1025 2490 c-3 -5 -1 -10 4 -10 6 0 11 5 11 10 0 6 -2 10 -4 10 -3 0
-8 -4 -11 -10z"/>
<path d="M2121 2474 c0 -11 3 -14 6 -6 3 7 2 16 -1 19 -3 4 -6 -2 -5 -13z"/>
<path d="M885 2469 c-4 -6 -5 -12 -2 -15 2 -3 7 2 10 11 7 17 1 20 -8 4z"/>
<path d="M920 2447 c0 -9 -4 -17 -10 -17 -5 0 -10 -4 -10 -10 0 -5 4 -10 9
-10 12 0 25 39 17 47 -3 4 -6 -1 -6 -10z"/>
<path d="M940 2420 c0 -5 5 -10 10 -10 6 0 10 5 10 10 0 6 -4 10 -10 10 -5 0
-10 -4 -10 -10z"/>
<path d="M827 2413 c-4 -3 -7 -11 -7 -17 0 -6 5 -5 12 2 6 6 9 14 7 17 -3 3
-9 2 -12 -2z"/>
<path d="M890 2382 c0 -16 30 -30 51 -25 21 6 26 23 7 23 -7 0 -23 3 -35 6
-14 4 -23 2 -23 -4z"/>
<path d="M850 2370 c0 -6 7 -10 15 -10 8 0 15 2 15 4 0 2 -7 6 -15 10 -8 3
-15 1 -15 -4z"/>
<path d="M1850 2370 c0 -5 5 -10 10 -10 6 0 10 5 10 10 0 6 -4 10 -10 10 -5 0
-10 -4 -10 -10z"/>
<path d="M830 2330 c0 -5 5 -10 11 -10 5 0 7 5 4 10 -3 6 -8 10 -11 10 -2 0
-4 -4 -4 -10z"/>
<path d="M2183 2300 c-3 -11 -12 -20 -19 -20 -8 0 -14 -9 -14 -21 0 -11 5 -17
10 -14 6 3 10 -3 10 -14 0 -11 5 -31 11 -44 8 -18 8 -30 -1 -47 -11 -20 -10
-21 10 -15 14 5 20 3 16 -3 -3 -6 0 -13 6 -16 10 -5 10 -7 0 -12 -18 -8 -45
-64 -31 -64 6 0 13 9 16 21 5 18 11 19 54 15 29 -4 49 -2 49 4 0 6 -9 10 -20
10 -25 0 -25 9 -2 26 16 12 16 13 -2 20 -11 4 -21 2 -27 -7 -6 -11 -9 -8 -9 9
0 12 5 22 11 22 8 0 7 5 -2 16 -12 14 -14 13 -22 -8 -8 -22 -9 -21 -23 17 -15
45 -18 67 -5 46 6 -9 14 -11 26 -4 16 9 16 10 0 16 -9 4 -13 11 -10 17 3 5 3
15 -1 21 -4 8 -9 7 -15 -2 -13 -21 -12 7 1 32 8 13 7 19 -1 19 -6 0 -13 -9
-16 -20z"/>
<path d="M2039 2285 c-9 -8 12 -75 23 -75 11 0 10 24 -1 36 -5 5 -11 17 -13
27 -1 11 -6 16 -9 12z"/>
<path d="M2127 2283 c-4 -3 -7 -11 -7 -17 0 -6 5 -5 12 2 6 6 9 14 7 17 -3 3
-9 2 -12 -2z"/>
<path d="M700 2259 c0 -5 5 -7 10 -4 6 3 10 8 10 11 0 2 -4 4 -10 4 -5 0 -10
-5 -10 -11z"/>
<path d="M2101 2240 c-17 -10 -5 -31 14 -23 8 3 15 0 15 -6 0 -6 -4 -11 -10
-11 -5 0 -10 -7 -10 -15 0 -23 17 -18 23 7 8 27 -14 60 -32 48z"/>
<path d="M1930 2230 c0 -5 7 -10 15 -10 8 0 15 5 15 10 0 6 -7 10 -15 10 -8 0
-15 -4 -15 -10z"/>
<path d="M1951 2184 c0 -11 3 -14 6 -6 3 7 2 16 -1 19 -3 4 -6 -2 -5 -13z"/>
<path d="M2061 2185 c1 -11 7 -42 15 -70 l13 -50 -3 47 c-2 26 1 51 7 57 8 8
8 14 -1 23 -9 9 -12 9 -12 -2 0 -13 -2 -13 -10 0 -8 12 -10 11 -9 -5z"/>
<path d="M1960 2125 c0 -8 4 -15 10 -15 5 0 7 7 4 15 -4 8 -8 15 -10 15 -2 0
-4 -7 -4 -15z"/>
<path d="M2105 2120 c-3 -5 1 -10 10 -10 9 0 13 5 10 10 -3 6 -8 10 -10 10 -2
0 -7 -4 -10 -10z"/>
<path d="M2115 2070 c3 -5 8 -10 11 -10 2 0 4 5 4 10 0 6 -5 10 -11 10 -5 0
-7 -4 -4 -10z"/>
<path d="M2256 2025 c-9 -14 -25 -25 -36 -25 -10 0 -22 -4 -25 -10 -3 -5 3
-10 14 -10 12 0 21 -5 21 -12 0 -20 31 -46 49 -41 15 4 19 16 20 64 1 66 -14
78 -43 34z"/>
<path d="M1943 2005 c0 -22 2 -30 4 -17 2 12 2 30 0 40 -3 9 -5 -1 -4 -23z"/>
<path d="M2125 2030 c3 -5 8 -10 11 -10 2 0 4 5 4 10 0 6 -5 10 -11 10 -5 0
-7 -4 -4 -10z"/>
<path d="M1880 2004 c0 -14 3 -14 15 -4 8 7 15 14 15 16 0 2 -7 4 -15 4 -8 0
-15 -7 -15 -16z"/>
<path d="M836 1983 c-3 -10 -22 -29 -42 -42 -39 -27 -69 -69 -40 -58 9 4 16 2
16 -4 0 -6 7 -9 15 -5 11 4 15 -1 15 -17 1 -23 21 -57 35 -57 4 0 5 10 2 21
-8 28 3 79 15 79 6 0 7 -7 4 -16 -4 -12 -2 -15 9 -10 9 3 15 0 15 -9 0 -17 26
-20 35 -5 4 7 13 7 26 0 28 -15 24 -33 -6 -28 -14 3 -28 2 -30 -2 -8 -13 51
-31 78 -25 19 5 26 3 30 -12 3 -10 5 -2 6 17 1 36 -30 100 -49 100 -6 0 -8
-10 -4 -24 6 -24 5 -24 -29 7 -34 31 -34 32 -13 44 25 15 84 7 109 -15 20 -17
21 -14 7 23 -13 35 -65 55 -139 55 -48 0 -61 -3 -65 -17z"/>
<path d="M1071 1899 c-14 -45 -7 -66 15 -48 15 12 19 75 5 83 -4 3 -13 -13
-20 -35z"/>
<path d="M1905 1931 c-3 -5 -1 -12 5 -16 5 -3 10 1 10 9 0 18 -6 21 -15 7z"/>
<path d="M2173 1919 c9 -13 17 -40 17 -60 0 -21 6 -40 13 -43 10 -5 10 -7 0
-12 -7 -3 -13 -13 -13 -22 0 -15 1 -15 17 1 14 14 15 20 4 41 -7 13 -10 29 -7
35 8 12 -17 66 -36 77 -6 4 -4 -3 5 -17z"/>
<path d="M2061 1834 c0 -11 3 -14 6 -6 3 7 2 16 -1 19 -3 4 -6 -2 -5 -13z"/>
<path d="M2100 1824 c0 -8 5 -12 10 -9 6 3 10 10 10 16 0 5 -4 9 -10 9 -5 0
-10 -7 -10 -16z"/>
<path d="M1105 1820 c-3 -5 -1 -18 4 -27 9 -16 10 -14 11 10 0 28 -5 34 -15
17z"/>
<path d="M1208 1823 c7 -3 16 -2 19 1 4 3 -2 6 -13 5 -11 0 -14 -3 -6 -6z"/>
<path d="M684 1795 c-9 -22 1 -29 15 -11 8 10 9 16 1 21 -5 3 -13 -1 -16 -10z"/>
<path d="M2110 1770 c0 -5 7 -10 16 -10 8 0 12 5 9 10 -3 6 -10 10 -16 10 -5
0 -9 -4 -9 -10z"/>
<path d="M217 1750 c-23 -34 -21 -45 4 -21 12 11 19 25 17 32 -3 8 -10 4 -21
-11z"/>
<path d="M756 1753 c-7 -22 -28 -22 -74 0 -25 12 -52 2 -60 -23 -3 -9 1 -11
13 -7 12 5 18 1 22 -12 4 -17 8 -18 23 -9 14 9 25 9 45 0 36 -17 53 -15 65 7
7 15 5 25 -9 42 -18 23 -18 23 -25 2z"/>
<path d="M2105 1720 c3 -5 11 -10 16 -10 6 0 7 5 4 10 -3 6 -11 10 -16 10 -6
0 -7 -4 -4 -10z"/>
<path d="M615 1648 c-11 -12 -26 -34 -33 -48 -13 -24 -12 -24 12 2 21 23 30
27 58 21 35 -7 95 -50 90 -66 -1 -5 5 -21 14 -34 13 -20 18 -23 25 -12 14 23
11 69 -6 69 -8 0 -30 14 -48 30 -19 17 -46 30 -60 30 -15 0 -27 6 -29 16 -2
13 -7 11 -23 -8z"/>
<path d="M2090 1663 c0 -5 11 -9 25 -9 14 -1 22 2 19 7 -6 11 -44 12 -44 2z"/>
<path d="M2284 1659 c-3 -6 -2 -15 3 -20 5 -5 9 -1 10 11 2 22 -2 25 -13 9z"/>
<path d="M2241 1644 c0 -11 3 -14 6 -6 3 7 2 16 -1 19 -3 4 -6 -2 -5 -13z"/>
<path d="M2060 1641 c0 -6 5 -13 10 -16 6 -3 10 1 10 9 0 9 -4 16 -10 16 -5 0
-10 -4 -10 -9z"/>
<path d="M2100 1598 c0 -47 14 -41 23 10 5 24 3 32 -8 32 -11 0 -15 -12 -15
-42z"/>
<path d="M2050 1596 c0 -8 5 -18 10 -21 6 -3 10 1 10 9 0 8 -4 18 -10 21 -5 3
-10 -1 -10 -9z"/>
<path d="M2247 1593 c-10 -9 -9 -23 2 -23 5 0 11 7 15 15 5 15 -5 20 -17 8z"/>
<path d="M616 1583 c-12 -12 -5 -23 14 -23 11 0 20 4 20 9 0 11 -26 22 -34 14z"/>
<path d="M2196 1544 c-9 -13 -12 -24 -7 -24 5 0 12 7 15 16 4 9 13 14 21 10 8
-3 15 -1 15 3 0 21 -30 18 -44 -5z"/>
<path d="M2081 1524 c0 -11 3 -14 6 -6 3 7 2 16 -1 19 -3 4 -6 -2 -5 -13z"/>
<path d="M2040 1468 c0 -9 5 -20 10 -23 13 -8 13 5 0 25 -8 13 -10 13 -10 -2z"/>
<path d="M2115 1400 c3 -5 8 -10 11 -10 2 0 4 5 4 10 0 6 -5 10 -11 10 -5 0
-7 -4 -4 -10z"/>
<path d="M2058 1378 c-22 -23 -23 -34 -1 -42 25 -10 42 25 25 50 -4 6 -13 4
-24 -8z m22 -18 c0 -5 -2 -10 -4 -10 -3 0 -8 5 -11 10 -3 6 -1 10 4 10 6 0 11
-4 11 -10z"/>
<path d="M2201 1384 c0 -11 3 -14 6 -6 3 7 2 16 -1 19 -3 4 -6 -2 -5 -13z"/>
<path d="M2126 1371 c-4 -5 -2 -12 3 -15 5 -4 12 -2 15 3 4 5 2 12 -3 15 -5 4
-12 2 -15 -3z"/>
<path d="M2060 1316 c0 -2 7 -6 15 -10 8 -3 15 -1 15 4 0 6 -7 10 -15 10 -8 0
-15 -2 -15 -4z"/>
<path d="M2092 1220 c0 -14 2 -19 5 -12 2 6 2 18 0 25 -3 6 -5 1 -5 -13z"/>
<path d="M2207 1144 c-4 -4 -7 -14 -7 -22 0 -9 -8 -24 -17 -35 -14 -16 -15
-19 -3 -15 17 5 43 53 38 69 -2 6 -7 7 -11 3z"/>
<path d="M2271 804 c0 -11 3 -14 6 -6 3 7 2 16 -1 19 -3 4 -6 -2 -5 -13z"/>
<path d="M2231 478 c0 -14 -4 -35 -7 -45 -5 -17 -5 -17 6 0 6 10 9 30 7 45
l-4 27 -2 -27z"/>
<path d="M2202 455 c0 -16 2 -22 5 -12 2 9 2 23 0 30 -3 6 -5 -1 -5 -18z"/>
<path d="M2191 404 c0 -11 3 -14 6 -6 3 7 2 16 -1 19 -3 4 -6 -2 -5 -13z"/>
<path d="M2182 360 c0 -14 2 -19 5 -12 2 6 2 18 0 25 -3 6 -5 1 -5 -13z"/>
<path d="M2172 310 c0 -14 2 -19 5 -12 2 6 2 18 0 25 -3 6 -5 1 -5 -13z"/>
<path d="M2161 264 c0 -11 3 -14 6 -6 3 7 2 16 -1 19 -3 4 -6 -2 -5 -13z"/>
<path d="M1149 248 c-2 -5 -9 -92 -10 -115 -1 -13 -5 -23 -11 -23 -5 0 -7 -9
-3 -19 3 -11 1 -22 -5 -26 -12 -7 -14 -52 -2 -59 4 -2 9 7 10 22 2 27 22 57
22 34 0 -7 9 -12 20 -12 11 0 20 5 20 10 0 6 -4 10 -8 10 -15 0 -31 47 -27 80
5 41 8 43 44 42 27 -1 28 2 22 26 -6 21 -14 28 -39 30 -18 2 -32 2 -33 0z m56
-28 c4 -6 -5 -10 -19 -10 -14 0 -26 5 -26 10 0 6 9 10 19 10 11 0 23 -4 26
-10z"/>
<path d="M1240 230 c0 -5 5 -10 10 -10 6 0 10 5 10 10 0 6 -4 10 -10 10 -5 0
-10 -4 -10 -10z"/>
<path d="M2146 204 c-4 -20 -5 -38 -3 -40 3 -3 8 11 11 32 4 20 5 38 3 40 -3
3 -8 -11 -11 -32z"/>
<path d="M1270 189 c0 -5 5 -7 10 -4 6 3 10 8 10 11 0 2 -4 4 -10 4 -5 0 -10
-5 -10 -11z"/>
<path d="M1198 163 c7 -3 16 -2 19 1 4 3 -2 6 -13 5 -11 0 -14 -3 -6 -6z"/>
<path d="M1175 140 c-3 -5 1 -10 10 -10 9 0 13 5 10 10 -3 6 -8 10 -10 10 -2
0 -7 -4 -10 -10z"/>
<path d="M2124 116 c-3 -21 -4 -39 -1 -42 2 -3 8 11 11 32 4 20 5 38 2 41 -2
3 -8 -11 -12 -31z"/>
<path d="M1187 106 c-4 -10 -5 -21 -2 -24 9 -9 17 6 13 25 -3 17 -4 17 -11 -1z"/>
<path d="M1210 90 c0 -5 4 -10 9 -10 6 0 13 5 16 10 3 6 -1 10 -9 10 -9 0 -16
-4 -16 -10z"/>
<path d="M1268 83 c7 -3 16 -2 19 1 4 3 -2 6 -13 5 -11 0 -14 -3 -6 -6z"/>
<path d="M1200 60 c0 -5 5 -10 11 -10 5 0 7 5 4 10 -3 6 -8 10 -11 10 -2 0 -4
-4 -4 -10z"/>
<path d="M2109 32 c-3 -20 -2 -29 4 -23 5 5 7 19 5 32 -3 20 -5 19 -9 -9z"/>
<path d="M1140 30 c0 -5 5 -10 10 -10 6 0 10 5 10 10 0 6 -4 10 -10 10 -5 0
-10 -4 -10 -10z"/>
</g>
</svg>
