<?xml version="1.0" standalone="no"?>
<!DOCTYPE svg PUBLIC "-//W3C//DTD SVG 20010904//EN"
 "http://www.w3.org/TR/2001/REC-SVG-20010904/DTD/svg10.dtd">
<svg version="1.0" xmlns="http://www.w3.org/2000/svg"
 width="288.000000pt" height="351.000000pt" viewBox="0 0 288.000000 351.000000"
 preserveAspectRatio="xMidYMid meet">

<g transform="translate(0.000000,351.000000) scale(0.100000,-0.100000)"
fill="#000000" stroke="none">
<path d="M1161 3243 c13 -15 11 -16 -14 -9 -18 4 -26 3 -23 -3 4 -6 -10 -11
-31 -13 -24 -2 -37 -8 -35 -15 1 -7 -3 -13 -9 -13 -5 0 -7 -4 -4 -10 3 -5 -3
-10 -14 -10 -12 0 -21 -7 -21 -15 0 -8 -4 -15 -10 -15 -5 0 -10 6 -10 12 0 7
-8 -3 -19 -22 -16 -31 -24 -35 -62 -38 -74 -4 -79 -6 -79 -24 0 -9 -5 -20 -10
-23 -6 -4 -8 -10 -5 -15 3 -4 -3 -7 -12 -6 -10 0 -19 -7 -21 -18 -3 -13 0 -16
9 -11 8 5 10 4 5 -4 -4 -6 -16 -9 -27 -6 -23 8 -24 -1 -4 -21 8 -9 15 -25 15
-37 0 -20 0 -20 -15 -1 -14 18 -14 18 -15 -5 0 -15 -5 -21 -14 -18 -10 4 -12
0 -9 -14 5 -20 23 -27 23 -9 0 6 5 10 11 10 6 0 8 -9 4 -22 l-6 -23 19 22 c14
15 22 19 30 11 7 -7 14 1 22 29 13 42 78 118 110 128 10 3 28 21 40 40 11 18
38 49 60 69 22 20 40 41 40 47 0 6 13 8 30 5 17 -2 30 0 30 5 0 5 6 9 13 9 6
0 21 7 32 16 17 13 18 16 5 24 -8 5 -21 10 -29 10 -11 0 -11 -3 0 -17z m-171
-127 c0 -3 -4 -8 -10 -11 -5 -3 -10 -1 -10 4 0 6 5 11 10 11 6 0 10 -2 10 -4z"/>
<path d="M1218 3253 c7 -3 16 -2 19 1 4 3 -2 6 -13 5 -11 0 -14 -3 -6 -6z"/>
<path d="M1640 3173 c0 -13 5 -23 10 -23 13 0 13 11 0 30 -8 12 -10 11 -10 -7z"/>
<path d="M1360 3097 c0 -10 10 -28 23 -41 14 -14 22 -32 20 -45 -2 -18 1 -22
19 -19 34 5 30 19 -17 73 -31 35 -45 45 -45 32z"/>
<path d="M1875 3090 c-10 -11 -15 -20 -10 -20 4 0 2 -7 -5 -15 -7 -8 -9 -15
-4 -15 30 -2 -51 -30 -101 -36 -54 -6 -57 -8 -35 -18 14 -6 28 -14 31 -19 4
-5 10 -4 13 2 11 17 24 4 48 -47 24 -52 31 -104 16 -113 -5 -3 -12 -25 -15
-48 -5 -36 -3 -41 15 -41 15 0 20 -6 18 -25 0 -14 -4 -25 -8 -25 -5 0 -8 -6
-8 -13 0 -7 12 -14 27 -15 14 -1 28 -4 31 -6 5 -6 -50 -30 -133 -58 -38 -12
-73 -27 -77 -33 -4 -6 -8 -2 -8 8 0 9 -7 17 -15 17 -8 0 -15 5 -15 10 0 6 -7
10 -15 10 -8 0 -15 -4 -15 -9 0 -10 -107 -25 -162 -22 -21 1 -53 -7 -75 -19
-21 -11 -42 -20 -48 -20 -15 0 -57 -64 -45 -68 6 -2 25 3 43 11 18 8 43 18 57
22 l25 6 -25 -20 c-14 -11 -28 -21 -32 -21 -5 0 -8 -7 -8 -15 0 -9 -6 -12 -15
-9 -18 7 -18 4 -5 -32 10 -25 14 -26 56 -21 34 3 50 0 67 -14 19 -16 20 -18 5
-19 -28 0 -21 -20 7 -20 41 0 104 30 125 61 13 17 26 26 35 22 10 -3 15 2 15
16 0 12 4 21 8 21 5 0 7 13 4 28 -2 18 2 33 12 41 9 8 18 12 19 10 16 -22 67
-145 76 -184 7 -27 21 -64 32 -81 24 -40 24 -66 -1 -89 -18 -17 -25 -17 -56
-6 -28 10 -42 10 -65 1 -16 -7 -29 -19 -29 -26 0 -14 35 -27 61 -24 32 5 39
-1 39 -34 0 -39 18 -57 32 -32 13 24 30 20 26 -6 -3 -20 -11 -24 -67 -30 -35
-4 -71 -10 -79 -13 -8 -3 -30 0 -48 7 -29 10 -36 9 -54 -7 -24 -21 -25 -43 -6
-80 l15 -28 8 34 c8 28 14 34 39 37 16 1 48 7 71 13 23 6 50 8 60 5 15 -6 13
-10 -12 -31 -21 -16 -32 -20 -37 -12 -6 9 -8 9 -8 -1 0 -6 12 -22 26 -35 20
-17 39 -22 84 -23 80 -2 107 -10 113 -36 6 -22 -20 -58 -41 -58 -5 0 -15 -6
-21 -14 -7 -8 -34 -17 -61 -21 -27 -4 -57 -13 -67 -20 -23 -17 -72 -8 -95 17
-11 13 -24 18 -37 13 -15 -5 -21 0 -26 25 -7 34 -17 36 -58 15 -23 -12 -29
-12 -33 -1 -3 8 -13 13 -22 11 -9 -1 -21 1 -27 5 -5 4 -27 13 -48 20 -49 16
-99 59 -131 115 -25 42 -34 94 -18 109 7 8 13 73 13 151 0 22 -7 53 -15 69 -8
16 -12 34 -9 39 3 6 1 7 -5 3 -6 -4 -10 1 -10 11 1 10 -2 32 -6 50 -6 25 -3
34 11 42 16 10 17 10 1 11 -14 0 -16 4 -8 25 12 31 -4 123 -32 184 l-20 45
-16 -27 c-9 -15 -21 -25 -27 -23 -5 2 -18 -3 -27 -12 -12 -10 -36 -14 -74 -13
-53 1 -56 0 -43 -16 8 -10 1 -7 -18 7 -18 13 -33 28 -33 33 0 17 -45 1 -56
-20 -8 -17 -13 -20 -22 -11 -7 7 -12 23 -12 35 0 13 -8 38 -17 56 -15 28 -18
29 -21 11 -1 -11 4 -33 12 -49 16 -31 12 -49 -10 -41 -22 9 -25 -10 -4 -29 11
-10 17 -21 15 -26 -3 -4 3 -10 14 -14 16 -5 18 -13 14 -48 -8 -68 -10 -72 -34
-51 -21 19 -21 19 -16 -31 2 -28 0 -58 -5 -67 -6 -13 -5 -18 7 -18 8 0 15 5
15 10 0 6 7 10 15 10 8 0 15 -7 15 -16 0 -11 4 -14 13 -8 6 5 19 9 27 8 8 -1
27 -2 42 -3 19 -1 26 -5 22 -15 -3 -8 -1 -22 4 -32 8 -14 10 -13 16 10 8 33
33 34 48 2 12 -27 59 -51 83 -42 8 3 15 1 15 -3 0 -11 -89 -19 -93 -8 -3 9
-13 9 -102 6 -39 -2 -64 -7 -71 -17 -8 -12 -15 -12 -32 -3 -22 12 -32 -1 -12
-14 6 -4 8 -11 4 -16 -11 -18 31 -48 56 -42 20 5 22 3 17 -17 -9 -37 15 -111
48 -145 l30 -32 -42 -10 c-29 -6 -46 -6 -53 1 -16 16 -12 36 8 36 10 0 4 7
-16 17 -52 25 -74 61 -70 110 3 36 0 43 -14 43 -10 0 -18 5 -18 11 0 5 5 7 10
4 6 -3 10 -1 10 5 0 7 -7 9 -17 6 -23 -9 -48 22 -51 64 -2 19 -8 39 -12 44 -5
5 -2 15 6 23 8 8 17 26 20 41 4 15 14 35 23 46 12 13 15 34 13 79 -1 34 -6 65
-10 69 -11 11 -52 -2 -52 -18 0 -7 -4 -16 -10 -19 -6 -4 -7 1 -3 11 5 14 2 16
-23 10 -34 -9 -30 -6 -38 -32 -5 -16 -2 -23 13 -27 13 -3 22 -17 26 -40 5 -25
11 -34 21 -30 8 3 14 1 14 -4 0 -13 -35 -44 -42 -38 -3 3 -11 -1 -18 -10 -17
-20 -31 -19 -23 2 4 10 2 14 -5 9 -6 -3 -16 3 -22 14 -6 11 -18 20 -26 20 -8
0 -13 -4 -10 -8 7 -12 -27 -39 -42 -34 -16 5 -16 -25 1 -31 7 -2 8 -8 3 -13
-5 -5 -11 -4 -13 4 -5 14 -33 17 -33 3 0 -14 20 -24 49 -26 13 0 26 -6 29 -13
8 -25 22 -11 22 23 0 41 5 43 35 11 15 -16 19 -27 12 -30 -7 -2 -4 -5 6 -5 9
-1 17 -6 17 -12 0 -6 -8 -8 -19 -4 -11 3 -22 1 -26 -5 -4 -6 4 -10 18 -10 21
0 23 -4 20 -32 -2 -18 -5 -43 -6 -55 -1 -15 -9 -23 -19 -23 -10 0 -18 -5 -18
-11 0 -5 -4 -7 -10 -4 -17 11 -11 36 7 33 11 -2 18 3 18 12 0 8 -7 13 -15 11
-8 -2 -25 -3 -37 -3 -25 -1 -30 -17 -11 -36 9 -9 8 -12 -5 -12 -10 0 -20 -6
-23 -14 -5 -14 -64 -17 -64 -3 0 5 -5 7 -12 5 -16 -6 -19 -37 -6 -61 9 -18 8
-19 -18 -13 -24 6 -26 5 -15 -8 8 -9 20 -16 27 -16 8 0 14 -7 14 -15 0 -8 5
-15 10 -15 6 0 10 -7 10 -15 0 -12 -4 -11 -20 5 -21 21 -50 27 -50 9 0 -5 6
-7 13 -3 6 4 1 -5 -12 -19 -21 -23 -22 -27 -7 -27 13 0 16 -5 11 -21 -5 -13
-3 -19 3 -15 13 8 34 -45 30 -75 -2 -13 -10 -34 -17 -47 -10 -19 -10 -26 0
-38 9 -11 9 -18 2 -22 -6 -4 -12 -16 -15 -27 -2 -13 -10 -19 -22 -17 -15 3
-16 0 -6 -19 8 -14 9 -19 1 -15 -7 4 -11 -1 -11 -12 0 -10 -3 -22 -7 -26 -10
-10 -10 -96 0 -96 4 0 7 -6 7 -14 0 -8 5 -16 11 -18 14 -5 2 -68 -12 -68 -6 0
-7 -4 -4 -10 3 -5 3 -16 -2 -22 -12 -19 -12 -71 -1 -85 7 -9 7 -18 -2 -28 -7
-8 -10 -26 -8 -40 3 -14 1 -25 -5 -25 -5 0 -4 -7 3 -15 7 -9 9 -26 5 -46 -6
-26 -4 -31 8 -26 11 4 13 0 10 -14 -3 -12 0 -19 8 -19 9 0 10 -3 4 -8 -5 -4
-18 -23 -29 -42 -10 -19 -34 -64 -54 -99 -45 -82 -74 -194 -77 -301 l-2 -84
36 -36 c20 -20 40 -36 46 -37 5 0 14 -8 20 -18 15 -27 44 -55 55 -55 6 0 10
-9 10 -19 0 -19 43 -61 62 -61 5 0 16 -7 24 -15 9 -8 24 -15 35 -15 10 0 19
-4 19 -10 0 -5 15 -10 34 -10 18 0 39 -7 46 -15 7 -8 20 -15 29 -15 9 0 59
-13 111 -29 52 -16 127 -34 165 -41 39 -7 85 -19 103 -27 18 -7 49 -13 70 -12
20 0 59 -4 85 -11 52 -13 77 -3 77 29 0 10 3 12 8 5 29 -42 95 -13 123 56 l10
25 17 -22 c11 -15 24 -21 37 -17 11 3 34 0 50 -7 17 -7 37 -13 45 -14 8 -1 27
-5 43 -9 33 -10 77 15 77 43 0 10 7 21 15 25 8 3 14 2 13 -2 -3 -13 22 -62 32
-63 20 -3 25 -4 37 -12 6 -4 13 -1 16 5 3 10 7 10 20 0 9 -8 21 -11 26 -8 5 4
12 2 16 -4 7 -11 113 -2 131 11 13 11 107 8 115 -4 4 -5 15 -4 28 2 20 11 36
49 33 84 0 9 4 17 10 17 6 0 22 12 36 27 16 18 27 23 30 15 2 -6 12 -12 22
-12 10 0 22 -5 26 -11 3 -6 15 -9 25 -6 11 3 19 0 19 -5 0 -6 6 -6 15 2 8 6
19 9 25 5 5 -3 13 1 16 9 5 13 -2 52 -36 194 -13 55 15 20 60 -75 22 -46 45
-81 50 -78 6 3 10 1 10 -6 0 -7 3 -9 6 -6 4 3 16 -5 26 -19 21 -26 32 -26 95
3 20 9 30 20 26 29 -3 8 0 14 6 14 7 0 9 9 5 25 -3 14 -2 25 2 24 21 -4 32 2
37 21 3 11 12 20 21 20 9 0 16 5 16 11 0 6 10 9 23 8 12 -1 29 1 38 5 9 4 22
6 29 4 13 -3 52 105 51 142 0 97 -31 261 -59 320 -12 25 -22 51 -22 58 0 6 -4
12 -10 12 -5 0 -10 9 -10 20 0 11 -8 28 -19 39 -11 11 -17 29 -16 45 2 15 -2
26 -8 26 -18 0 -16 108 2 119 9 6 10 11 2 15 -6 4 -11 22 -11 41 0 18 -6 36
-12 39 -9 4 -9 8 -2 11 6 3 8 19 6 35 -3 24 -9 30 -29 30 -21 0 -23 3 -14 14
9 10 9 16 1 21 -8 5 -8 11 1 21 9 11 7 14 -14 14 -28 0 -33 -30 -7 -42 8 -5
-5 -5 -29 -2 -30 4 -41 3 -37 -5 5 -7 1 -9 -9 -5 -13 5 -12 9 7 26 l23 20 -22
-6 c-18 -6 -23 -3 -23 9 0 9 -6 15 -12 12 -7 -2 -12 -14 -10 -25 2 -12 -2 -22
-7 -22 -6 0 -11 7 -11 15 0 24 -18 17 -22 -7 -2 -16 -9 -22 -22 -20 -10 2 -23
-2 -27 -10 -7 -11 -11 -10 -18 2 -7 10 -6 17 2 22 7 4 -1 6 -18 5 -20 -1 -29
2 -27 11 1 6 -7 12 -18 12 -13 0 -18 -5 -14 -15 4 -8 1 -15 -5 -15 -6 0 -11 5
-11 11 0 8 -14 10 -40 6 -23 -3 -40 -1 -40 5 0 11 -43 0 -48 -13 -6 -16 -38 6
-99 67 l-63 64 7 91 6 91 55 51 c30 29 62 61 71 72 9 10 35 39 59 64 23 24 42
53 42 63 0 26 0 24 16 70 8 24 30 59 48 78 54 56 71 137 41 190 -8 14 -14 35
-15 48 0 13 -13 52 -30 87 -16 35 -30 70 -30 77 0 7 -8 27 -17 43 -10 19 -17
56 -18 100 -1 60 -6 78 -34 124 -18 30 -36 77 -41 105 -8 55 -45 98 -79 91
-12 -2 -23 5 -31 21 l-13 24 -31 -35 c-30 -34 -98 -63 -81 -35 6 10 3 12 -13
8 -32 -9 -26 4 13 30 20 13 35 30 35 42 0 28 -15 32 -35 10z m-965 -586 c0 -8
-4 -14 -10 -14 -5 0 -10 -7 -10 -15 0 -8 -9 -15 -19 -15 -22 0 -39 49 -21 60
17 11 60 -1 60 -16z m184 2 c-3 -9 -10 -16 -16 -16 -5 0 -7 -4 -3 -9 7 -13
-57 -25 -87 -17 -24 5 -54 43 -44 54 4 3 22 -2 41 -11 45 -22 57 -21 86 2 27
22 32 21 23 -3z m-424 -66 c0 -5 -7 -10 -16 -10 -8 0 -12 5 -9 10 3 6 10 10
16 10 5 0 9 -4 9 -10z m303 -56 c-9 -23 -23 -16 -23 12 0 22 2 24 14 14 8 -6
12 -18 9 -26z m1053 11 c4 -8 3 -23 -2 -32 -4 -10 -7 -21 -6 -25 1 -4 -8 -13
-21 -19 -30 -17 -48 -42 -37 -53 6 -6 5 -15 -2 -23 -11 -14 -6 -47 19 -138 9
-29 -37 28 -71 89 -15 27 -38 58 -52 68 -15 12 -24 30 -24 47 0 16 -9 39 -19
53 l-19 24 71 2 c84 2 125 7 134 16 11 10 23 7 29 -9z m-1395 -78 c-6 -8 -8
-17 -4 -20 3 -4 1 -7 -5 -7 -6 0 -10 9 -9 20 1 11 8 20 15 20 11 0 12 -3 3
-13z m9 -77 c0 -5 -6 -10 -14 -10 -8 0 -18 5 -21 10 -3 6 3 10 14 10 12 0 21
-4 21 -10z m358 -85 c13 -27 -2 -45 -21 -26 -19 19 -30 12 -25 -14 7 -34 -7
-41 -26 -14 l-15 22 -7 -27 c-3 -14 -4 -33 0 -41 5 -13 2 -14 -17 -4 -12 7
-25 17 -29 23 -12 17 -9 46 5 51 6 2 26 10 42 16 17 7 36 11 43 10 7 -1 12 2
11 6 -5 32 24 31 39 -2z m-278 -37 c0 -17 -3 -28 -7 -24 -11 10 -11 56 -1 56
4 0 8 -14 8 -32z m-306 -53 c-4 -8 -8 -15 -10 -15 -2 0 -4 7 -4 15 0 8 4 15
10 15 5 0 7 -7 4 -15z m31 -5 c3 -5 1 -10 -4 -10 -6 0 -11 5 -11 10 0 6 2 10
4 10 3 0 8 -4 11 -10z m45 -4 c0 -11 -19 -15 -25 -6 -3 5 1 10 9 10 9 0 16 -2
16 -4z m-30 -61 c-7 -8 -17 -15 -22 -15 -11 0 14 29 26 30 5 0 3 -7 -4 -15z
m430 -90 c20 -24 6 -28 -15 -5 -10 11 -13 20 -8 20 6 0 16 -7 23 -15z m414
-129 c31 -19 73 -47 93 -62 46 -35 185 -95 276 -119 45 -12 64 -21 55 -27 -22
-14 11 -28 67 -28 36 0 46 -3 35 -10 -8 -5 -33 -10 -55 -10 -22 0 -46 -4 -54
-9 -16 -11 33 -23 101 -25 65 -1 39 -13 -49 -21 -87 -8 -96 -28 -14 -33 53 -3
63 -22 12 -22 -42 0 -44 -10 -9 -42 37 -33 35 -32 54 -13 9 8 32 15 52 15 l37
0 -42 -26 c-27 -15 -55 -24 -75 -23 -18 2 -46 2 -62 1 -24 -2 -27 -4 -16 -17
9 -11 17 -12 23 -6 7 7 20 5 38 -5 24 -12 29 -12 29 -1 0 9 11 14 28 15 69 2
98 15 93 45 -3 18 18 3 71 -50 31 -32 63 -65 70 -73 39 -42 83 -302 59 -340
-14 -20 -22 -8 -25 35 -2 21 -9 41 -16 45 -7 4 -9 13 -5 20 5 9 4 11 -3 6 -7
-4 -12 -1 -12 9 0 9 -16 32 -35 52 -19 20 -35 39 -35 43 0 13 -85 48 -155 65
-37 8 -72 19 -79 23 -6 4 -29 12 -51 18 -82 23 -172 63 -235 103 -36 23 -78
49 -95 59 -62 36 -153 133 -169 180 -20 57 -20 96 -1 115 8 8 12 17 9 19 -2 3
-9 19 -13 36 -7 23 -6 30 3 26 7 -3 13 2 13 11 0 8 -5 15 -10 15 -5 0 -6 7 -3
16 3 8 2 12 -4 9 -11 -7 -14 8 -3 19 11 11 45 -1 107 -38z m-964 -262 c0 -2
-7 -4 -15 -4 -8 0 -15 4 -15 10 0 5 7 7 15 4 8 -4 15 -8 15 -10z m2087 -100
c-3 -3 -12 -4 -19 -1 -8 3 -5 6 6 6 11 1 17 -2 13 -5z m-110 -20 c-3 -3 -12
-4 -19 -1 -8 3 -5 6 6 6 11 1 17 -2 13 -5z m-1587 -982 c21 -8 43 -32 37 -39
-6 -5 -127 64 -127 73 0 2 17 -3 38 -12 20 -9 44 -19 52 -22z m-26 -137 c20
-10 36 -21 36 -26 0 -19 -131 18 -138 40 -5 16 56 8 102 -14z"/>
<path d="M1645 1320 c-4 -6 -4 -10 -1 -10 2 0 11 -3 20 -6 9 -3 16 -2 16 4 0
14 -28 23 -35 12z"/>
<path d="M1226 3081 c-4 -6 0 -23 9 -37 12 -19 14 -29 5 -39 -9 -11 -3 -15 32
-23 24 -4 49 -7 56 -4 21 7 13 22 -13 22 -18 0 -23 4 -18 16 4 10 -1 17 -16
21 -11 3 -21 8 -21 12 0 4 -6 15 -13 26 -10 13 -16 15 -21 6z"/>
<path d="M1705 3079 c-4 -6 -5 -13 -2 -16 7 -7 27 6 27 18 0 12 -17 12 -25 -2z"/>
<path d="M1912 3043 c-26 -29 -27 -34 -7 -27 15 6 40 42 33 49 -2 2 -13 -8
-26 -22z"/>
<path d="M1320 3028 c0 -19 34 -38 50 -28 9 6 4 12 -19 24 -23 13 -31 13 -31
4z"/>
<path d="M987 3000 c-3 -11 -1 -20 4 -20 5 0 9 -6 9 -13 0 -19 27 -53 35 -45
4 4 0 17 -9 30 -9 12 -16 30 -16 40 0 25 -17 31 -23 8z"/>
<path d="M1173 2975 c-36 -15 -42 -31 -15 -38 14 -4 13 -5 -3 -6 -12 0 -26 4
-33 11 -9 9 -12 9 -12 1 0 -7 5 -15 10 -18 18 -11 11 -23 -10 -18 -16 4 -19 2
-14 -12 4 -9 16 -20 28 -24 19 -8 18 -9 -11 -15 -18 -4 -33 -12 -33 -17 0 -5
12 -6 26 -3 20 5 25 3 22 -7 -3 -10 -25 -15 -66 -17 -66 -3 -79 -16 -34 -33
19 -8 36 -8 57 0 l30 11 -30 -25 c-16 -13 -39 -25 -50 -25 -16 0 -17 -2 -5 -9
8 -6 18 -7 24 -4 5 3 6 1 3 -4 -4 -6 -19 -9 -34 -7 -24 4 -25 3 -8 -5 18 -8
18 -10 3 -16 -9 -4 -22 -4 -28 0 -5 3 -10 1 -10 -4 0 -6 9 -11 21 -11 12 0 17
-4 14 -11 -4 -6 -19 -7 -35 -4 -34 7 -48 -10 -21 -24 29 -16 49 -13 68 9 11
13 19 16 24 9 5 -8 8 -8 13 0 4 6 2 11 -3 11 -22 0 -9 28 37 81 27 29 52 66
56 81 6 27 42 68 58 68 4 0 7 5 6 12 -2 7 7 17 20 23 23 10 30 25 11 25 -5 0
-8 4 -5 9 3 5 -1 12 -10 15 -21 8 -24 8 -61 -9z"/>
<path d="M890 2886 c-14 -18 -1 -47 31 -70 15 -10 19 -20 14 -36 -5 -15 -10
-19 -17 -12 -6 6 -16 8 -23 5 -8 -2 -19 5 -25 17 -6 11 -15 18 -21 15 -5 -4
-3 -17 6 -33 8 -15 20 -40 26 -57 8 -21 13 -25 16 -15 9 26 35 50 54 50 15 0
17 5 13 30 -5 24 -3 30 10 30 16 0 15 2 -1 25 -10 13 -26 25 -35 25 -10 0 -18
6 -18 14 0 22 -16 28 -30 12z"/>
<path d="M1010 2870 c0 -13 5 -18 14 -14 8 3 12 12 9 20 -8 21 -23 17 -23 -6z"/>
<path d="M810 2851 c0 -6 4 -13 10 -16 6 -3 7 1 4 9 -7 18 -14 21 -14 7z"/>
<path d="M983 2750 c-1 -11 4 -20 10 -20 7 0 13 9 14 20 1 11 -4 20 -10 20 -7
0 -13 -9 -14 -20z"/>
<path d="M1125 2762 c-21 -15 -46 -62 -33 -62 20 1 44 23 52 48 7 22 0 28 -19
14z"/>
<path d="M626 2574 c-8 -22 -8 -24 8 -24 21 0 28 16 12 29 -11 9 -15 8 -20 -5z"/>
<path d="M436 2245 c4 -8 11 -15 16 -15 6 0 5 6 -2 15 -7 8 -14 15 -16 15 -2
0 -1 -7 2 -15z"/>
<path d="M393 2219 c-2 -17 1 -18 12 -9 8 7 12 16 9 21 -9 16 -20 10 -21 -12z"/>
<path d="M1517 2133 c-30 -27 -53 -51 -50 -55 2 -5 17 -8 33 -8 23 0 33 7 45
30 20 38 36 80 30 80 -2 0 -28 -21 -58 -47z"/>
<path d="M310 2080 c0 -5 5 -10 11 -10 5 0 7 5 4 10 -3 6 -8 10 -11 10 -2 0
-4 -4 -4 -10z"/>
<path d="M800 2051 c0 -10 22 -31 32 -31 17 0 7 28 -12 33 -11 3 -20 2 -20 -2z"/>
<path d="M2490 1550 c0 -5 4 -10 9 -10 6 0 13 5 16 10 3 6 -1 10 -9 10 -9 0
-16 -4 -16 -10z"/>
<path d="M2520 1510 c-8 -5 -11 -12 -7 -16 4 -4 15 0 24 9 18 18 8 23 -17 7z"/>
<path d="M311 1454 c0 -11 3 -14 6 -6 3 7 2 16 -1 19 -3 4 -6 -2 -5 -13z"/>
<path d="M2625 1380 c-3 -5 -1 -10 4 -10 6 0 11 5 11 10 0 6 -2 10 -4 10 -3 0
-8 -4 -11 -10z"/>
</g>
</svg>
