<?xml version="1.0" standalone="no"?>
<!DOCTYPE svg PUBLIC "-//W3C//DTD SVG 20010904//EN"
 "http://www.w3.org/TR/2001/REC-SVG-20010904/DTD/svg10.dtd">
<svg version="1.0" xmlns="http://www.w3.org/2000/svg"
 width="300.000000pt" height="302.000000pt" viewBox="0 0 300.000000 302.000000"
 preserveAspectRatio="xMidYMid meet">

<g transform="translate(0.000000,302.000000) scale(0.100000,-0.100000)"
fill="#000000" stroke="none">
<path d="M0 1510 l0 -1510 981 0 c973 0 981 1 976 20 -6 25 -2 25 23 0 19 -19
33 -20 520 -20 l500 0 0 1510 0 1510 -1500 0 -1500 0 0 -1510z m1065 1311 c-3
-6 -11 -11 -17 -11 -6 0 -6 6 2 15 14 17 26 13 15 -4z m161 4 c-3 -9 0 -15 9
-15 17 0 20 -26 5 -35 -5 -3 -19 3 -31 14 -24 22 -20 51 7 51 10 0 14 -5 10
-15z m-106 -5 c0 -5 -5 -10 -11 -10 -5 0 -7 5 -4 10 3 6 8 10 11 10 2 0 4 -4
4 -10z m-126 -24 c-3 -9 -10 -16 -15 -16 -6 0 -5 9 1 21 13 24 24 20 14 -5z
m359 -30 c8 -20 -20 -43 -35 -28 -14 14 -3 42 16 42 7 0 16 -6 19 -14z m93
-20 c27 -28 17 -43 -23 -37 -29 5 -39 11 -41 29 -3 18 1 22 23 22 15 0 33 -6
41 -14z m-516 -6 c0 -5 -2 -10 -4 -10 -3 0 -8 5 -11 10 -3 6 -1 10 4 10 6 0
11 -4 11 -10z m-60 -10 c0 -5 -5 -10 -11 -10 -5 0 -7 5 -4 10 3 6 8 10 11 10
2 0 4 -4 4 -10z m393 -69 c12 -5 50 -10 82 -12 33 -2 66 -7 72 -12 7 -5 24 -6
38 -3 14 4 26 2 26 -4 1 -5 2 -16 3 -22 1 -7 8 -11 16 -9 63 17 128 31 142 31
10 0 31 -12 48 -27 23 -22 30 -37 32 -73 2 -59 -11 -150 -23 -150 -19 0 -8
-19 13 -22 14 -2 25 -13 29 -28 4 -14 7 -21 8 -16 1 5 11 -2 24 -16 12 -14 35
-33 50 -43 21 -13 27 -25 25 -43 -3 -22 -13 -28 -82 -48 -43 -13 -84 -28 -90
-33 -6 -5 -20 -34 -30 -65 -16 -47 -17 -61 -7 -98 7 -24 19 -70 27 -103 8 -33
28 -83 44 -112 33 -59 32 -70 -11 -102 -30 -22 -32 -23 -74 -7 -36 14 -50 15
-89 5 -25 -6 -46 -15 -46 -19 0 -17 31 -32 62 -30 18 1 38 1 43 0 6 -1 15 -1
20 0 6 1 7 -2 3 -6 -4 -4 -1 -12 8 -18 8 -6 16 -25 18 -41 2 -21 9 -31 22 -32
10 -2 13 0 7 3 -16 7 -17 47 -1 42 6 -2 16 -12 22 -21 16 -25 -5 -52 -40 -53
-16 -1 -49 -7 -72 -14 -34 -11 -53 -11 -85 -3 -35 10 -45 9 -59 -4 -17 -15
-25 -43 -13 -43 3 0 14 5 25 12 15 10 26 9 55 -5 20 -9 56 -17 80 -17 37 0 45
-3 45 -19 0 -11 -9 -21 -22 -24 -12 -4 -19 -9 -15 -13 3 -4 2 -14 -3 -24 -8
-15 -2 -18 55 -22 70 -6 117 -32 105 -58 -4 -8 -13 -27 -21 -42 -15 -33 -29
-36 -36 -8 -7 27 -39 25 -54 -2 -7 -13 -11 -25 -10 -28 5 -11 -67 -18 -143
-14 -92 5 -155 21 -239 62 -32 16 -60 26 -62 22 -7 -12 48 -71 85 -90 21 -11
59 -33 83 -50 55 -37 150 -80 177 -80 27 0 25 -18 -2 -22 -33 -5 -32 -22 3
-35 28 -11 30 -15 19 -28 -11 -14 -10 -17 8 -22 12 -3 22 -12 22 -19 0 -8 5
-14 10 -14 15 0 12 -41 -5 -54 -13 -10 -12 -15 2 -44 14 -29 14 -35 2 -43 -8
-5 -20 -7 -27 -4 -7 3 -21 -1 -32 -7 -14 -9 -28 -9 -62 2 -23 7 -47 16 -53 19
-5 3 -17 6 -27 6 -9 1 -33 16 -54 34 -20 18 -57 42 -82 52 -25 11 -64 36 -86
57 -150 137 -247 251 -260 307 -4 17 -10 39 -13 49 -4 15 -2 18 11 13 13 -5
16 -2 13 11 -5 15 -21 89 -31 144 -3 11 1 15 11 11 12 -5 14 3 11 38 -3 37 0
45 20 55 12 6 29 20 37 30 16 22 20 90 5 99 -5 3 -10 -1 -10 -9 0 -16 -24 -26
-57 -22 -27 3 -108 92 -93 101 7 5 8 11 1 19 -18 21 32 17 52 -4 33 -36 52
-13 25 30 -10 16 -10 24 0 38 27 37 43 85 52 155 13 100 20 146 30 187 13 52
53 155 63 158 4 2 3 10 -3 17 -11 14 -46 9 -69 -9 -7 -6 -29 -12 -47 -13 l-34
-2 24 22 c13 12 27 34 30 50 5 22 3 27 -13 27 -10 0 -24 7 -31 15 -10 13 -10
19 5 35 17 19 17 20 -1 21 -11 0 -13 3 -6 6 7 2 12 22 12 45 0 39 12 56 80
112 55 46 208 65 283 37z m-503 -155 c0 -21 -21 -31 -31 -15 -7 12 -9 12 -9 0
0 -8 -2 -12 -5 -9 -3 3 -3 13 1 22 8 20 44 21 44 2z m-110 -137 c0 -16 -4 -29
-10 -29 -5 0 -10 16 -10 36 0 21 4 33 10 29 6 -3 10 -19 10 -36z m90 -81 c0
-5 22 -8 49 -8 55 0 75 -14 36 -24 -48 -12 -125 16 -125 46 0 16 3 16 20 6 11
-7 20 -16 20 -20z m92 -60 c-9 -9 -15 -9 -24 0 -9 9 -7 12 12 12 19 0 21 -3
12 -12z m-67 -8 c3 -6 -1 -7 -9 -4 -18 7 -21 14 -7 14 6 0 13 -4 16 -10z
m-169 -65 c-7 -18 -26 -20 -26 -2 0 18 24 41 28 27 2 -6 1 -17 -2 -25z m1272
-73 c2 -8 -8 -12 -26 -12 -17 0 -37 -3 -46 -6 -9 -3 -16 -1 -16 5 0 10 56 31
74 27 6 -1 12 -8 14 -14z m-84 -47 c-23 -7 -52 -18 -64 -25 -17 -9 -21 -9 -15
0 11 17 65 39 95 39 19 -1 15 -4 -16 -14z m-1141 -29 c14 5 17 0 17 -24 0 -33
-18 -52 -30 -32 -6 9 -10 8 -18 -5 -12 -23 -42 -13 -42 15 0 26 40 67 49 51 4
-6 15 -9 24 -5z m1199 -38 c-9 -9 -12 -7 -12 12 0 19 3 21 12 12 9 -9 9 -15 0
-24z m-104 -18 c7 -11 22 -20 33 -20 17 0 19 -3 10 -14 -9 -11 -9 -14 1 -13
40 1 57 -5 63 -23 8 -26 26 -25 54 2 l24 21 -5 -59 c-5 -64 -47 -167 -81 -196
-11 -10 -22 -18 -24 -18 -6 0 -43 84 -68 155 -12 33 -30 81 -39 107 -15 39
-15 50 -4 62 17 20 21 20 36 -4z m-1261 -32 c-3 -7 -5 -2 -5 12 0 14 2 19 5
13 2 -7 2 -19 0 -25z m66 19 c3 -8 1 -20 -4 -28 -6 -10 -9 -7 -9 14 0 29 5 35
13 14z m-23 -33 c0 -8 -4 -14 -10 -14 -5 0 -10 9 -10 21 0 11 5 17 10 14 6 -3
10 -13 10 -21z m1290 -503 c0 -20 -17 -37 -27 -28 -7 8 7 47 18 47 5 0 9 -9 9
-19z m-128 -613 c-6 -6 -7 0 -4 19 5 21 7 23 10 9 2 -10 0 -22 -6 -28z m-34
-119 c-19 -12 -23 9 -7 39 l14 26 3 -29 c2 -16 -2 -31 -10 -36z m219 -331 c-3
-8 -6 -5 -6 6 -1 11 2 17 5 13 3 -3 4 -12 1 -19z m33 -39 c19 -16 21 -19 6
-15 -11 4 -23 2 -26 -5 -4 -6 -9 0 -12 15 -6 31 -1 32 32 5z m220 -17 c0 -10
-33 -42 -44 -42 -6 0 -6 4 2 9 7 4 14 17 15 28 0 13 6 19 14 16 7 -3 13 -8 13
-11z m-266 -18 c10 -25 -1 -29 -14 -5 -6 12 -7 21 -1 21 5 0 12 -7 15 -16z
m-14 -44 c0 -13 -1 -13 -10 0 -5 8 -10 22 -10 30 0 13 1 13 10 0 5 -8 10 -22
10 -30z m66 -14 c-10 -39 -21 -31 -24 17 -3 39 -2 41 14 25 11 -11 15 -25 10
-42z m178 -32 c9 -23 7 -38 -6 -57 -11 -15 -13 -11 -16 28 -3 44 10 61 22 29z
m-245 -27 c12 -15 12 -17 -3 -11 -9 3 -16 13 -16 22 0 8 1 13 3 11 1 -2 9 -12
16 -22z m180 -3 c10 -3 11 -7 2 -18 -10 -11 -8 -17 6 -25 16 -9 16 -10 -6 -11
-20 0 -23 4 -19 25 3 14 1 25 -3 25 -5 0 -9 -4 -9 -10 0 -14 -26 -12 -38 3 -8
9 -3 12 21 14 18 1 38 0 46 -3z m-139 -84 c11 0 20 -4 20 -10 0 -5 -5 -10 -12
-10 -18 0 -48 31 -47 49 0 10 3 8 9 -6 6 -13 18 -23 30 -23z m120 -2 c14 2 26
8 28 12 2 5 9 7 17 4 21 -9 6 -34 -21 -34 -17 0 -22 -4 -17 -16 3 -9 -10 0
-31 20 -20 21 -34 42 -30 47 3 6 11 1 18 -13 9 -17 19 -22 36 -20z"/>
<path d="M1193 2134 c-40 -20 -73 -43 -73 -50 0 -17 -5 -18 63 6 62 22 121 26
161 10 28 -10 35 -30 11 -30 -8 0 -44 -10 -79 -21 -68 -22 -106 -49 -106 -75
0 -19 41 -35 58 -21 9 7 18 5 32 -8 23 -21 69 -23 81 -4 5 8 9 24 9 37 0 12 6
22 13 22 22 0 59 -32 53 -46 -7 -18 30 -19 40 -2 5 7 7 27 5 45 -2 27 1 33 18
33 23 0 41 27 41 63 0 35 -76 66 -178 73 -74 4 -80 3 -149 -32z m166 -100 c2
-2 -5 -4 -17 -4 -12 0 -45 -9 -72 -19 -58 -22 -65 -6 -9 21 29 14 82 15 98 2z"/>
<path d="M1362 1914 c-15 -6 -33 -9 -39 -7 -7 3 -13 0 -13 -6 0 -14 70 -14
105 -1 14 5 24 14 20 19 -7 12 -38 10 -73 -5z"/>
</g>
</svg>
