<?xml version="1.0" standalone="no"?>
<!DOCTYPE svg PUBLIC "-//W3C//DTD SVG 20010904//EN"
 "http://www.w3.org/TR/2001/REC-SVG-20010904/DTD/svg10.dtd">
<svg version="1.0" xmlns="http://www.w3.org/2000/svg"
 width="243.000000pt" height="325.000000pt" viewBox="0 0 243.000000 325.000000"
 preserveAspectRatio="xMidYMid meet">

<g transform="translate(0.000000,325.000000) scale(0.100000,-0.100000)"
fill="#000000" stroke="none">
<path d="M0 2105 c0 -962 2 -1151 14 -1182 24 -64 27 -91 15 -139 -8 -30 -8
-48 -2 -53 6 -3 15 -19 22 -36 l11 -30 -4 37 c-7 59 10 45 27 -22 8 -33 11
-60 6 -60 -5 0 -9 5 -9 11 0 6 -5 9 -12 7 -7 -3 -12 -31 -13 -76 -1 -77 12
-100 17 -29 3 44 21 54 26 15 2 -13 5 -92 7 -177 3 -149 4 -154 28 -177 22
-21 29 -22 57 -13 18 7 29 17 26 24 -6 16 13 35 29 29 18 -7 9 -121 -12 -153
-10 -14 -18 -38 -18 -53 0 -25 4 -28 33 -28 26 0 32 4 32 23 0 12 5 29 11 37
8 11 9 5 4 -22 l-6 -38 451 0 c414 0 475 3 441 24 -12 8 -1 46 13 46 8 0 11
-12 8 -35 -5 -46 4 -45 17 1 8 29 7 39 -6 52 -10 11 -12 17 -4 20 6 2 11 10
11 19 0 10 -6 12 -22 7 -22 -6 -22 -6 2 16 15 13 20 24 14 27 -7 2 -10 12 -7
22 3 10 0 22 -6 25 -18 12 -12 23 14 30 29 7 32 18 10 36 -8 7 -15 21 -15 31
0 10 -4 20 -9 23 -5 3 -7 15 -4 26 3 11 0 26 -6 34 -13 16 -3 138 11 130 6 -4
7 -22 3 -40 -4 -23 -1 -41 10 -56 8 -13 15 -18 16 -13 2 30 9 67 24 123 15 60
16 143 2 142 -4 0 -11 0 -17 0 -5 0 -10 -7 -10 -15 0 -8 -4 -15 -10 -15 -15 0
-12 -58 3 -63 7 -2 8 -8 3 -13 -5 -5 -11 -4 -13 3 -3 7 -13 23 -24 35 -16 20
-20 21 -30 8 -12 -17 -10 -6 9 57 8 24 7 33 -4 37 -7 3 -16 1 -19 -4 -16 -25
-24 -5 -21 48 3 38 2 50 -4 36 -17 -43 -27 -32 -22 24 4 53 3 56 -12 37 -14
-18 -15 -19 -16 -2 0 10 5 27 10 38 13 24 2 25 -16 2 -13 -17 -13 -17 -14 0 0
9 -5 17 -11 17 -8 0 -8 4 -2 13 12 16 9 96 -6 127 -10 23 -11 23 -7 3 2 -13 0
-23 -5 -23 -5 0 -9 -11 -9 -25 0 -14 -4 -25 -9 -25 -15 0 -23 19 -15 32 12 19
13 77 2 84 -5 4 -15 1 -21 -5 -9 -9 -9 -14 0 -19 8 -5 9 -13 3 -22 -7 -11 -10
-12 -10 -2 0 18 -41 5 -58 -19 -15 -22 -37 -25 -29 -5 3 8 -1 20 -9 26 -11 10
-14 9 -14 -6 0 -16 -2 -17 -10 -4 -14 21 -12 30 4 30 8 0 16 7 20 15 3 8 12
15 21 15 8 0 15 5 15 11 0 6 -7 8 -16 5 -12 -5 -15 -2 -9 11 4 10 10 26 12 35
3 10 10 15 17 11 6 -3 8 -3 4 2 -4 4 -2 15 5 24 10 14 10 14 -4 4 -9 -7 -19
-10 -23 -6 -3 4 -13 -3 -22 -15 -8 -12 -19 -20 -24 -17 -5 3 -19 -14 -31 -37
-21 -40 -22 -42 -30 -20 -9 24 13 82 30 82 5 0 12 13 16 30 4 16 11 32 16 35
5 4 9 15 9 26 0 10 4 19 9 19 5 0 11 7 14 15 5 11 -1 13 -26 9 -18 -3 -28 -2
-22 3 11 9 28 35 50 78 8 17 36 53 61 80 48 52 86 124 98 186 6 34 66 106 66
80 0 -11 3 -11 15 -1 15 12 39 5 30 -10 -3 -5 -1 -11 3 -14 5 -3 14 6 21 20 6
14 16 22 22 18 6 -3 15 -1 19 6 12 19 39 5 50 -26 8 -21 13 -24 24 -15 11 10
16 8 21 -9 5 -15 12 -19 26 -15 13 4 19 2 19 -9 0 -9 8 -16 18 -16 10 0 39
-20 64 -44 40 -37 45 -46 33 -56 -20 -17 -19 -27 5 -33 12 -3 24 1 30 11 5 10
10 12 10 5 0 -21 37 -15 43 7 4 15 14 20 41 20 41 0 106 24 106 38 0 5 -25 13
-57 17 -39 5 -62 13 -75 28 -32 38 -49 78 -48 110 3 57 1 63 -39 85 -43 24
-85 27 -158 12 -26 -6 -77 -12 -113 -13 -60 -3 -68 -1 -101 27 -32 26 -36 34
-32 65 4 27 -1 42 -17 59 -11 12 -17 22 -12 22 8 0 14 16 28 79 1 8 7 17 12
20 14 10 10 40 -5 34 -7 -3 -13 0 -13 6 0 6 15 11 34 11 19 0 36 5 38 11 5 14
38 0 38 -16 0 -7 13 -24 29 -37 16 -14 32 -34 35 -45 4 -11 25 -34 48 -49 35
-25 50 -29 101 -27 66 2 99 20 74 41 -11 9 -21 9 -43 -3 -34 -16 -78 -10 -70
11 3 8 1 14 -4 14 -6 0 -10 -4 -10 -10 0 -5 -5 -10 -11 -10 -5 0 -8 4 -4 9 3
6 -4 15 -16 21 -33 18 -19 20 58 5 39 -8 87 -12 107 -10 32 3 36 0 36 -21 0
-13 -10 -32 -21 -43 -20 -18 -20 -21 -5 -36 21 -22 20 -28 -3 -22 -21 5 -34
-14 -25 -37 6 -15 103 -61 111 -52 3 2 -7 15 -21 27 l-25 22 24 41 c13 23 24
44 24 49 1 4 1 11 1 16 0 5 14 14 31 20 17 6 28 15 24 21 -9 14 13 40 32 40 8
0 28 -9 43 -20 25 -18 28 -25 23 -55 -4 -23 -2 -35 6 -35 6 0 11 -7 11 -15 0
-9 11 -21 25 -27 32 -14 32 -27 0 -20 -29 5 -31 -6 -8 -45 22 -40 76 -73 115
-72 l33 0 -41 17 c-38 16 -94 54 -94 65 0 6 134 -63 140 -73 3 -5 21 -5 40 -1
l35 7 -57 24 c-32 13 -58 27 -58 31 0 8 103 5 118 -4 13 -9 42 2 42 15 0 5 -4
7 -9 4 -5 -3 -11 3 -14 14 -4 16 0 20 23 20 16 0 36 3 45 7 14 5 16 2 10 -15
-9 -29 3 -28 14 1 7 18 3 27 -23 51 -17 15 -41 35 -53 43 -12 8 -25 23 -28 32
-3 9 -38 33 -78 53 -59 30 -81 36 -122 33 -36 -2 -51 -7 -53 -19 -4 -20 -6
-20 -54 1 l-38 17 27 22 28 23 -33 7 c-26 5 -30 9 -21 20 6 8 7 14 2 14 -6 0
-20 9 -33 20 -13 11 -31 20 -42 20 -10 0 -18 7 -18 18 0 12 -3 14 -8 4 -9 -13
-31 -12 -72 5 -36 15 -120 24 -120 14 0 -5 -14 -14 -32 -20 -30 -11 -31 -11
-14 8 21 23 14 28 -41 27 -41 -1 -43 0 -43 28 0 23 -4 27 -19 23 -17 -4 -18
-2 -8 14 6 10 21 19 33 19 12 0 27 7 34 15 7 8 9 15 5 15 -5 0 2 9 15 20 13
12 30 18 37 16 7 -3 15 -1 18 4 3 6 15 2 26 -8 10 -10 29 -18 42 -16 12 1 26
3 30 3 5 1 8 20 7 44 -3 76 -1 87 18 87 15 1 16 2 1 13 -9 7 -20 23 -24 37 -4
14 -15 33 -24 43 -8 11 -16 34 -16 53 0 28 3 33 18 28 9 -3 17 -2 17 3 -1 14
-27 43 -39 43 -15 0 -14 21 2 45 16 24 19 62 7 70 -15 9 -62 -6 -57 -19 7 -18
-12 -58 -23 -51 -8 5 -7 11 1 21 9 11 6 14 -17 15 -23 1 -24 3 -7 6 24 5 42
42 25 52 -12 7 4 31 33 47 14 8 19 20 17 38 -2 17 2 26 11 26 7 0 14 6 14 14
0 8 -6 12 -14 9 -8 -3 -13 2 -13 16 0 14 -5 19 -16 14 -11 -4 -12 -9 -5 -16
17 -17 13 -37 -6 -37 -17 -1 -17 -1 0 -11 9 -5 17 -17 17 -25 0 -8 -4 -13 -9
-9 -16 9 -51 -45 -45 -71 5 -20 3 -22 -17 -17 -13 4 -18 8 -12 10 7 3 9 11 7
18 -3 8 1 24 10 36 9 14 13 32 9 47 -4 17 -2 23 6 18 7 -4 11 0 11 11 0 16 -7
19 -47 17 -27 -1 -69 -5 -94 -9 -35 -6 -49 -4 -61 8 -14 14 -18 14 -37 0 -12
-8 -25 -12 -28 -9 -10 10 8 22 62 41 28 10 55 21 60 25 6 4 97 7 203 9 174 1
201 -1 290 -23 118 -29 169 -57 262 -143 85 -79 147 -163 194 -264 51 -109 60
-156 51 -257 -5 -48 -9 -124 -9 -169 -1 -46 -4 -83 -7 -83 -3 0 -6 -18 -7 -40
-1 -28 4 -46 18 -60 11 -11 17 -20 13 -20 -3 0 4 -11 17 -25 21 -22 22 -25 5
-25 -16 0 -17 -2 -3 -17 9 -10 19 -29 23 -43 7 -23 7 -23 -9 -7 -25 25 -45 22
-38 -5 5 -21 4 -22 -13 -8 -14 11 -19 12 -22 2 -3 -6 -9 -10 -14 -7 -15 10
-56 -98 -57 -148 -1 -56 -57 -239 -80 -265 -24 -26 -72 -46 -72 -29 0 6 -10
22 -23 33 -12 12 -29 34 -37 50 -16 30 -148 164 -162 164 -14 0 -9 -22 10 -43
12 -13 17 -34 16 -71 -1 -28 5 -76 13 -106 13 -47 18 -71 22 -113 1 -5 6 -5
11 -2 6 4 10 -5 10 -19 0 -14 -4 -26 -10 -26 -15 0 -12 -12 10 -40 19 -23 21
-24 31 -7 5 9 15 17 21 17 6 0 20 8 31 18 17 15 17 13 -3 -23 -12 -22 -25 -42
-29 -45 -4 -3 -17 -19 -29 -37 -17 -24 -21 -39 -16 -60 10 -42 43 -83 65 -83
11 0 26 -6 33 -13 8 -7 33 -19 57 -26 24 -7 53 -17 64 -23 45 -20 154 -202
188 -313 9 -28 25 -68 36 -90 12 -21 21 -44 21 -51 0 -6 22 -45 48 -85 26 -41
63 -100 81 -131 18 -32 34 -58 37 -58 2 0 4 653 4 1450 l0 1450 -1215 0 -1215
0 0 -1145z m1376 663 c-2 -20 -10 -34 -19 -36 -12 -2 -14 3 -10 20 6 22 21 48
29 48 2 0 2 -15 0 -32z m-831 -224 c-9 -14 -18 -36 -20 -48 -5 -43 -17 -76
-26 -70 -5 3 -7 19 -4 36 6 34 54 122 63 114 2 -3 -3 -17 -13 -32z m893 -39
c-3 -3 -9 2 -12 12 -6 14 -5 15 5 6 7 -7 10 -15 7 -18z m-650 -218 c-23 -19
-28 -33 -34 -89 -9 -89 -29 -91 -21 -2 4 59 8 68 38 94 19 15 36 26 39 23 3
-3 -7 -15 -22 -26z m662 -35 c3 -2 -1 -7 -7 -9 -9 -3 -10 -10 -3 -24 9 -16 7
-19 -10 -19 -11 0 -20 -4 -20 -10 0 -13 -12 -13 -47 1 -22 8 -24 12 -13 19 13
8 12 12 -5 24 -20 15 -20 15 2 16 12 0 25 5 28 11 7 10 64 3 75 -9z m-20 -131
c0 -5 -9 -7 -20 -4 -11 3 -20 7 -20 9 0 2 9 4 20 4 11 0 20 -4 20 -9z m528
-82 c14 -10 21 -19 17 -19 -4 0 -2 -7 5 -14 8 -11 -1 -9 -29 5 -22 10 -47 19
-54 19 -16 0 -29 24 -19 35 10 9 52 -4 80 -26z m-25 -33 c19 -14 22 -32 8 -41
-13 -8 -61 16 -61 30 0 27 25 32 53 11z m-511 -143 c31 -19 73 -87 63 -103
-13 -22 -49 -8 -91 35 -47 47 -55 71 -26 78 9 3 19 5 20 6 2 0 17 -7 34 -16z
m-665 -765 c-3 -8 -6 -5 -6 6 -1 11 2 17 5 13 3 -3 4 -12 1 -19z m9 -39 c-8
-12 -12 -29 -8 -37 5 -14 4 -15 -10 -2 -12 11 -13 20 -5 37 6 13 16 23 24 23
12 0 12 -3 -1 -21z m177 -24 c-3 -9 -8 -14 -10 -11 -3 3 -2 9 2 15 9 16 15 13
8 -4z m-92 -54 c-5 -9 -11 -23 -15 -31 -3 -8 -4 2 -1 23 4 22 2 37 -5 37 -5 0
-10 -4 -10 -10 0 -5 -5 -10 -10 -10 -6 0 -5 8 2 20 11 18 14 18 30 3 12 -10
15 -21 9 -32z m79 19 c0 -5 -5 -10 -11 -10 -5 0 -7 5 -4 10 3 6 8 10 11 10 2
0 4 -4 4 -10z m-48 -52 c-7 -7 -12 -8 -12 -2 0 14 12 26 19 19 2 -3 -1 -11 -7
-17z m-42 -28 c0 -5 -4 -10 -10 -10 -5 0 -10 -7 -10 -15 0 -8 -4 -15 -10 -15
-13 0 -13 6 2 30 14 21 28 26 28 10z m203 -65 c-3 -9 -8 -14 -10 -11 -3 3 -2
9 2 15 9 16 15 13 8 -4z m-263 -9 c0 -3 -4 -8 -10 -11 -5 -3 -10 -1 -10 4 0 6
5 11 10 11 6 0 10 -2 10 -4z m296 -43 c-10 -10 -19 5 -10 18 6 11 8 11 12 0 2
-7 1 -15 -2 -18z m-329 -15 c-3 -7 -5 -2 -5 12 0 14 2 19 5 13 2 -7 2 -19 0
-25z m-692 -18 c3 -5 1 -10 -4 -10 -6 0 -11 5 -11 10 0 6 2 10 4 10 3 0 8 -4
11 -10z m682 -22 c-3 -8 -6 -5 -6 6 -1 11 2 17 5 13 3 -3 4 -12 1 -19z m370
-70 c-3 -8 -6 -5 -6 6 -1 11 2 17 5 13 3 -3 4 -12 1 -19z m-1007 -72 c0 -3 -4
-8 -10 -11 -5 -3 -10 -1 -10 4 0 6 5 11 10 11 6 0 10 -2 10 -4z m710 -16 c0
-5 -2 -10 -4 -10 -3 0 -8 5 -11 10 -3 6 -1 10 4 10 6 0 11 -4 11 -10z m361
-17 c-8 -15 -10 -15 -11 -2 0 17 10 32 18 25 2 -3 -1 -13 -7 -23z m-484 -15
c-3 -7 -5 -2 -5 12 0 14 2 19 5 13 2 -7 2 -19 0 -25z m471 -93 c-3 -3 -9 2
-12 12 -6 14 -5 15 5 6 7 -7 10 -15 7 -18z m-40 -80 c1 -14 -3 -25 -8 -25 -6
0 -10 11 -10 25 0 14 4 25 8 25 4 0 9 -11 10 -25z m36 -10 c-4 -8 -8 -15 -10
-15 -2 0 -4 7 -4 15 0 8 4 15 10 15 5 0 7 -7 4 -15z m-5 -87 l26 -18 -28 0
c-15 0 -30 7 -33 15 -4 8 -12 15 -20 15 -9 0 -14 11 -14 28 l1 27 20 -25 c12
-14 33 -33 48 -42z m-5 47 c3 -8 1 -15 -3 -15 -5 0 -11 7 -15 15 -3 8 -1 15 3
15 5 0 11 -7 15 -15z m36 -84 c0 -5 3 -18 6 -28 5 -17 5 -17 -9 0 -8 9 -19 17
-26 17 -6 0 -11 5 -11 10 0 6 9 10 20 10 11 0 20 -4 20 -9z m-883 -103 c-3 -8
-6 -5 -6 6 -1 11 2 17 5 13 3 -3 4 -12 1 -19z m0 -50 c-3 -7 -5 -2 -5 12 0 14
2 19 5 13 2 -7 2 -19 0 -25z m196 -8 c-3 -11 -10 -23 -16 -27 -5 -3 -8 -2 -5
3 3 5 8 17 11 27 9 24 16 22 10 -3z"/>
<path d="M1385 2250 c-3 -5 -1 -10 4 -10 6 0 11 5 11 10 0 6 -2 10 -4 10 -3 0
-8 -4 -11 -10z"/>
<path d="M1505 3140 c3 -5 8 -10 11 -10 2 0 4 5 4 10 0 6 -5 10 -11 10 -5 0
-7 -4 -4 -10z"/>
<path d="M1580 3141 c0 -6 5 -13 10 -16 6 -4 8 -11 5 -16 -4 -5 -1 -9 5 -9 7
0 9 7 6 16 -3 9 -6 20 -6 25 0 5 -4 9 -10 9 -5 0 -10 -4 -10 -9z"/>
<path d="M1433 3125 c-17 -19 -16 -20 5 -22 11 -1 18 5 18 18 0 22 -6 24 -23
4z"/>
<path d="M1485 3041 c-7 -12 12 -24 25 -16 11 7 4 25 -10 25 -5 0 -11 -4 -15
-9z"/>
<path d="M1430 2989 c0 -5 5 -7 10 -4 6 3 10 8 10 11 0 2 -4 4 -10 4 -5 0 -10
-5 -10 -11z"/>
<path d="M1438 2863 c7 -3 16 -2 19 1 4 3 -2 6 -13 5 -11 0 -14 -3 -6 -6z"/>
<path d="M1440 2810 c0 -5 5 -10 10 -10 6 0 10 5 10 10 0 6 -4 10 -10 10 -5 0
-10 -4 -10 -10z"/>
<path d="M2136 2261 c-4 -7 -5 -15 -2 -18 9 -9 19 4 14 18 -4 11 -6 11 -12 0z"/>
<path d="M1710 1991 c0 -12 5 -21 10 -21 6 0 10 6 10 14 0 8 -4 18 -10 21 -5
3 -10 -3 -10 -14z"/>
<path d="M2055 1890 c3 -5 8 -10 11 -10 2 0 4 5 4 10 0 6 -5 10 -11 10 -5 0
-7 -4 -4 -10z"/>
<path d="M1155 1656 c-64 -19 -92 -101 -37 -112 15 -3 38 -15 51 -25 21 -17
23 -22 10 -30 -10 -8 -8 -9 9 -4 13 4 22 2 22 -4 0 -6 12 -14 28 -17 15 -4 35
-13 44 -22 10 -8 27 -12 39 -9 12 3 44 -4 73 -17 121 -55 170 -65 220 -47 13
6 26 6 28 1 2 -4 14 -10 28 -12 18 -2 24 1 21 12 -2 8 -5 27 -6 42 -3 27 -49
77 -73 78 -15 0 -54 21 -63 34 -4 5 -11 6 -17 2 -6 -3 -13 -2 -16 3 -3 4 -23
11 -44 15 -22 3 -45 13 -52 21 -7 8 -18 15 -25 15 -7 0 -15 7 -19 15 -3 8 -11
12 -19 9 -8 -3 -20 2 -27 11 -7 8 -21 15 -31 15 -11 0 -19 5 -19 10 0 6 -12
10 -26 10 -14 0 -33 4 -42 9 -10 5 -33 4 -57 -3z"/>
<path d="M955 1440 c-3 -5 -1 -10 4 -10 6 0 11 5 11 10 0 6 -2 10 -4 10 -3 0
-8 -4 -11 -10z"/>
<path d="M881 1389 c-27 -29 -17 -39 11 -11 12 12 19 24 16 27 -3 4 -15 -4
-27 -16z"/>
<path d="M1118 1373 c7 -3 16 -2 19 1 4 3 -2 6 -13 5 -11 0 -14 -3 -6 -6z"/>
<path d="M925 1359 c-11 -17 1 -21 15 -4 8 9 8 15 2 15 -6 0 -14 -5 -17 -11z"/>
<path d="M990 1361 c-16 -4 -26 -15 -28 -31 l-4 -25 22 23 c11 12 30 22 40 22
11 0 20 5 20 10 0 11 -13 11 -50 1z"/>
<path d="M1035 1322 c-14 -10 -37 -52 -28 -52 18 1 56 41 47 50 -5 5 -14 6
-19 2z"/>
<path d="M1042 1230 c-24 -32 -30 -59 -9 -42 6 6 16 10 22 10 5 0 12 9 16 19
7 16 8 16 8 -2 1 -11 -6 -30 -14 -43 -15 -20 -14 -21 0 -16 9 4 22 19 31 35 8
16 19 29 25 29 8 0 8 -4 1 -12 -16 -21 -24 -58 -13 -58 6 0 11 5 11 12 0 6 7
20 16 29 15 17 15 20 -1 45 -13 21 -19 24 -26 13 -6 -10 -9 -11 -9 -1 0 23
-36 12 -58 -18z"/>
<path d="M1145 1179 c-11 -16 -1 -19 13 -3 7 8 8 14 3 14 -5 0 -13 -5 -16 -11z"/>
<path d="M1101 1104 c0 -11 3 -14 6 -6 3 7 2 16 -1 19 -3 4 -6 -2 -5 -13z"/>
<path d="M1685 1080 c3 -5 11 -10 16 -10 6 0 7 5 4 10 -3 6 -11 10 -16 10 -6
0 -7 -4 -4 -10z"/>
<path d="M890 1069 c0 -5 5 -7 10 -4 6 3 10 8 10 11 0 2 -4 4 -10 4 -5 0 -10
-5 -10 -11z"/>
<path d="M1700 1040 c0 -11 6 -23 13 -27 8 -4 17 -21 20 -38 4 -16 9 -41 12
-55 3 -14 -1 -8 -11 13 -16 36 -43 55 -29 20 4 -10 11 -48 15 -84 4 -36 13
-76 21 -90 7 -13 15 -36 17 -52 2 -15 10 -44 19 -65 9 -20 17 -41 17 -47 2
-13 25 -84 36 -110 5 -11 23 -65 41 -120 38 -125 50 -157 56 -151 9 8 14 90
15 216 1 116 8 156 30 171 10 7 -43 110 -53 103 -4 -2 -10 14 -14 36 -7 39
-25 66 -25 36 0 -9 -4 -16 -9 -16 -5 0 -14 -12 -19 -27 -10 -26 -10 -24 -11
21 -1 41 -3 47 -15 37 -12 -10 -13 -8 -9 9 3 12 -7 47 -27 86 -19 40 -30 75
-27 89 2 14 1 22 -4 20 -4 -3 -10 3 -14 14 -8 26 -45 35 -45 11z m80 -300 c0
-5 -2 -10 -4 -10 -3 0 -8 5 -11 10 -3 6 -1 10 4 10 6 0 11 -4 11 -10z"/>
<path d="M1900 1031 c0 -5 5 -13 10 -16 6 -3 10 -2 10 4 0 5 -4 13 -10 16 -5
3 -10 2 -10 -4z"/>
<path d="M1665 1020 c3 -5 8 -10 11 -10 2 0 4 5 4 10 0 6 -5 10 -11 10 -5 0
-7 -4 -4 -10z"/>
<path d="M1940 1002 c0 -4 10 -13 23 -21 22 -14 22 -14 3 8 -20 22 -26 25 -26
13z"/>
<path d="M1780 980 c0 -14 5 -32 10 -40 8 -12 10 -10 10 10 0 14 -5 32 -10 40
-8 12 -10 10 -10 -10z"/>
<path d="M2145 790 c10 -85 6 -365 -6 -418 -19 -86 -90 -327 -100 -336 -12
-13 -12 -10 10 61 15 49 16 63 6 67 -9 3 -17 -11 -25 -45 -7 -27 -16 -52 -21
-55 -5 -3 -9 -18 -9 -35 0 -28 2 -29 48 -29 l47 0 38 123 c71 230 68 207 62
397 -6 184 -16 259 -41 300 -14 24 -15 22 -9 -30z"/>
<path d="M1157 795 c-6 -14 7 -65 16 -65 7 0 3 68 -4 75 -4 3 -9 -1 -12 -10z"/>
<path d="M1537 709 c-12 -30 -14 -47 -6 -60 13 -25 32 -24 24 1 -4 11 -2 20 4
20 6 0 12 -3 12 -7 7 -44 6 -64 -2 -68 -5 -4 -9 0 -9 8 0 8 -8 17 -17 21 -10
3 -23 8 -29 11 -6 3 -11 -6 -11 -22 0 -15 -3 -45 -7 -65 -5 -30 -3 -41 13 -57
17 -17 19 -29 15 -103 -9 -141 -11 -160 -33 -273 -11 -61 -21 -111 -21 -112 0
-2 36 -3 79 -3 l79 0 4 47 c2 27 1 50 -2 53 -4 3 -10 33 -13 67 -5 46 -3 62 7
66 8 3 12 19 10 44 -2 21 -3 48 -3 61 -1 25 -23 29 -41 7 -21 -25 -21 -12 1
46 13 34 19 67 16 91 -4 30 -2 36 11 30 12 -4 11 2 -6 25 -25 36 -29 63 -7 63
17 0 21 35 5 45 -5 3 -10 15 -10 26 0 10 -6 18 -12 17 -7 -2 -14 8 -16 22 -6
43 -18 42 -35 -1z m-2 -169 c3 -5 1 -10 -4 -10 -6 0 -11 5 -11 10 0 6 2 10 4
10 3 0 8 -4 11 -10z m-5 -40 c0 -5 -5 -10 -11 -10 -5 0 -7 5 -4 10 3 6 8 10
11 10 2 0 4 -4 4 -10z m90 -241 c0 -5 -4 -9 -10 -9 -5 0 -10 7 -10 16 0 8 5
12 10 9 6 -3 10 -10 10 -16z"/>
<path d="M1201 704 c0 -11 3 -14 6 -6 3 7 2 16 -1 19 -3 4 -6 -2 -5 -13z"/>
<path d="M2022 633 c-25 -10 -34 -42 -17 -59 12 -13 14 -29 10 -78 -15 -156
-29 -243 -45 -295 -32 -98 -37 -201 -11 -201 5 0 14 35 20 78 17 103 30 148
82 267 37 87 43 111 45 180 2 61 -1 84 -13 98 -16 16 -44 21 -71 10z"/>
<path d="M1 558 c1 -68 6 -61 11 15 2 26 0 47 -4 47 -5 0 -7 -28 -7 -62z"/>
<path d="M1289 568 c-5 -17 -4 -48 3 -48 4 0 8 11 8 25 0 20 -7 34 -11 23z"/>
<path d="M2316 470 c3 -19 8 -62 11 -95 4 -38 12 -64 22 -72 15 -11 14 -12 -1
-13 -13 0 -18 -8 -18 -27 -1 -64 -8 -141 -17 -188 -5 -28 -8 -56 -5 -63 2 -7
22 -12 48 -12 39 0 44 3 50 26 9 36 -2 136 -17 144 -8 6 -8 9 0 14 6 4 8 12 5
18 -4 6 -10 26 -14 44 -6 26 -5 34 5 34 23 0 28 20 11 39 -9 10 -16 23 -16 30
0 7 -5 22 -12 34 -7 12 -13 30 -15 39 -1 9 -12 32 -23 50 l-20 33 6 -35z"/>
<path d="M1250 470 c0 -5 5 -10 10 -10 6 0 10 5 10 10 0 6 -4 10 -10 10 -5 0
-10 -4 -10 -10z"/>
<path d="M1308 450 c-3 -16 -1 -30 4 -30 4 0 8 14 8 30 0 17 -2 30 -4 30 -2 0
-6 -13 -8 -30z"/>
<path d="M2241 358 c-1 -78 2 -108 9 -98 12 19 13 210 1 210 -5 0 -9 -51 -10
-112z"/>
<path d="M1490 441 c0 -25 6 -27 13 -6 4 8 2 17 -3 20 -6 4 -10 -3 -10 -14z"/>
<path d="M1808 447 c10 -12 10 -16 0 -20 -9 -4 -7 -11 10 -26 12 -11 19 -22
14 -25 -11 -7 -3 -66 10 -66 5 0 7 -4 3 -10 -3 -5 -2 -17 3 -27 28 -55 42 -97
37 -113 -3 -11 1 -20 11 -24 14 -5 15 1 9 56 -4 35 -10 68 -14 73 -4 6 -14 37
-21 70 -22 93 -34 120 -55 123 -16 3 -17 1 -7 -11z"/>
<path d="M1265 410 c3 -5 8 -10 11 -10 2 0 4 5 4 10 0 6 -5 10 -11 10 -5 0 -7
-4 -4 -10z"/>
<path d="M1445 367 c-30 -62 -26 -104 6 -63 18 23 39 116 26 116 -3 0 -17 -24
-32 -53z"/>
<path d="M1260 379 c0 -5 5 -7 10 -4 6 3 10 8 10 11 0 2 -4 4 -10 4 -5 0 -10
-5 -10 -11z"/>
<path d="M1261 314 c0 -11 3 -14 6 -6 3 7 2 16 -1 19 -3 4 -6 -2 -5 -13z"/>
<path d="M1430 251 c0 -6 4 -13 10 -16 6 -3 7 1 4 9 -7 18 -14 21 -14 7z"/>
<path d="M1400 227 c0 -7 -9 -30 -19 -51 -18 -34 -61 -156 -61 -171 0 -3 12
-5 28 -5 22 0 29 6 40 38 7 20 15 46 17 57 3 11 10 42 16 68 6 26 8 54 5 62
-7 18 -26 20 -26 2z"/>
<path d="M1461 144 c0 -11 3 -14 6 -6 3 7 2 16 -1 19 -3 4 -6 -2 -5 -13z"/>
<path d="M1430 33 c0 -23 4 -33 13 -31 16 6 16 65 0 65 -8 0 -13 -14 -13 -34z"/>
</g>
</svg>
