<?xml version="1.0" standalone="no"?>
<!DOCTYPE svg PUBLIC "-//W3C//DTD SVG 20010904//EN"
 "http://www.w3.org/TR/2001/REC-SVG-20010904/DTD/svg10.dtd">
<svg version="1.0" xmlns="http://www.w3.org/2000/svg"
 width="800.000000pt" height="533.000000pt" viewBox="0 0 800.000000 533.000000"
 preserveAspectRatio="xMidYMid meet">

<g transform="translate(0.000000,533.000000) scale(0.100000,-0.100000)"
fill="#000000" stroke="none">
<path d="M0 2665 l0 -2665 2965 0 2965 0 24 48 c29 56 55 92 56 75 0 -6 -4
-14 -9 -17 -8 -5 -51 -90 -51 -101 0 -2 461 -5 1025 -5 l1025 0 0 2665 0 2665
-4000 0 -4000 0 0 -2665z m3398 2030 c15 -14 32 -25 39 -25 7 0 13 -4 13 -9 0
-5 10 -13 22 -16 11 -4 31 -17 42 -29 30 -31 75 -58 86 -51 5 3 13 -2 18 -11
6 -11 17 -15 30 -12 12 3 23 1 25 -6 3 -8 8 -8 17 1 7 6 19 9 26 6 8 -3 14 0
14 7 0 7 7 10 15 6 8 -3 15 0 15 7 1 7 7 1 15 -13 14 -24 14 -24 15 -3 0 18 6
21 33 21 38 -1 106 24 118 43 5 8 9 10 9 5 0 -5 9 -1 20 9 13 12 20 14 20 5 0
-7 13 -2 34 13 33 26 60 34 121 37 59 4 75 0 75 -16 0 -12 4 -14 13 -7 6 6 20
10 29 10 14 0 15 -4 6 -20 -11 -21 6 -41 29 -32 7 2 10 -2 7 -9 -3 -8 -1 -17
5 -21 6 -3 11 -18 11 -33 0 -21 2 -24 10 -12 6 9 10 10 10 3 0 -6 -5 -15 -11
-18 -6 -5 -4 -12 8 -21 10 -7 13 -14 6 -14 -7 0 -17 -10 -24 -21 -6 -12 -7
-19 -1 -15 6 4 8 -2 5 -14 -3 -11 -12 -20 -19 -20 -8 0 -14 -7 -14 -16 0 -13
-3 -14 -14 -4 -12 9 -16 5 -22 -27 -4 -21 -11 -44 -16 -50 -6 -7 -8 -19 -5
-27 4 -9 -3 -16 -16 -20 -12 -3 -18 -8 -14 -12 4 -4 2 -13 -5 -21 -13 -16 -15
-102 -2 -112 5 -3 11 -28 13 -56 1 -27 7 -60 12 -73 5 -13 9 -34 9 -47 0 -22
-2 -24 -26 -15 -90 34 -257 41 -347 15 -29 -8 -67 -29 -86 -45 -18 -17 -45
-31 -60 -32 -14 0 -32 -2 -40 -2 -20 -1 -25 -24 -13 -49 20 -43 22 -60 8 -76
-7 -9 -24 -41 -36 -71 -12 -30 -26 -64 -31 -75 -19 -42 -57 -190 -52 -199 4
-5 1 -6 -5 -2 -15 9 -15 -8 -2 -53 8 -30 7 -33 -10 -28 -10 3 -21 0 -23 -7 -3
-8 -8 -8 -19 1 -8 7 -19 9 -24 5 -4 -4 -2 1 5 11 12 15 9 21 -11 18 -5 0 -8 9
-9 22 -1 15 -4 11 -9 -13 -5 -19 -6 -47 -3 -63 7 -35 59 -85 98 -95 18 -5 31
-16 34 -28 3 -19 3 -19 -20 1 -19 17 -22 18 -16 3 4 -10 2 -18 -3 -18 -6 0
-10 -5 -10 -11 0 -5 4 -8 9 -4 5 3 12 1 16 -5 3 -6 -3 -10 -15 -10 -14 0 -20
-5 -17 -13 7 -20 -18 -48 -37 -41 -9 3 -16 10 -16 15 0 4 7 6 15 3 12 -5 12 0
5 26 -11 37 -26 57 -17 23 3 -13 1 -23 -4 -23 -5 0 -9 4 -9 9 0 14 -41 21 -46
7 -7 -18 -54 -19 -54 -1 0 9 -6 12 -16 8 -14 -5 -15 -1 -9 28 4 18 15 39 24
46 10 8 12 12 4 13 -7 0 -13 9 -13 20 0 12 -5 17 -14 14 -7 -3 -16 2 -19 10
-4 10 -13 13 -23 9 -14 -5 -16 -3 -11 11 4 10 3 15 -3 11 -6 -3 -10 1 -10 10
0 13 -4 14 -22 4 -17 -9 -20 -9 -15 4 4 11 0 13 -14 10 -16 -4 -19 0 -19 26 0
18 -4 30 -9 27 -15 -10 -30 44 -45 156 -11 90 -11 121 0 195 7 48 14 93 14 98
0 6 3 5 8 -1 16 -25 49 -25 78 -1 16 13 39 29 52 36 30 16 101 17 115 1 9 -10
7 -11 -10 -5 -40 12 -114 -6 -146 -35 -28 -24 -30 -30 -20 -51 10 -21 12 -21
12 -5 1 26 30 56 53 56 13 0 18 -8 18 -30 0 -44 37 -65 98 -55 26 4 62 6 80 6
36 -2 41 12 15 41 -15 17 -15 18 14 7 27 -9 34 -7 56 15 16 16 32 23 41 20 9
-3 16 -2 16 4 0 12 -29 24 -41 17 -5 -4 -6 2 -2 11 5 14 3 16 -11 11 -10 -4
-19 -1 -22 8 -4 8 -11 15 -16 15 -6 0 -27 13 -47 29 -20 16 -54 34 -76 40 -58
16 -179 14 -222 -4 -49 -21 -59 -9 -42 52 8 32 13 116 14 253 1 194 2 209 27
278 15 40 33 83 42 96 13 21 107 76 128 76 5 0 21 -11 36 -25z m952 -129 c0
-6 -7 -2 -15 8 -8 11 -15 25 -15 30 0 6 7 2 15 -8 8 -11 15 -25 15 -30z m2491
-39 c-10 -9 -11 -8 -5 6 3 10 9 15 12 12 3 -3 0 -11 -7 -18z m-1651 -287 c0
-5 -2 -10 -4 -10 -3 0 -8 5 -11 10 -3 6 -1 10 4 10 6 0 11 -4 11 -10z m230
-95 c0 -5 -5 -3 -10 5 -5 8 -10 20 -10 25 0 6 5 3 10 -5 5 -8 10 -19 10 -25z
m190 -10 c-7 -8 -17 -15 -22 -15 -11 0 14 29 26 30 5 0 3 -7 -4 -15z m-1080
-155 c4 -3 11 -15 15 -28 5 -19 3 -25 -14 -29 -12 -3 -21 -12 -21 -20 0 -9 6
-13 14 -10 10 4 12 0 8 -15 -3 -13 -7 -16 -12 -8 -11 18 -21 -4 -16 -35 3 -16
-3 -34 -18 -53 -13 -15 -21 -34 -18 -42 2 -8 -3 -5 -13 8 -23 31 -33 28 -29
-10 3 -25 1 -29 -8 -20 -16 16 -21 15 -52 -11 -18 -16 -25 -29 -20 -40 4 -13
1 -17 -15 -17 -17 0 -21 -6 -21 -30 0 -19 -5 -29 -12 -28 -7 2 -13 -5 -13 -14
0 -9 -4 -20 -8 -24 -4 -4 -7 -15 -7 -25 0 -10 -10 -21 -21 -24 -12 -4 -17 -10
-12 -14 12 -7 13 -42 1 -35 -4 3 -8 -2 -8 -11 0 -8 -9 -23 -20 -32 -11 -10
-20 -21 -20 -25 0 -5 -13 -22 -29 -39 -17 -17 -29 -36 -27 -42 1 -7 1 -9 -1
-4 -9 15 -23 6 -23 -14 0 -13 -4 -18 -12 -13 -6 4 -17 -1 -24 -11 -8 -10 -17
-16 -20 -12 -4 4 -13 -1 -20 -11 -13 -16 -13 -16 -14 1 0 15 -3 15 -20 5 -12
-8 -18 -19 -14 -30 3 -10 1 -18 -5 -18 -6 0 -11 -5 -11 -11 0 -5 4 -8 9 -5 5
3 27 -14 50 -39 23 -25 47 -45 54 -46 9 0 9 -2 -1 -6 -6 -2 -10 -9 -6 -14 3
-5 0 -9 -5 -9 -6 0 -11 4 -11 10 0 5 -13 7 -32 3 -24 -5 -29 -3 -23 7 5 9 2
10 -14 5 -15 -4 -21 -2 -21 8 0 17 -17 25 -77 36 -34 7 -43 5 -43 -5 0 -19
-11 -17 -38 6 -13 11 -21 24 -17 29 3 6 6 55 7 110 0 86 -2 103 -21 129 -16
23 -21 45 -21 91 0 36 -4 61 -11 61 -5 0 -7 6 -2 12 11 19 11 87 -1 85 -5 -1
-11 13 -13 32 -2 19 -13 45 -25 58 -15 16 -17 23 -7 23 18 -1 51 -25 43 -32
-3 -4 -1 -9 5 -13 6 -3 11 -2 11 4 0 5 22 17 49 26 27 9 57 25 67 36 24 26 67
49 91 48 10 0 4 -5 -13 -10 -31 -9 -114 -80 -114 -98 0 -5 17 -8 38 -8 30 2
38 6 35 18 -3 9 7 25 23 38 33 26 47 27 39 3 -3 -11 3 -30 16 -47 20 -25 27
-27 68 -22 25 3 55 9 66 12 18 6 17 4 -4 -14 -13 -12 -35 -21 -50 -22 -14 0
-35 -4 -46 -9 -35 -15 36 -12 88 4 34 10 47 11 50 2 2 -6 10 9 16 32 12 43 13
43 32 26 10 -9 19 -25 19 -36 0 -10 5 -18 10 -18 6 0 10 12 10 26 0 14 4 23
10 19 6 -3 29 4 53 16 92 47 87 46 88 22 1 -16 2 -16 6 0 3 12 10 16 20 13 12
-5 14 -1 8 21 -9 33 -9 32 -2 106 6 58 21 92 38 81 5 -3 7 -9 4 -14 -3 -5 -1
-11 5 -15 5 -3 10 0 10 7 0 21 24 42 29 26 2 -7 7 -15 11 -18z m550 -116 c-7
-31 -14 -54 -16 -51 -3 2 0 24 5 48 6 24 11 64 12 89 2 44 2 45 6 7 2 -21 -1
-63 -7 -93z m170 92 c0 -3 -4 -8 -10 -11 -5 -3 -10 -1 -10 4 0 6 5 11 10 11 6
0 10 -2 10 -4z m-683 -38 c-3 -7 -5 -2 -5 12 0 14 2 19 5 13 2 -7 2 -19 0 -25z
m1003 11 c0 -14 -17 -10 -23 5 -4 10 -1 13 9 9 7 -3 14 -9 14 -14z m-243 -11
c-3 -8 -6 -5 -6 6 -1 11 2 17 5 13 3 -3 4 -12 1 -19z m-2060 -2 c4 -5 -4 -6
-19 -4 -16 3 -28 1 -28 -4 0 -6 -6 -8 -14 -5 -8 3 -16 1 -19 -6 -2 -8 -9 -7
-20 5 -9 9 -17 18 -17 21 0 7 109 1 117 -7z m2277 -2 c3 -8 2 -12 -4 -9 -6 3
-10 10 -10 16 0 14 7 11 14 -7z m-331 -54 c-3 -11 -7 -20 -9 -20 -2 0 -4 9 -4
20 0 11 4 20 9 20 5 0 7 -9 4 -20z m354 -22 c-3 -8 -6 -5 -6 6 -1 11 2 17 5
13 3 -3 4 -12 1 -19z m38 12 c-4 -6 -1 -19 6 -28 12 -16 12 -16 -5 0 -16 14
-15 38 0 38 3 0 2 -5 -1 -10z m-1530 -11 c13 -6 4 -7 -30 -3 -27 4 -52 8 -54
10 -9 8 65 2 84 -7z m345 -23 c0 -3 -4 -8 -10 -11 -5 -3 -10 -1 -10 4 0 6 5
11 10 11 6 0 10 -2 10 -4z m750 -18 c0 -7 -5 -20 -10 -28 -8 -12 -10 -9 -10
13 0 15 5 27 10 27 6 0 10 -6 10 -12z m103 -8 c-3 -12 -8 -19 -11 -16 -5 6 5
36 12 36 2 0 2 -9 -1 -20z m321 -10 c-6 -6 -10 -3 -10 10 0 13 4 16 10 10 7
-7 7 -13 0 -20z m-357 -2 c-3 -8 -6 -5 -6 6 -1 11 2 17 5 13 3 -3 4 -12 1 -19z
m-17 -14 c0 -8 -5 -12 -10 -9 -6 4 -8 11 -5 16 9 14 15 11 15 -7z m230 -14 c0
-10 -4 -21 -8 -24 -5 -3 -9 8 -9 24 0 16 4 27 9 24 4 -3 8 -14 8 -24z m205 20
c3 -5 2 -10 -4 -10 -5 0 -13 5 -16 10 -3 6 -2 10 4 10 5 0 13 -4 16 -10z m-49
-19 c0 -11 -4 -17 -8 -15 -4 3 -8 0 -8 -7 0 -7 -3 -10 -6 -7 -5 5 12 48 19 48
2 0 3 -9 3 -19z m1274 5 c0 -3 -4 -8 -10 -11 -5 -3 -10 -1 -10 4 0 6 5 11 10
11 6 0 10 -2 10 -4z m-1607 -21 c-3 -9 -8 -14 -10 -11 -3 3 -2 9 2 15 9 16 15
13 8 -4z m114 -7 c-3 -8 -6 -5 -6 6 -1 11 2 17 5 13 3 -3 4 -12 1 -19z m141
-3 c-3 -3 -9 2 -12 12 -6 14 -5 15 5 6 7 -7 10 -15 7 -18z m37 15 c3 -5 2 -10
-4 -10 -5 0 -13 5 -16 10 -3 6 -2 10 4 10 5 0 13 -4 16 -10z m1065 5 c0 -2
-10 -9 -22 -15 -22 -11 -22 -10 -4 4 21 17 26 19 26 11z m-1406 -48 c-3 -9
-12 -18 -19 -21 -9 -3 -12 0 -9 8 3 8 0 17 -6 21 -8 5 -5 11 7 20 15 11 19 11
26 0 4 -7 4 -20 1 -28z m511 23 c3 -5 2 -10 -4 -10 -5 0 -13 5 -16 10 -3 6 -2
10 4 10 5 0 13 -4 16 -10z m-2018 -42 c-3 -8 -6 -5 -6 6 -1 11 2 17 5 13 3 -3
4 -12 1 -19z m658 6 c-9 -9 -19 -13 -23 -10 -3 4 0 11 8 16 24 15 33 11 15 -6z
m865 -8 c0 -8 -7 -16 -15 -20 -13 -4 -14 -2 -5 14 13 23 20 26 20 6z m130 -1
c0 -8 -4 -15 -10 -15 -5 0 -7 7 -4 15 4 8 8 15 10 15 2 0 4 -7 4 -15z m-102
-30 c-3 -3 -9 2 -12 12 -6 14 -5 15 5 6 7 -7 10 -15 7 -18z m1525 0 c-3 -9 -8
-14 -10 -11 -3 3 -2 9 2 15 9 16 15 13 8 -4z m-1446 -17 c-3 -8 -6 -5 -6 6 -1
11 2 17 5 13 3 -3 4 -12 1 -19z m236 -5 c-7 -2 -19 -2 -25 0 -7 3 -2 5 12 5
14 0 19 -2 13 -5z m-363 -13 c0 -5 -4 -10 -10 -10 -5 0 -10 5 -10 10 0 6 5 10
10 10 6 0 10 -4 10 -10z m142 -18 c-18 -6 -15 -22 4 -22 13 0 15 -7 11 -29 -5
-23 -2 -31 11 -34 10 -3 6 -5 -10 -6 -20 -1 -28 4 -29 17 -1 11 -4 9 -9 -8
-12 -39 -11 -50 5 -50 8 0 12 6 9 14 -4 11 0 13 15 9 21 -5 21 -6 -2 -27 -13
-11 -30 -36 -38 -53 -13 -30 -29 -44 -29 -25 0 4 -12 15 -27 24 -20 13 -23 18
-11 18 14 0 17 8 14 36 -2 29 0 33 9 21 10 -14 12 -14 21 1 5 9 9 31 9 47 0
17 5 33 10 37 6 5 5 8 -2 8 -9 0 -8 6 4 19 9 11 23 17 31 13 11 -4 12 -7 4
-10z m1092 2 c8 -21 8 -24 -3 -24 -5 0 -11 9 -14 20 -6 24 8 27 17 4z m-717
-16 c-3 -8 -6 -5 -6 6 -1 11 2 17 5 13 3 -3 4 -12 1 -19z m-517 -2 c0 -8 -4
-17 -9 -21 -6 -3 -9 4 -8 15 1 23 17 28 17 6z m1590 10 c0 -3 -4 -8 -10 -11
-5 -3 -10 -1 -10 4 0 6 5 11 10 11 6 0 10 -2 10 -4z m-1280 -26 c0 -5 -2 -10
-4 -10 -3 0 -8 5 -11 10 -3 6 -1 10 4 10 6 0 11 -4 11 -10z m160 -10 c0 -5 -5
-10 -11 -10 -5 0 -7 5 -4 10 3 6 8 10 11 10 2 0 4 -4 4 -10z m670 -5 c11 -13
10 -14 -4 -9 -9 3 -16 10 -16 15 0 13 6 11 20 -6z m102 -12 c0 -16 0 -36 0
-47 -2 -13 2 -16 14 -12 15 6 15 4 3 -10 -8 -10 -15 -12 -17 -5 -2 6 -13 11
-25 11 -22 1 -21 1 2 14 15 8 20 16 12 20 -14 9 -15 56 -1 56 6 0 11 -12 12
-27z m408 17 c0 -5 -2 -10 -4 -10 -3 0 -8 5 -11 10 -3 6 -1 10 4 10 6 0 11 -4
11 -10z m-440 -30 c0 -16 -2 -30 -4 -30 -2 0 -9 14 -15 30 -8 24 -7 30 5 30 9
0 14 -10 14 -30z m-1233 -2 c-3 -8 -6 -5 -6 6 -1 11 2 17 5 13 3 -3 4 -12 1
-19z m33 2 c0 -11 -4 -20 -9 -20 -5 0 -7 9 -4 20 3 11 7 20 9 20 2 0 4 -9 4
-20z m480 -10 c0 -5 -4 -10 -10 -10 -5 0 -10 5 -10 10 0 6 5 10 10 10 6 0 10
-4 10 -10z m647 -12 c-3 -8 -6 -5 -6 6 -1 11 2 17 5 13 3 -3 4 -12 1 -19z m53
-13 c0 -8 -4 -15 -10 -15 -5 0 -7 7 -4 15 4 8 8 15 10 15 2 0 4 -7 4 -15z
m224 -20 c-7 -17 -24 -20 -24 -5 0 6 5 10 12 10 6 0 3 7 -8 16 -18 15 -18 15
3 4 14 -6 20 -16 17 -25z m-304 -4 c0 -5 -7 -12 -16 -15 -14 -5 -15 -4 -4 9
14 17 20 19 20 6z m55 -21 c-27 -12 -43 -12 -25 0 8 5 22 9 30 9 10 0 8 -3 -5
-9z m-1017 -26 c0 -17 -3 -22 -8 -13 -5 6 -6 18 -3 26 8 19 11 16 11 -13z
m1339 4 c-3 -8 -6 -5 -6 6 -1 11 2 17 5 13 3 -3 4 -12 1 -19z m-70 -1 c11 4
14 3 9 -6 -5 -7 -14 -10 -21 -7 -8 3 -15 0 -18 -7 -2 -6 -6 -3 -10 7 -4 10 -3
15 3 11 6 -3 10 0 11 7 0 9 2 10 5 1 3 -7 12 -9 21 -6z m170 -9 c-3 -8 -6 -5
-6 6 -1 11 2 17 5 13 3 -3 4 -12 1 -19z m-452 2 c3 -5 1 -10 -4 -10 -6 0 -11
5 -11 10 0 6 2 10 4 10 3 0 8 -4 11 -10z m-765 -10 c0 -5 -5 -10 -11 -10 -5 0
-7 5 -4 10 3 6 8 10 11 10 2 0 4 -4 4 -10z m877 -22 c-3 -8 -6 -5 -6 6 -1 11
2 17 5 13 3 -3 4 -12 1 -19z m198 12 c3 -5 1 -10 -4 -10 -6 0 -11 5 -11 10 0
6 2 10 4 10 3 0 8 -4 11 -10z m59 -6 c3 -8 2 -12 -4 -9 -6 3 -10 10 -10 16 0
14 7 11 14 -7z m933 -6 c-3 -8 -6 -5 -6 6 -1 11 2 17 5 13 3 -3 4 -12 1 -19z
m-2414 -3 c-3 -9 -8 -14 -10 -11 -3 3 -2 9 2 15 9 16 15 13 8 -4z m1133 -11
c-4 -9 -9 -15 -11 -12 -3 3 -3 13 1 22 4 9 9 15 11 12 3 -3 3 -13 -1 -22z
m-1086 8 c0 -4 -5 -13 -11 -19 -8 -8 -8 -13 0 -17 6 -4 11 -12 11 -17 0 -6 -7
-3 -16 5 -9 10 -13 24 -9 36 6 19 25 28 25 12z m299 -23 c-19 -11 -24 -3 -8
14 8 9 16 11 18 5 2 -6 -3 -14 -10 -19z m1041 21 c0 -5 -4 -10 -10 -10 -5 0
-10 5 -10 10 0 6 5 10 10 10 6 0 10 -4 10 -10z m-28 -34 c7 4 8 2 4 -4 -12
-20 -34 -3 -28 21 l7 22 3 -23 c2 -13 8 -20 14 -16z m75 22 c0 -7 2 -19 4 -27
2 -7 -2 -15 -9 -16 -7 -2 -8 -1 -2 2 8 3 7 9 0 19 -7 7 -9 18 -5 24 8 13 12
13 12 -2z m43 -3 c7 -8 9 -15 6 -15 -4 0 -14 7 -22 15 -9 8 -11 15 -6 15 5 0
15 -7 22 -15z m811 -26 c-6 -24 -9 -28 -10 -12 -1 24 9 56 16 50 2 -3 0 -20
-6 -38z m-2202 15 c-6 -7 -17 -10 -25 -7 -23 8 -16 21 11 21 20 0 23 -3 14
-14z m2107 -12 c-18 -16 -18 -16 -6 6 6 13 14 21 18 18 3 -4 -2 -14 -12 -24z
m-786 -14 c0 -19 -16 -5 -17 14 -2 18 0 20 7 8 5 -8 10 -18 10 -22z m425 4
c-3 -3 -11 0 -18 7 -9 10 -8 11 6 5 10 -3 15 -9 12 -12z m-1725 -19 c0 -19 -3
-24 -10 -17 -6 6 -8 18 -4 27 9 24 14 21 14 -10z m557 -5 c-3 -7 -5 -2 -5 12
0 14 2 19 5 13 2 -7 2 -19 0 -25z m1698 21 c11 -16 1 -19 -13 -3 -7 8 -8 14
-3 14 5 0 13 -5 16 -11z m-2009 -57 c-3 -3 -6 1 -6 9 0 11 -2 11 -10 -1 -5 -8
-10 -22 -10 -30 0 -13 1 -13 10 0 8 12 10 11 10 -7 0 -12 -4 -24 -9 -27 -13
-9 -21 34 -14 78 l6 39 14 -28 c8 -15 12 -29 9 -33z m18 42 c5 -14 4 -15 -9
-4 -17 14 -19 20 -6 20 5 0 12 -7 15 -16z m870 3 c4 4 4 0 0 -10 -9 -25 -44
-23 -37 3 4 15 9 18 18 10 6 -5 15 -7 19 -3z m-1188 -18 c3 -6 1 -15 -6 -19
-9 -5 -9 -9 -1 -14 6 -4 11 -12 11 -19 0 -18 -29 26 -30 46 0 19 15 23 26 6z
m1351 -18 c0 -15 -1 -18 -4 -8 -2 9 -9 17 -14 17 -5 0 -9 4 -9 8 0 22 26 5 27
-17z m-1420 -21 c-1 -22 -5 -40 -9 -40 -10 0 -10 8 -2 49 9 43 14 39 11 -9z
m1490 34 c-3 -3 -12 -4 -19 -1 -8 3 -5 6 6 6 11 1 17 -2 13 -5z m-1175 -13 c8
11 9 11 6 1 -4 -16 -22 -18 -25 -2 -1 7 0 6 4 -1 4 -8 8 -7 15 2z m108 5 c0
-3 -4 -8 -10 -11 -5 -3 -10 -1 -10 4 0 6 5 11 10 11 6 0 10 -2 10 -4z m952
-18 c-7 -7 -12 -8 -12 -2 0 14 12 26 19 19 2 -3 -1 -11 -7 -17z m-1355 -10
c-3 -8 -6 -5 -6 6 -1 11 2 17 5 13 3 -3 4 -12 1 -19z m2166 -10 c-9 -50 -25
-70 -17 -23 7 40 12 55 19 55 3 0 2 -15 -2 -32z m47 28 c0 -3 -4 -8 -10 -11
-5 -3 -10 -1 -10 4 0 6 5 11 10 11 6 0 10 -2 10 -4z m-2489 -30 c-6 -7 -15
-23 -21 -37 -10 -23 -10 -22 -4 6 3 17 10 32 15 33 5 2 6 9 3 14 -4 7 -2 8 5
4 8 -5 9 -12 2 -20z m409 14 c0 -5 -2 -10 -4 -10 -3 0 -8 5 -11 10 -3 6 -1 10
4 10 6 0 11 -4 11 -10z m-580 -10 c0 -5 -5 -10 -11 -10 -5 0 -7 5 -4 10 3 6 8
10 11 10 2 0 4 -4 4 -10z m1773 -5 c-3 -9 -8 -14 -10 -11 -3 3 -2 9 2 15 9 16
15 13 8 -4z m115 -10 c-3 -3 -9 2 -12 12 -6 14 -5 15 5 6 7 -7 10 -15 7 -18z
m-3373 -31 c-2 -25 -7 -49 -11 -52 -4 -4 -5 2 -2 14 3 12 1 29 -4 38 -7 13 4
42 18 46 1 0 0 -21 -1 -46z m1752 24 c-3 -8 -6 -5 -6 6 -1 11 2 17 5 13 3 -3
4 -12 1 -19z m197 -16 c-4 -9 -8 -20 -8 -24 -1 -3 -4 -10 -8 -14 -5 -4 -8 -16
-8 -26 0 -10 -5 -18 -11 -18 -6 0 -9 7 -5 15 7 18 -10 20 -18 3 -3 -7 -4 4 -3
25 1 22 5 36 12 33 6 -2 19 2 30 10 10 8 15 14 11 14 -4 0 -4 5 0 12 11 18 18
-8 8 -30z m1332 8 c0 -13 -5 -19 -13 -15 -8 3 -18 -6 -24 -22 -12 -32 -19 -27
-12 10 3 15 12 27 19 27 8 0 14 5 14 10 0 6 4 10 8 10 4 0 8 -9 8 -20z m48
-10 c-6 -6 -10 -3 -10 10 0 13 4 16 10 10 7 -7 7 -13 0 -20z m-1647 14 c-3 -3
-12 -4 -19 -1 -8 3 -5 6 6 6 11 1 17 -2 13 -5z m383 -9 c0 -8 -2 -15 -4 -15
-2 0 -6 7 -10 15 -3 8 -1 15 4 15 6 0 10 -7 10 -15z m1635 5 c3 -5 1 -10 -4
-10 -6 0 -11 5 -11 10 0 6 2 10 4 10 3 0 8 -4 11 -10z m-2086 -43 c1 -5 -3 -5
-9 -2 -5 3 -10 16 -9 28 0 21 1 21 9 2 5 -11 9 -24 9 -28z m258 8 c-5 -30 -2
-38 19 -52 20 -13 32 -14 59 -6 29 9 33 9 27 -6 -5 -14 -3 -14 11 -2 9 7 14
17 11 22 -3 5 0 17 6 26 10 16 10 16 5 -3 -4 -14 0 -24 10 -28 19 -7 20 -36 0
-36 -8 0 -15 -7 -15 -15 0 -8 -9 -15 -20 -15 -11 0 -20 -5 -20 -11 0 -5 5 -7
10 -4 6 3 10 -1 10 -10 0 -12 -5 -15 -17 -11 -10 4 -14 4 -10 0 4 -4 2 -13 -4
-21 -6 -7 -8 -13 -3 -13 15 1 40 24 47 43 3 9 11 17 18 17 6 0 8 -7 5 -17 -6
-15 -4 -14 14 2 11 10 20 26 19 34 -4 43 2 61 20 61 11 0 25 13 34 32 l15 32
-2 -42 c-2 -51 -17 -70 -38 -48 -13 13 -15 11 -16 -15 0 -16 -4 -38 -7 -49 -5
-14 -2 -20 10 -20 12 0 15 6 10 20 -3 11 -2 28 4 37 9 15 10 13 11 -14 0 -17
3 -39 6 -47 4 -12 2 -15 -9 -10 -11 4 -16 -2 -19 -18 -4 -30 -34 -31 -31 0 3
23 -12 31 -19 10 -2 -7 -3 -37 -3 -65 0 -29 -3 -53 -7 -53 -4 0 -7 -30 -7 -66
1 -62 -4 -84 -17 -71 -3 3 -7 29 -8 56 0 28 -4 51 -8 51 -5 0 -8 -7 -8 -15 0
-9 -7 -18 -15 -21 -9 -4 -15 -18 -14 -38 1 -21 3 -24 6 -11 9 38 23 40 23 2 0
-26 4 -37 15 -37 8 0 15 -4 15 -8 0 -18 -13 -20 -35 -6 -16 10 -25 12 -30 4
-3 -5 0 -13 8 -16 8 -3 17 -14 20 -25 4 -15 2 -19 -9 -15 -11 4 -13 -1 -8 -22
9 -37 12 -39 23 -11 10 24 10 24 10 2 1 -13 -3 -23 -8 -23 -14 0 -10 -43 7
-62 7 -9 21 -14 29 -11 13 5 12 1 -2 -21 -15 -23 -16 -29 -4 -36 7 -5 10 -12
7 -16 -10 -10 -35 19 -30 35 3 8 0 11 -6 7 -7 -4 -10 3 -9 21 1 18 -3 27 -10
25 -7 -1 -13 7 -13 18 0 11 -4 20 -8 20 -15 0 -10 -34 7 -54 15 -18 15 -18 -6
-5 -13 8 -23 22 -23 31 0 9 -10 26 -22 38 -12 11 -17 20 -10 20 6 0 13 -4 16
-9 9 -14 55 -10 49 5 -2 7 -12 10 -21 7 -11 -5 -14 -2 -9 9 3 10 0 19 -9 22
-10 4 -13 16 -9 41 6 48 -18 42 -26 -6 -6 -31 -6 -30 -8 14 -1 30 -5 46 -11
42 -6 -4 -10 -12 -9 -18 3 -29 -2 -58 -10 -53 -4 3 -7 16 -6 29 2 18 -2 24
-16 23 -11 -1 -24 -8 -29 -16 -8 -13 -10 -12 -10 3 0 10 7 20 15 23 8 4 15 14
15 23 0 14 -2 14 -10 1 -8 -13 -10 -13 -10 1 0 10 11 20 25 23 14 4 25 12 25
18 0 7 6 3 14 -8 14 -17 15 -16 13 24 -1 45 -12 55 -22 22 -4 -11 -11 -18 -16
-15 -5 4 -9 -3 -9 -15 0 -12 -4 -19 -9 -15 -6 3 -6 17 1 36 5 16 8 38 5 49 -3
11 -1 23 4 26 5 3 9 -3 9 -13 0 -12 7 -19 20 -19 11 0 20 6 20 12 0 12 28 29
43 26 4 -1 7 3 7 8 0 6 5 10 10 10 6 0 10 -6 10 -14 0 -8 7 -16 15 -20 20 -7
19 8 -1 25 -8 7 -13 21 -11 31 3 10 1 18 -4 18 -5 0 -9 -7 -9 -16 0 -8 -4 -12
-10 -9 -5 3 -10 1 -10 -4 0 -6 -7 -11 -16 -11 -12 0 -11 5 7 20 20 16 22 21 9
29 -8 5 -18 7 -23 4 -5 -3 -6 10 -3 27 2 18 10 36 16 40 7 5 6 11 -5 20 -13
10 -15 9 -15 -8 0 -12 -5 -24 -10 -27 -6 -4 -7 -11 -4 -17 4 -7 2 -8 -4 -4 -8
4 -8 15 -2 31 5 14 8 25 7 26 -21 6 -57 5 -57 -2 0 -5 5 -9 12 -9 7 0 5 -5 -4
-12 -9 -7 -19 -22 -22 -33 -3 -12 -4 -8 -2 8 2 18 -1 27 -10 27 -8 0 -13 -3
-13 -7 4 -22 -2 -47 -9 -38 -9 13 -35 18 -27 5 3 -5 1 -10 -4 -10 -6 0 -11 -7
-11 -15 0 -18 12 -19 28 -3 9 9 12 8 12 -5 0 -9 -6 -17 -14 -17 -20 0 -31 -19
-17 -33 7 -7 12 -6 17 7 4 11 10 14 18 6 7 -5 23 -7 36 -5 15 3 20 1 14 -5 -5
-5 -25 -11 -44 -13 -29 -4 -35 -8 -35 -28 0 -13 3 -32 7 -41 5 -10 3 -20 -4
-24 -7 -5 -8 -3 -3 6 6 10 4 12 -9 7 -14 -5 -17 -3 -12 8 6 17 -2 19 -24 6 -8
-6 -18 -7 -23 -4 -5 3 -4 9 3 13 7 4 0 12 -19 20 -19 8 -31 20 -31 31 0 21 1
22 24 13 9 -3 12 -12 9 -22 -4 -9 -3 -14 2 -10 4 4 14 3 22 -3 8 -8 13 -8 13
-1 0 6 -6 12 -12 14 -10 4 -8 9 3 21 9 9 19 13 23 10 3 -4 7 11 8 33 0 21 2
58 4 82 2 30 -1 45 -12 49 -7 3 -11 9 -8 14 9 15 45 -37 38 -55 -3 -9 -2 -16
3 -16 12 0 14 38 2 45 -5 4 -9 17 -9 31 0 17 4 23 12 18 11 -7 10 -3 -4 46 -3
8 -3 12 -1 8 2 -4 11 -4 19 -1 10 4 14 -2 14 -21 0 -14 5 -26 10 -26 6 0 10 5
10 10 0 6 5 10 11 10 5 0 7 -4 4 -10 -3 -5 -1 -10 4 -10 15 0 14 -27 -1 -33
-16 -5 -10 -12 19 -21 19 -6 21 -3 19 24 -1 16 2 30 7 30 5 0 7 9 4 21 -4 15
-2 19 9 15 9 -3 12 -1 9 4 -3 6 -3 15 0 20 12 20 17 9 12 -25z m1503 25 c8 -5
11 -10 5 -10 -5 0 -17 5 -25 10 -8 5 -10 10 -5 10 6 0 17 -5 25 -10z m-1550
-10 c0 -5 -5 -10 -11 -10 -5 0 -7 5 -4 10 3 6 8 10 11 10 2 0 4 -4 4 -10z
m229 -32 c1 -5 -3 -8 -7 -8 -4 0 -8 12 -9 28 -1 23 -1 24 7 7 5 -11 9 -23 9
-27z m897 15 c-10 -10 -19 5 -10 18 6 11 8 11 12 0 2 -7 1 -15 -2 -18z m-1489
-25 c-3 -7 -5 -2 -5 12 0 14 2 19 5 13 2 -7 2 -19 0 -25z m223 25 c0 -5 -5
-15 -10 -23 -8 -13 -10 -12 -10 4 0 15 -3 16 -14 7 -11 -9 -16 -9 -22 0 -4 7
-3 9 4 5 6 -3 13 -2 17 4 7 12 35 14 35 3z m1345 -3 c13 -6 15 -9 5 -9 -8 0
-22 4 -30 9 -18 12 -2 12 25 0z m55 0 c8 -5 11 -10 5 -10 -5 0 -17 5 -25 10
-8 5 -10 10 -5 10 6 0 17 -5 25 -10z m204 -15 c-14 -14 -28 -25 -31 -25 -4 0
4 11 17 25 13 14 27 25 31 25 5 0 -3 -11 -17 -25z m-1787 9 c-3 -3 -12 -4 -19
-1 -8 3 -5 6 6 6 11 1 17 -2 13 -5z m1480 -16 c-3 -8 -6 -5 -6 6 -1 11 2 17 5
13 3 -3 4 -12 1 -19z m-2690 -50 c13 -14 12 -17 -6 -23 -34 -10 -24 -20 18
-19 28 1 42 -3 46 -15 6 -14 8 -14 14 2 6 17 9 16 34 -7 16 -15 34 -23 45 -20
14 5 15 4 2 -4 -19 -13 -172 -24 -165 -13 2 5 -21 12 -52 16 -31 4 -62 9 -70
12 -20 8 -16 33 5 33 10 0 31 14 45 30 15 17 34 30 42 30 8 0 16 8 16 18 1 14
2 13 6 -3 3 -11 12 -27 20 -37z m-272 22 c-3 -5 -10 -10 -16 -10 -5 0 -9 5 -9
10 0 6 7 10 16 10 8 0 12 -4 9 -10z m2132 -22 c-3 -8 -6 -5 -6 6 -1 11 2 17 5
13 3 -3 4 -12 1 -19z m1603 12 c0 -5 -4 -10 -10 -10 -5 0 -10 5 -10 10 0 6 5
10 10 10 6 0 10 -4 10 -10z m-825 -30 c1 -10 -2 -17 -6 -14 -4 2 -7 13 -6 24
2 23 10 17 12 -10z m-2880 -34 c18 -34 23 -37 51 -33 21 4 42 -1 62 -13 49
-30 131 -50 204 -50 64 0 68 -1 67 -22 -1 -17 -2 -19 -6 -5 -2 9 -11 17 -20
17 -12 0 -13 -3 -4 -14 8 -9 8 -16 2 -20 -5 -4 -13 -2 -16 4 -4 7 -29 9 -61 6
-36 -3 -52 -1 -48 6 4 6 -1 8 -12 4 -11 -3 -31 1 -46 8 -25 13 -26 13 -16 -3
12 -19 81 -47 135 -55 17 -2 36 -7 42 -10 5 -4 12 -2 15 3 6 9 46 4 46 -6 0
-3 -10 -13 -22 -24 l-23 -18 25 -1 c14 0 49 3 78 7 43 5 52 9 47 22 -4 13 -3
13 8 -1 11 -13 16 -15 25 -6 14 14 16 1 6 -26 -8 -21 -22 -20 -27 2 -4 16 -4
16 -11 0 -5 -11 -2 -23 8 -33 9 -9 16 -21 16 -26 0 -20 -21 -49 -36 -49 -9 0
-13 5 -9 13 4 6 -3 1 -14 -13 -11 -14 -21 -20 -21 -14 0 6 -16 11 -35 12 -20
1 -33 -3 -30 -7 3 -5 -4 -7 -16 -4 -11 3 -24 15 -28 26 -7 18 -8 19 -14 3 -4
-11 -16 -17 -29 -15 -26 2 -60 -10 -70 -24 -4 -6 -13 -4 -23 6 -20 21 -29 22
-21 2 3 -8 1 -15 -4 -15 -6 0 -10 7 -10 16 0 14 -3 14 -15 4 -9 -7 -18 -10
-22 -6 -3 3 -1 6 7 6 10 0 10 3 0 15 -10 12 -10 15 1 15 10 0 10 3 1 13 -7 6
-18 12 -24 12 -6 0 -13 6 -16 14 -3 10 0 11 9 5 9 -5 8 1 -4 19 -10 15 -16 31
-13 35 3 5 -3 16 -14 24 -12 11 -17 24 -13 37 4 17 2 20 -11 15 -12 -5 -15 -2
-10 10 4 9 -4 28 -19 46 -14 16 -28 43 -32 60 -4 17 -11 28 -16 24 -5 -3 -9
-1 -9 5 0 5 -3 17 -7 27 -12 33 21 8 42 -30z m1635 24 c0 -11 -4 -20 -10 -20
-5 0 -10 9 -10 20 0 11 5 20 10 20 6 0 10 -9 10 -20z m436 -17 c-11 -11 -19 6
-11 24 8 17 8 17 12 0 3 -10 2 -21 -1 -24z m1944 17 c0 -5 -5 -10 -11 -10 -6
0 -9 -7 -5 -15 3 -8 1 -15 -4 -15 -11 0 -13 11 -4 34 7 18 24 22 24 6z m-2406
-82 c-2 -29 -3 -57 -4 -62 0 -5 -3 -6 -7 -2 -10 10 -13 52 -7 94 8 51 22 28
18 -30z m1281 23 c3 -5 1 -12 -5 -16 -5 -3 -10 1 -10 9 0 18 6 21 15 7z
m-1119 -16 c7 -17 -12 -45 -30 -45 -6 0 -3 5 7 11 20 11 23 30 5 25 -7 -1 -10
-1 -5 1 4 3 5 9 1 14 -3 5 0 9 6 9 6 0 13 -7 16 -15z m-1116 -5 c27 -14 14
-43 -16 -37 -20 3 -22 1 -13 -14 7 -14 6 -19 -2 -19 -7 0 -9 -3 -6 -7 8 -7
-11 -33 -24 -33 -4 0 -7 12 -6 28 1 15 -3 26 -9 25 -14 -3 -11 32 5 51 15 18
44 21 71 6z m1150 1 c0 -5 2 -16 5 -24 3 -7 -3 -24 -13 -37 -16 -20 -20 -21
-25 -7 -4 12 -2 14 10 10 14 -5 15 -1 10 30 -3 21 -2 37 4 37 5 0 9 -4 9 -9z
m2205 -41 c3 -5 1 -10 -4 -10 -6 0 -11 5 -11 10 0 6 2 10 4 10 3 0 8 -4 11
-10z m-3573 -22 c-2 -10 -14 -18 -25 -18 -21 0 -21 0 -1 16 16 13 16 15 2 10
-10 -3 -18 -1 -18 4 0 5 11 9 24 8 17 -2 22 -7 18 -20z m1642 -9 c-6 -11 -24
-2 -24 11 0 5 7 7 15 4 8 -4 12 -10 9 -15z m1896 1 c0 -5 -5 -10 -11 -10 -5 0
-7 5 -4 10 3 6 8 10 11 10 2 0 4 -4 4 -10z m-3416 -42 c-3 -4 0 -8 5 -8 15 0
14 -37 -1 -46 -7 -5 -9 -2 -6 7 7 18 -12 44 -31 44 -8 0 -16 6 -19 13 -2 7 2
10 11 6 8 -3 18 0 22 6 6 9 10 9 16 -1 4 -7 5 -17 3 -21z m1175 -16 c-4 -2 -5
-10 -2 -18 3 -8 0 -14 -6 -14 -12 0 -15 62 -4 74 5 4 10 -3 14 -16 3 -13 2
-24 -2 -26z m2508 16 c-3 -7 -5 -2 -5 12 0 14 2 19 5 13 2 -7 2 -19 0 -25z
m-2152 1 c11 -16 1 -19 -13 -3 -7 8 -8 14 -3 14 5 0 13 -5 16 -11z m-90 -19
c-7 -22 10 -28 19 -7 3 6 5 3 3 -8 -1 -11 2 -26 6 -32 13 -20 0 -15 -23 9
l-20 22 -1 -55 c-1 -61 -5 -56 -12 13 -2 26 -1 45 4 43 4 -3 10 4 14 15 3 11
9 20 11 20 3 0 2 -9 -1 -20z m705 -1 c0 -6 -4 -7 -10 -4 -5 3 -10 11 -10 16 0
6 5 7 10 4 6 -3 10 -11 10 -16z m-2250 -4 c-7 -9 -15 -13 -17 -11 -7 7 7 26
19 26 6 0 6 -6 -2 -15z m1120 5 c0 -5 -2 -10 -4 -10 -3 0 -8 5 -11 10 -3 6 -1
10 4 10 6 0 11 -4 11 -10z m1068 -15 c-3 -3 -9 2 -12 12 -6 14 -5 15 5 6 7 -7
10 -15 7 -18z m217 6 c-3 -6 -11 -11 -16 -11 -5 0 -4 6 3 14 14 16 24 13 13
-3z m202 -3 c-3 -8 -6 -5 -6 6 -1 11 2 17 5 13 3 -3 4 -12 1 -19z m1130 16
c-3 -3 -12 -4 -19 -1 -8 3 -5 6 6 6 11 1 17 -2 13 -5z m-321 -23 c0 -12 -6
-17 -18 -13 -21 5 -24 18 -5 25 20 9 23 8 23 -12z m-1742 -13 c-10 -13 -20
-25 -21 -27 -2 -2 -3 1 -3 7 0 11 27 42 37 42 3 0 -2 -10 -13 -22z m1822 -3
c-8 -8 -18 -15 -22 -15 -3 0 -1 7 6 15 7 8 17 15 22 15 5 0 3 -7 -6 -15z m219
-15 c8 0 15 6 16 13 0 9 2 9 6 0 2 -7 -1 -18 -8 -26 -11 -11 -16 -10 -31 5
-10 10 -18 24 -18 31 0 6 5 4 11 -5 5 -10 17 -18 24 -18z m56 -1 c-9 -22 -10
-22 -10 -3 -1 11 2 24 6 27 12 12 14 0 4 -24z m-2598 14 c-7 -2 -19 -2 -25 0
-7 3 -2 5 12 5 14 0 19 -2 13 -5z m1224 -9 c-3 -3 -12 -4 -19 -1 -8 3 -5 6 6
6 11 1 17 -2 13 -5z m-2282 -22 c-3 -3 -11 0 -18 7 -9 10 -8 11 6 5 10 -3 15
-9 12 -12z m1595 -23 c0 -7 -6 -4 -15 7 -19 25 -19 40 0 20 8 -8 15 -20 15
-27z m1410 31 c0 -5 -4 -10 -10 -10 -5 0 -10 5 -10 10 0 6 5 10 10 10 6 0 10
-4 10 -10z m182 -26 c-8 -14 -9 -13 -9 10 0 18 3 24 9 18 7 -7 7 -16 0 -28z
m108 26 c0 -5 -5 -10 -11 -10 -5 0 -8 -4 -5 -8 2 -4 1 -14 -5 -22 -7 -13 -9
-12 -9 2 0 23 11 48 21 48 5 0 9 -4 9 -10z m-1079 -26 c13 -14 17 -23 9 -19
-13 5 -46 45 -37 45 2 0 14 -11 28 -26z m-1221 6 c0 -5 -5 -10 -11 -10 -5 0
-7 5 -4 10 3 6 8 10 11 10 2 0 4 -4 4 -10z m497 -22 c-3 -7 -5 -2 -5 12 0 14
2 19 5 13 2 -7 2 -19 0 -25z m961 16 c-9 -9 -22 -14 -30 -11 -8 3 -4 8 12 15
35 15 37 14 18 -4z m905 -4 c-6 -24 -19 -26 -27 -4 -3 8 -2 12 3 9 5 -3 12 -1
16 5 10 16 14 12 8 -10z m210 -31 c-6 -6 -10 1 -10 23 0 30 1 30 10 10 7 -15
7 -26 0 -33z m-2433 37 c0 -2 -7 -6 -15 -10 -8 -3 -15 -1 -15 4 0 6 7 10 15
10 8 0 15 -2 15 -4z m324 -8 c-3 -4 -11 -5 -19 -1 -21 7 -19 12 4 10 11 0 18
-5 15 -9z m86 2 c0 -13 -11 -13 -30 0 -12 8 -11 10 8 10 12 0 22 -4 22 -10z
m840 4 c0 -8 -19 -13 -24 -6 -3 5 1 9 9 9 8 0 15 -2 15 -3z m1149 -17 c0 -9
-2 -8 -6 1 -2 6 -10 9 -15 6 -7 -4 -8 -2 -4 5 9 13 26 5 25 -12z m111 13 c0
-5 -2 -10 -4 -10 -3 0 -8 5 -11 10 -3 6 -1 10 4 10 6 0 11 -4 11 -10z m-1369
-23 c-10 -9 -11 -8 -5 6 3 10 9 15 12 12 3 -3 0 -11 -7 -18z m670 0 c-10 -9
-11 -8 -5 6 3 10 9 15 12 12 3 -3 0 -11 -7 -18z m363 7 c3 -8 2 -12 -4 -9 -6
3 -10 10 -10 16 0 14 7 11 14 -7z m511 6 c13 -6 15 -9 5 -9 -8 0 -22 4 -30 9
-18 12 -2 12 25 0z m161 -5 c4 -8 10 -12 15 -9 5 3 9 1 9 -4 0 -5 -11 -12 -25
-14 -14 -3 -25 -1 -25 3 0 5 5 9 11 9 8 0 8 5 -1 15 -9 11 -9 15 -1 15 6 0 14
-7 17 -15z m54 5 c0 -5 -2 -10 -4 -10 -3 0 -8 5 -11 10 -3 6 -1 10 4 10 6 0
11 -4 11 -10z m-2985 -38 c-6 -7 -34 11 -29 19 3 5 11 3 19 -4 7 -6 12 -13 10
-15z m1268 13 c-3 -9 -8 -14 -10 -11 -3 3 -2 9 2 15 9 16 15 13 8 -4z m667 11
c0 -3 -4 -8 -10 -11 -5 -3 -10 -1 -10 4 0 6 5 11 10 11 6 0 10 -2 10 -4z m198
-21 c-3 -3 -9 2 -12 12 -6 14 -5 15 5 6 7 -7 10 -15 7 -18z m-800 3 c-2 -6
-10 -14 -16 -16 -7 -2 -10 2 -6 12 7 18 28 22 22 4z m1133 -21 c-8 -8 -11 -7
-11 4 0 20 13 34 18 19 3 -7 -1 -17 -7 -23z m-2556 13 c3 -5 1 -10 -4 -10 -6
0 -11 5 -11 10 0 6 2 10 4 10 3 0 8 -4 11 -10z m2100 0 c3 -5 1 -10 -4 -10 -6
0 -11 5 -11 10 0 6 2 10 4 10 3 0 8 -4 11 -10z m535 0 c0 -5 -4 -10 -10 -10
-5 0 -10 5 -10 10 0 6 5 10 10 10 6 0 10 -4 10 -10z m-2505 -10 c-3 -5 -10
-10 -16 -10 -5 0 -9 5 -9 10 0 6 7 10 16 10 8 0 12 -4 9 -10z m298 -18 c-3
-12 -12 -22 -19 -22 -18 0 -18 9 3 32 20 22 24 19 16 -10z m101 11 c-6 -2 -8
-18 -6 -36 l4 -32 -25 30 c-15 16 -24 32 -20 35 3 3 8 -1 10 -7 3 -7 10 -13
16 -13 5 0 7 3 4 7 -4 3 -2 12 5 20 6 7 14 11 17 7 3 -4 1 -8 -5 -11z m2346 7
c0 -5 -5 -10 -11 -10 -5 0 -7 5 -4 10 3 6 8 10 11 10 2 0 4 -4 4 -10z m-2315
-10 c3 -5 1 -10 -4 -10 -6 0 -11 5 -11 10 0 6 2 10 4 10 3 0 8 -4 11 -10z
m1005 6 c0 -3 -4 -8 -10 -11 -5 -3 -10 -1 -10 4 0 6 5 11 10 11 6 0 10 -2 10
-4z m1017 -18 c-3 -8 -6 -5 -6 6 -1 11 2 17 5 13 3 -3 4 -12 1 -19z m358 12
c-3 -5 -10 -10 -16 -10 -5 0 -9 5 -9 10 0 6 7 10 16 10 8 0 12 -4 9 -10z
m-2723 -22 c-7 -7 -12 -8 -12 -2 0 6 3 14 7 17 3 4 9 5 12 2 2 -3 -1 -11 -7
-17z m1215 -10 c-3 -7 -5 -2 -5 12 0 14 2 19 5 13 2 -7 2 -19 0 -25z m943 22
c0 -5 -2 -10 -4 -10 -3 0 -8 5 -11 10 -3 6 -1 10 4 10 6 0 11 -4 11 -10z
m-2313 -12 c-2 -7 3 -18 11 -24 13 -9 9 -11 -16 -10 -37 1 -37 1 -14 25 21 23
25 25 19 9z m33 8 c0 -3 -4 -8 -10 -11 -5 -3 -10 -1 -10 4 0 6 5 11 10 11 6 0
10 -2 10 -4z m1497 -33 c-3 -10 -5 -4 -5 12 0 17 2 24 5 18 2 -7 2 -21 0 -30z
m508 27 c3 -6 -1 -7 -9 -4 -18 7 -21 14 -7 14 6 0 13 -4 16 -10z m-3455 -16
c0 -2 -7 -4 -15 -4 -8 0 -15 4 -15 10 0 5 7 7 15 4 8 -4 15 -8 15 -10z m2440
6 c0 -5 -4 -10 -10 -10 -5 0 -10 5 -10 10 0 6 5 10 10 10 6 0 10 -4 10 -10z
m1100 0 c0 -5 -8 -10 -17 -10 -15 0 -16 2 -3 10 19 12 20 12 20 0z m-490 -10
c0 -5 -4 -10 -10 -10 -5 0 -10 5 -10 10 0 6 5 10 10 10 6 0 10 -4 10 -10z
m-1587 -31 c-9 -9 -12 -7 -10 9 1 14 5 18 11 12 7 -7 6 -14 -1 -21z m124 9
c-3 -8 -6 -5 -6 6 -1 11 2 17 5 13 3 -3 4 -12 1 -19z m340 0 c-3 -8 -6 -5 -6
6 -1 11 2 17 5 13 3 -3 4 -12 1 -19z m-360 -10 c-3 -8 -6 -5 -6 6 -1 11 2 17
5 13 3 -3 4 -12 1 -19z m1967 -3 c-4 -8 -8 -15 -10 -15 -2 0 -4 7 -4 15 0 8 4
15 10 15 5 0 7 -7 4 -15z m-1234 1 c0 -2 -8 -10 -17 -17 -16 -13 -17 -12 -4 4
13 16 21 21 21 13z m1336 -11 c9 -8 11 -15 6 -15 -5 0 -15 7 -22 15 -7 8 -9
15 -6 15 4 0 14 -7 22 -15z m-2146 -22 c0 -9 8 -22 18 -30 16 -13 16 -14 -3
-11 -13 2 -21 14 -26 35 -3 18 -2 30 2 27 5 -3 9 -12 9 -21z m460 17 c0 -5 -2
-10 -4 -10 -3 0 -8 5 -11 10 -3 6 -1 10 4 10 6 0 11 -4 11 -10z m1655 0 c3 -6
-1 -7 -9 -4 -18 7 -21 14 -7 14 6 0 13 -4 16 -10z m-1694 -31 c-9 -22 -10 -22
-10 -3 -1 11 2 24 6 27 12 12 14 0 4 -24z m329 21 c0 -5 -5 -10 -11 -10 -5 0
-7 5 -4 10 3 6 8 10 11 10 2 0 4 -4 4 -10z m130 6 c0 -3 -4 -8 -10 -11 -5 -3
-10 -1 -10 4 0 6 5 11 10 11 6 0 10 -2 10 -4z m-778 -50 c12 -16 13 -27 6 -37
-8 -11 -9 -10 -4 4 3 11 -2 22 -14 29 -11 7 -20 16 -20 20 0 15 15 7 32 -16z
m78 5 c0 -3 -10 -12 -22 -20 -16 -9 -19 -9 -11 -1 6 7 9 19 6 26 -4 10 0 12
11 8 9 -3 16 -9 16 -13z m130 10 c0 -5 -7 -11 -14 -14 -10 -4 -13 -1 -9 9 6
15 23 19 23 5z m80 -5 c0 -3 -4 -8 -10 -11 -5 -3 -10 -1 -10 4 0 6 5 11 10 11
6 0 10 -2 10 -4z m1790 -8 c0 -7 -4 -19 -9 -27 -7 -10 -9 -7 -8 12 2 26 17 39
17 15z m-1985 -28 c3 -5 -1 -10 -9 -10 -9 0 -16 5 -16 10 0 6 4 10 9 10 6 0
13 -4 16 -10z m-1508 -12 c12 -15 38 -90 35 -101 -1 -4 4 -6 11 -5 6 2 11 -5
9 -14 -2 -10 3 -18 10 -18 11 0 11 -2 0 -9 -10 -6 -5 -20 23 -62 19 -30 38
-62 41 -72 7 -22 78 -59 98 -51 9 3 16 2 16 -3 0 -15 -23 -33 -44 -34 -21 0
-21 0 -1 -8 34 -14 150 -4 252 23 192 49 299 97 572 257 14 8 35 25 47 39 12
14 26 22 30 17 11 -10 -79 -94 -151 -141 -33 -21 -69 -47 -80 -56 -11 -9 -40
-25 -65 -35 -25 -11 -48 -25 -53 -32 -4 -7 -14 -10 -21 -7 -7 3 -22 -3 -31
-13 -10 -10 -20 -17 -22 -16 -1 1 -8 1 -15 -2 -61 -20 -139 -44 -166 -49 -17
-4 -32 -12 -32 -18 0 -5 -10 -8 -22 -7 -31 3 -97 -11 -104 -22 -3 -5 -9 -7
-13 -4 -5 2 -41 9 -82 16 -41 6 -80 16 -86 21 -7 6 -13 8 -13 4 0 -10 -59 23
-105 57 -96 72 -177 185 -149 206 5 3 9 39 9 78 l0 73 46 0 c26 0 51 -6 56
-12z m1367 -22 c-4 -18 3 -28 35 -49 47 -31 53 -33 45 -12 -5 11 -2 13 10 9
12 -5 14 -10 6 -19 -7 -9 -6 -16 5 -25 9 -7 18 -10 21 -7 3 3 17 -6 30 -20 12
-13 28 -22 33 -18 7 3 8 0 5 -9 -4 -11 0 -16 10 -16 9 0 15 5 14 12 -2 6 6 14
16 16 19 4 19 3 2 -13 -16 -16 -16 -19 -2 -33 13 -13 17 -13 33 -1 16 13 17
12 5 -3 -10 -13 -10 -17 0 -21 7 -2 11 -7 8 -10 -3 -3 -30 12 -60 33 -30 21
-89 62 -132 90 -86 57 -101 72 -105 106 -3 18 0 22 12 18 10 -4 13 -14 9 -28z
m1960 12 c-10 -13 -20 -25 -21 -27 -2 -2 -3 1 -3 7 0 11 27 42 37 42 3 0 -2
-10 -13 -22z m-374 9 c0 -2 -10 -12 -22 -23 l-23 -19 19 23 c18 21 26 27 26
19z m-1546 -15 c3 -5 -1 -9 -9 -9 -8 0 -15 4 -15 9 0 4 4 8 9 8 6 0 12 -4 15
-8z m71 -2 c3 -5 2 -10 -4 -10 -5 0 -13 5 -16 10 -3 6 -2 10 4 10 5 0 13 -4
16 -10z m145 0 c0 -5 -4 -10 -10 -10 -5 0 -10 5 -10 10 0 6 5 10 10 10 6 0 10
-4 10 -10z m206 -17 c-10 -10 -19 5 -10 18 6 11 8 11 12 0 2 -7 1 -15 -2 -18z
m-112 -9 c3 -8 2 -12 -4 -9 -6 3 -10 10 -10 16 0 14 7 11 14 -7z m1146 6 c0
-5 -5 -10 -11 -10 -5 0 -7 5 -4 10 3 6 8 10 11 10 2 0 4 -4 4 -10z m617 -22
c-3 -7 -5 -2 -5 12 0 14 2 19 5 13 2 -7 2 -19 0 -25z m-1792 12 c3 -5 1 -10
-4 -10 -6 0 -11 5 -11 10 0 6 2 10 4 10 3 0 8 -4 11 -10z m-82 -37 c-4 -10 -9
-11 -19 -2 -18 15 -18 15 5 15 11 0 17 -5 14 -13z m87 7 c0 -5 -2 -10 -4 -10
-3 0 -8 5 -11 10 -3 6 -1 10 4 10 6 0 11 -4 11 -10z m160 -4 c0 -2 -8 -10 -17
-17 -16 -13 -17 -12 -4 4 13 16 21 21 21 13z m60 -6 c0 -5 -4 -10 -10 -10 -5
0 -10 5 -10 10 0 6 5 10 10 10 6 0 10 -4 10 -10z m-235 -20 c3 -5 -1 -10 -9
-10 -9 0 -16 5 -16 10 0 6 4 10 9 10 6 0 13 -4 16 -10z m205 6 c0 -3 -4 -8
-10 -11 -5 -3 -10 -1 -10 4 0 6 5 11 10 11 6 0 10 -2 10 -4z m1365 -6 c3 -5 1
-10 -4 -10 -6 0 -11 5 -11 10 0 6 2 10 4 10 3 0 8 -4 11 -10z m-1645 -30 c0
-5 -5 -10 -11 -10 -5 0 -7 5 -4 10 3 6 8 10 11 10 2 0 4 -4 4 -10z m-843 -16
c-3 -3 -12 -4 -19 -1 -8 3 -5 6 6 6 11 1 17 -2 13 -5z m1033 -16 c0 -4 -9 -8
-21 -8 -11 0 -18 4 -15 8 3 5 12 9 21 9 8 0 15 -4 15 -9z m24 -23 c-10 -8 -23
-14 -29 -14 -5 0 -1 6 9 14 11 8 24 15 30 15 5 0 1 -7 -10 -15z m1548 -17 c-8
-8 -9 -4 -5 13 4 13 8 18 11 10 2 -7 -1 -18 -6 -23z m-3255 -10 c-3 -8 -6 -5
-6 6 -1 11 2 17 5 13 3 -3 4 -12 1 -19z m660 16 c-3 -3 -12 -4 -19 -1 -8 3 -5
6 6 6 11 1 17 -2 13 -5z m1343 -4 c0 -5 -2 -10 -4 -10 -3 0 -8 5 -11 10 -3 6
-1 10 4 10 6 0 11 -4 11 -10z m82 -22 c-7 -7 -12 -8 -12 -2 0 14 12 26 19 19
2 -3 -1 -11 -7 -17z m-97 2 c3 -6 -1 -7 -9 -4 -18 7 -21 14 -7 14 6 0 13 -4
16 -10z m520 0 c-3 -5 -12 -10 -18 -10 -7 0 -6 4 3 10 19 12 23 12 15 0z m19
-21 c-3 -6 -1 -15 5 -19 9 -5 9 -10 -1 -18 -11 -9 -14 -6 -12 16 2 31 2 32 10
32 3 0 2 -5 -2 -11z m-895 -34 c39 -19 71 -37 71 -40 0 -6 -87 34 -124 56 -48
30 -25 22 53 -16z m61 26 c0 -5 10 -7 23 -4 19 4 19 3 5 -6 -9 -6 -23 -8 -32
-5 -18 7 -22 24 -6 24 6 0 10 -4 10 -9z m1420 -21 c0 -5 -5 -10 -11 -10 -5 0
-7 5 -4 10 3 6 8 10 11 10 2 0 4 -4 4 -10z m-506 -16 c3 -8 2 -12 -4 -9 -6 3
-10 10 -10 16 0 14 7 11 14 -7z m646 -9 c0 -8 -4 -15 -10 -15 -5 0 -7 7 -4 15
4 8 8 15 10 15 2 0 4 -7 4 -15z m-785 -13 c-3 -3 -11 0 -18 7 -9 10 -8 11 6 5
10 -3 15 -9 12 -12z m-690 -32 c3 -5 1 -10 -4 -10 -6 0 -11 5 -11 10 0 6 2 10
4 10 3 0 8 -4 11 -10z m-1610 -10 c-3 -5 -13 -10 -21 -10 -8 0 -14 5 -14 10 0
6 9 10 21 10 11 0 17 -4 14 -10z m3058 -20 c-6 -23 -33 -49 -33 -31 0 6 5 11
10 11 6 0 9 3 9 8 -4 21 2 42 10 38 5 -3 7 -15 4 -26z m-1159 -6 c5 -14 4 -15
-9 -4 -17 14 -19 20 -6 20 5 0 12 -7 15 -16z m-139 -22 c-3 -3 -11 0 -18 7 -9
10 -8 11 6 5 10 -3 15 -9 12 -12z m188 -29 c-7 -2 -19 -2 -25 0 -7 3 -2 5 12
5 14 0 19 -2 13 -5z m351 -49 c3 -8 2 -12 -4 -9 -6 3 -10 10 -10 16 0 14 7 11
14 -7z m26 -54 c8 -5 11 -10 5 -10 -5 0 -17 5 -25 10 -8 5 -10 10 -5 10 6 0
17 -5 25 -10z m111 -57 c13 -15 12 -15 -8 -4 -24 12 -29 21 -14 21 5 0 15 -7
22 -17z m65 -34 c8 -14 -10 -11 -32 6 -18 13 -18 14 4 8 12 -3 25 -9 28 -14z
m453 -453 c-2 -2 -13 8 -23 22 l-19 27 24 -22 c12 -12 21 -24 18 -27z m-424
-406 c10 -11 16 -20 13 -20 -3 0 -13 9 -23 20 -10 11 -16 20 -13 20 3 0 13 -9
23 -20z"/>
<path d="M3245 3740 c3 -5 8 -10 11 -10 2 0 4 5 4 10 0 6 -5 10 -11 10 -5 0
-7 -4 -4 -10z"/>
<path d="M4460 3806 c0 -22 3 -27 11 -19 8 8 8 16 0 30 -9 16 -10 14 -11 -11z"/>
<path d="M4330 3751 c0 -5 7 -11 14 -14 10 -4 13 -1 9 9 -6 15 -23 19 -23 5z"/>
<path d="M4370 3750 c0 -5 5 -10 10 -10 6 0 10 5 10 10 0 6 -4 10 -10 10 -5 0
-10 -4 -10 -10z"/>
<path d="M3920 3700 c0 -8 60 -23 67 -17 1 2 -13 8 -32 14 -19 6 -35 8 -35 3z"/>
<path d="M4015 3640 c11 -5 27 -9 35 -9 13 -1 13 0 0 9 -8 5 -24 9 -35 9 l-20
0 20 -9z"/>
<path d="M5205 3710 c-3 -5 -1 -10 4 -10 6 0 11 5 11 10 0 6 -2 10 -4 10 -3 0
-8 -4 -11 -10z"/>
<path d="M5220 3170 c0 -5 5 -10 10 -10 6 0 10 5 10 10 0 6 -4 10 -10 10 -5 0
-10 -4 -10 -10z"/>
<path d="M5162 3108 c-1 -29 0 -30 16 -13 13 13 14 19 4 22 -6 3 -10 9 -6 14
3 5 1 9 -4 9 -5 0 -9 -14 -10 -32z"/>
<path d="M5070 3110 c0 -5 5 -10 11 -10 5 0 7 5 4 10 -3 6 -8 10 -11 10 -2 0
-4 -4 -4 -10z"/>
<path d="M5308 3099 c-10 -10 -18 -21 -18 -24 0 -9 49 29 50 38 0 12 -14 6
-32 -14z"/>
<path d="M5200 3085 c0 -8 4 -15 10 -15 5 0 7 7 4 15 -4 8 -8 15 -10 15 -2 0
-4 -7 -4 -15z"/>
<path d="M5075 3080 c3 -5 8 -10 11 -10 2 0 4 5 4 10 0 6 -5 10 -11 10 -5 0
-7 -4 -4 -10z"/>
<path d="M5235 3060 c-3 -5 -1 -10 4 -10 6 0 11 5 11 10 0 6 -2 10 -4 10 -3 0
-8 -4 -11 -10z"/>
<path d="M5207 3027 c-3 -7 3 -13 14 -13 13 0 15 3 7 13 -6 7 -12 13 -13 13
-2 0 -5 -6 -8 -13z"/>
<path d="M5367 2996 c-4 -10 -5 -21 -2 -24 9 -9 17 6 13 25 -3 17 -4 17 -11
-1z"/>
<path d="M5305 2960 c3 -5 8 -10 11 -10 2 0 4 5 4 10 0 6 -5 10 -11 10 -5 0
-7 -4 -4 -10z"/>
<path d="M5303 2923 c-18 -7 -16 -23 2 -23 8 0 15 7 15 15 0 8 -1 15 -2 14 -2
0 -9 -3 -15 -6z"/>
<path d="M5000 2909 c0 -5 5 -7 10 -4 6 3 10 8 10 11 0 2 -4 4 -10 4 -5 0 -10
-5 -10 -11z"/>
<path d="M5220 2895 c0 -16 22 -35 40 -34 13 0 13 1 0 6 -8 4 -20 13 -27 22
-7 9 -13 11 -13 6z"/>
<path d="M5190 2870 c0 -5 5 -10 10 -10 6 0 10 5 10 10 0 6 -4 10 -10 10 -5 0
-10 -4 -10 -10z"/>
<path d="M5190 2780 c-8 -14 -8 -20 0 -20 6 0 8 -4 5 -10 -3 -5 -2 -10 3 -10
5 0 9 14 10 30 1 35 -3 37 -18 10z"/>
<path d="M5140 2770 c0 -5 5 -10 11 -10 5 0 7 5 4 10 -3 6 -8 10 -11 10 -2 0
-4 -4 -4 -10z"/>
<path d="M3536 3092 c-2 -4 -1 -14 5 -22 6 -10 9 -11 9 -2 0 6 8 12 18 12 14
0 15 2 2 10 -18 12 -27 12 -34 2z"/>
<path d="M3580 2850 c-8 -5 -10 -10 -5 -10 6 0 17 5 25 10 8 5 11 10 5 10 -5
0 -17 -5 -25 -10z"/>
<path d="M3638 2843 c-21 -5 -24 -23 -4 -23 8 0 16 7 20 15 3 8 4 14 3 14 -1
-1 -10 -3 -19 -6z"/>
<path d="M3670 2830 c-12 -8 -9 -10 13 -10 16 0 26 4 22 10 -8 12 -16 12 -35
0z"/>
<path d="M3580 2720 c-8 -5 -12 -12 -9 -15 8 -8 39 5 39 16 0 11 -11 11 -30
-1z"/>
<path d="M3815 2250 c-3 -5 -1 -10 4 -10 6 0 11 5 11 10 0 6 -2 10 -4 10 -3 0
-8 -4 -11 -10z"/>
<path d="M3850 2160 c8 -5 22 -10 30 -10 13 0 13 1 0 10 -8 5 -22 10 -30 10
-13 0 -13 -1 0 -10z"/>
</g>
</svg>
