<?xml version="1.0" standalone="no"?>
<!DOCTYPE svg PUBLIC "-//W3C//DTD SVG 20010904//EN"
 "http://www.w3.org/TR/2001/REC-SVG-20010904/DTD/svg10.dtd">
<svg version="1.0" xmlns="http://www.w3.org/2000/svg"
 width="550.000000pt" height="740.000000pt" viewBox="0 0 550.000000 740.000000"
 preserveAspectRatio="xMidYMid meet">

<g transform="translate(0.000000,740.000000) scale(0.100000,-0.100000)"
fill="#000000" stroke="none">
<path d="M6 7393 c-3 -4 -6 -19 -6 -34 0 -26 2 -27 34 -22 31 5 33 3 40 -27
13 -67 0 -77 -48 -39 l-26 20 0 -25 c0 -27 9 -31 62 -27 24 2 28 -2 28 -23 0
-38 19 -42 31 -6 11 29 12 30 29 15 17 -15 21 -15 49 -1 38 20 39 20 43 -6 3
-25 -3 -24 128 -13 l55 5 -45 -22 c-32 -17 -44 -28 -42 -41 5 -30 -16 -48 -39
-34 -15 9 -23 9 -39 -1 -11 -7 -20 -8 -20 -3 0 6 -12 6 -30 0 -16 -6 -30 -15
-30 -19 0 -5 -10 -11 -22 -13 -13 -2 -8 -3 10 -1 43 4 72 -14 72 -44 0 -13 4
-20 10 -17 5 3 10 14 10 25 0 22 23 32 55 24 12 -3 36 1 51 9 26 13 32 12 58
-4 36 -22 59 -10 47 24 -6 16 -17 21 -50 22 -22 1 -47 7 -54 14 -10 11 -8 13
11 8 16 -4 30 1 43 16 46 51 52 56 60 51 5 -3 9 -23 9 -44 0 -54 9 -74 26 -59
8 6 14 19 14 29 0 33 32 58 68 53 27 -4 32 -2 32 14 0 10 -5 24 -12 31 -9 9
-8 12 5 12 9 0 17 -4 17 -10 0 -5 7 -7 15 -4 8 4 15 2 15 -4 0 -5 -7 -12 -15
-16 -22 -8 -19 -60 5 -81 19 -17 20 -33 5 -68 -7 -16 -15 -18 -54 -11 -25 4
-54 7 -64 6 -10 0 -21 6 -24 14 -9 24 -23 15 -23 -15 0 -35 17 -43 74 -35 26
3 42 0 48 -8 6 -11 10 -10 17 1 6 10 10 10 16 1 4 -6 2 -17 -4 -23 -14 -14
-14 -37 -1 -37 6 0 10 7 10 15 0 8 6 15 14 15 8 0 18 9 21 20 9 28 55 27 62
-1 5 -16 11 -19 32 -14 14 4 28 8 30 11 9 8 -43 44 -64 44 -11 0 -30 7 -41 15
-16 13 -17 16 -4 25 13 9 13 12 -2 20 -15 9 -15 13 -1 50 23 58 49 52 45 -10
-1 -22 17 -50 33 -50 7 0 15 -4 17 -10 2 -6 14 -6 33 -1 l30 8 -30 8 c-50 11
-55 14 -55 27 0 7 10 18 23 23 13 6 23 21 25 37 2 16 11 30 23 33 11 4 27 19
36 33 9 15 18 29 20 31 2 3 20 -12 39 -33 20 -21 32 -41 27 -45 -21 -14 -22
-41 -2 -51 16 -9 21 -7 28 12 5 13 6 28 4 35 -3 6 3 23 13 38 17 25 17 28 1
37 -20 11 -23 48 -3 48 36 0 53 -80 22 -103 -11 -8 -16 -19 -12 -26 6 -9 17
-5 42 14 37 28 42 23 19 -21 -8 -16 -15 -37 -15 -47 0 -21 -45 -40 -77 -32
-21 5 -22 3 -12 -12 8 -14 21 -17 59 -15 44 4 49 6 52 30 2 19 10 28 26 30 16
3 22 10 22 28 0 13 5 24 10 24 6 0 10 11 10 25 0 14 5 26 10 26 17 2 24 5 64
22 52 23 70 22 63 -3 -3 -10 -2 -21 2 -23 3 -2 0 -2 -8 0 -7 2 -30 -2 -50 -8
-28 -8 -41 -20 -54 -48 -10 -20 -26 -51 -37 -68 -20 -33 -20 -33 1 -33 30 0
69 30 69 54 0 47 50 74 86 48 22 -17 23 -11 -17 -97 -8 -16 -24 -34 -36 -40
-11 -6 -27 -16 -34 -22 -8 -6 -38 -14 -66 -18 -47 -6 -53 -9 -53 -31 0 -13 -4
-24 -9 -24 -5 0 -11 -12 -13 -27 -4 -36 -25 -40 -39 -9 -13 27 -39 36 -39 14
0 -20 59 -78 78 -78 11 0 13 -3 5 -8 -6 -4 -15 -23 -21 -42 -5 -20 -15 -34
-22 -32 -9 2 -11 -7 -6 -35 11 -61 10 -95 -4 -103 -7 -4 -19 -41 -27 -81 -7
-41 -18 -75 -23 -77 -5 -2 -20 -12 -32 -21 l-22 -18 22 -12 c22 -12 31 -41 12
-41 -5 0 -10 -9 -10 -21 0 -11 5 -17 10 -14 12 8 12 7 1 -31 -8 -27 -5 -33 20
-53 25 -20 28 -28 24 -64 -2 -23 1 -48 8 -55 8 -10 7 -16 -3 -22 -7 -4 -12
-23 -12 -41 1 -19 1 -44 2 -56 0 -13 4 -23 9 -23 5 0 9 -22 9 -50 0 -37 -4
-50 -15 -50 -10 0 -13 -10 -9 -39 4 -32 1 -40 -15 -44 -15 -4 -19 -14 -19 -46
0 -23 -4 -41 -9 -41 -4 0 -6 -11 -4 -25 3 -14 -3 -38 -16 -58 -21 -35 -36
-133 -23 -154 4 -5 14 -13 22 -17 8 -3 3 -4 -12 -1 -20 4 -28 1 -28 -9 0 -8 6
-16 13 -19 9 -3 9 -9 -1 -27 -9 -15 -10 -26 -4 -32 14 -14 32 -1 32 23 0 10 5
19 10 19 19 0 10 -31 -15 -54 -14 -13 -25 -33 -25 -45 0 -30 16 -26 28 7 l10
27 1 -25 c0 -14 -19 -54 -44 -90 -42 -63 -43 -65 -22 -71 16 -4 25 1 35 19 11
19 11 26 2 32 -8 5 -7 9 4 13 20 8 28 -6 21 -36 -4 -13 0 -85 8 -158 9 -74 15
-168 14 -209 -1 -75 20 -158 47 -190 34 -39 86 -122 106 -168 12 -28 30 -58
40 -67 18 -16 19 -16 25 6 3 13 7 69 9 124 2 55 13 150 25 210 11 61 20 129
21 152 0 24 5 62 12 86 16 60 -11 214 -42 237 -20 15 -20 18 -5 59 8 24 15 52
15 61 0 10 5 20 12 22 6 2 17 24 24 48 11 38 11 48 -1 67 -10 15 -11 24 -4 28
18 12 31 57 19 69 -17 17 -11 44 11 51 15 5 19 13 16 27 -3 11 -2 28 3 37 5 9
11 23 15 31 8 21 29 55 42 72 6 7 14 31 16 53 7 54 20 86 46 109 11 11 21 24
21 30 1 16 36 56 49 56 6 0 11 4 11 10 0 5 18 28 41 52 33 34 42 40 50 28 7
-12 10 -11 15 6 4 14 19 24 49 32 29 8 50 22 65 42 17 24 25 28 36 20 16 -14
37 -3 30 16 -7 19 14 18 29 -3 8 -10 17 -13 26 -7 22 13 62 4 89 -21 14 -13
45 -29 70 -36 25 -7 49 -16 54 -21 6 -4 25 -8 43 -8 21 0 36 -6 40 -15 3 -9
18 -22 34 -31 16 -8 29 -20 29 -28 0 -7 19 -19 43 -26 23 -8 45 -18 48 -23 3
-4 28 -10 54 -13 27 -2 64 -8 82 -13 27 -8 44 -6 81 10 25 11 52 29 59 39 8
11 20 20 27 20 7 0 32 9 55 21 30 14 46 17 51 10 3 -6 17 -13 30 -16 25 -5 52
-25 88 -65 21 -23 24 -24 36 -7 20 25 36 21 36 -10 0 -16 9 -47 20 -70 l19
-42 49 6 c52 6 55 3 110 -94 15 -27 36 -21 27 8 -4 13 -2 19 8 19 17 0 27 -21
27 -59 0 -15 3 -30 6 -34 8 -7 54 13 54 25 0 10 11 10 30 -2 12 -7 12 -12 -4
-29 -18 -19 -18 -21 -2 -21 10 0 14 -5 11 -11 -5 -7 -12 -6 -23 4 -20 16 -52
11 -52 -7 0 -20 50 -61 71 -58 20 3 19 -8 -3 -55 -9 -18 -6 -27 15 -52 16 -19
28 -49 32 -82 5 -35 15 -59 31 -74 13 -12 28 -34 33 -49 6 -14 21 -31 33 -36
19 -7 20 -9 4 -9 -14 -1 -17 -6 -12 -24 7 -28 -7 -48 -51 -73 -32 -18 -33 -18
-53 4 -12 12 -25 22 -30 22 -15 0 -24 -50 -11 -63 16 -16 14 -27 -6 -27 -10 0
-28 12 -40 28 -20 24 -24 25 -35 12 -20 -25 -85 -39 -193 -44 -158 -8 -381
-60 -413 -97 -9 -10 -22 -19 -29 -19 -10 0 -11 -8 -6 -27 4 -16 7 -37 7 -48 1
-11 6 -24 13 -30 14 -12 32 -77 38 -142 2 -26 7 -58 11 -70 4 -14 2 -23 -5
-23 -16 0 -3 -52 17 -67 15 -13 14 -13 -56 -38 -13 -5 -7 -50 10 -72 14 -18
23 -133 10 -133 -13 0 -62 -86 -62 -110 0 -19 -30 -50 -48 -50 -7 0 -22 -21
-35 -46 -31 -66 -50 -75 -112 -58 -96 26 -143 16 -170 -35 -13 -27 -13 -31 7
-56 16 -21 27 -26 47 -22 86 18 112 26 125 36 21 18 33 7 47 -40 15 -48 3 -67
-29 -50 -15 8 -34 8 -69 -1 -26 -6 -72 -10 -102 -10 -58 2 -86 -9 -114 -45
-10 -12 -52 -39 -93 -59 -59 -28 -74 -40 -74 -57 0 -17 -9 -25 -42 -35 -23 -7
-54 -22 -69 -33 -17 -12 -30 -16 -34 -9 -8 13 -22 5 -36 -22 -8 -14 -8 -18 0
-14 7 4 9 1 5 -7 -3 -8 -14 -17 -25 -20 -23 -6 -38 -39 -20 -45 7 -2 8 -8 3
-15 -26 -35 -33 -94 -23 -182 6 -49 11 -113 10 -142 0 -28 5 -54 11 -58 5 -3
10 -15 10 -25 0 -10 7 -23 16 -28 11 -6 15 -17 12 -29 -3 -12 0 -20 7 -20 27
0 83 -34 88 -53 4 -16 13 -20 47 -20 37 0 42 2 37 20 -6 24 5 26 23 5 7 -8 19
-15 26 -15 9 0 11 -6 7 -17 -6 -15 -5 -16 9 -3 9 8 13 20 10 25 -4 6 -7 24 -9
41 -1 26 3 32 29 40 17 5 36 18 42 29 6 10 17 25 24 33 6 7 12 19 12 27 0 7 7
16 15 19 9 3 15 11 14 18 -5 41 29 75 46 47 4 -6 13 -8 21 -5 13 5 38 -2 92
-27 29 -13 29 -29 -1 -26 -12 2 -28 0 -34 -4 -19 -12 -16 -37 5 -37 9 0 23 -4
31 -9 12 -8 13 -12 1 -26 -11 -14 -8 -20 23 -50 33 -31 41 -34 89 -32 29 1 56
6 60 12 5 6 11 6 19 -2 10 -10 9 -14 -4 -19 -25 -9 -21 -37 11 -67 36 -34 48
-34 67 3 9 18 26 32 43 36 15 3 40 12 55 21 17 9 33 11 38 6 8 -8 -34 -106
-59 -136 -8 -9 -9 -24 -2 -48 13 -46 4 -69 -31 -76 -16 -3 -29 -9 -29 -14 0
-14 -28 -11 -37 4 -4 6 -10 34 -13 62 -5 48 -6 49 -44 57 -47 10 -63 -1 -46
-32 10 -18 9 -25 -8 -41 -11 -10 -23 -27 -27 -39 -3 -11 -17 -22 -31 -25 -13
-3 -35 -7 -49 -10 -16 -4 -32 0 -41 10 -20 20 -34 11 -34 -23 -1 -23 -2 -25
-11 -9 -5 9 -19 17 -29 17 -10 0 -22 4 -25 10 -3 6 -15 10 -26 10 -10 0 -19
-4 -19 -10 0 -5 -9 -10 -20 -10 -13 0 -24 -10 -30 -25 -5 -14 -17 -28 -25 -31
-8 -4 -15 -15 -15 -26 0 -17 -3 -18 -15 -8 -11 9 -12 16 -2 31 15 24 -1 53
-32 57 -26 4 -29 -25 -4 -44 10 -7 15 -15 11 -19 -3 -4 -23 10 -43 30 -56 53
-67 57 -93 30 -12 -12 -22 -28 -22 -34 0 -20 -24 -11 -46 17 -17 21 -31 27
-61 27 -33 0 -40 4 -53 32 -14 30 -50 46 -50 23 0 -20 -20 -9 -26 14 -7 28
-46 48 -79 40 -20 -5 -23 -9 -15 -24 24 -45 100 -113 158 -140 34 -16 62 -33
62 -38 0 -5 21 -18 48 -30 50 -23 153 -102 132 -102 -7 0 -1 -9 14 -21 14 -11
30 -17 36 -14 5 3 10 2 10 -3 0 -12 46 -32 75 -32 22 0 25 -5 25 -35 0 -32 3
-35 29 -35 30 0 45 -19 35 -45 -4 -8 -12 -15 -19 -15 -6 0 -20 -9 -30 -20 -16
-18 -16 -20 -1 -26 24 -9 46 3 46 25 0 11 9 22 20 26 11 3 28 18 39 31 18 23
50 26 36 4 -3 -5 10 -12 30 -16 20 -3 35 -12 35 -20 0 -10 -7 -13 -24 -8 -13
3 -27 1 -30 -5 -7 -11 6 -15 33 -11 7 1 25 -1 38 -5 19 -4 24 -11 21 -33 -3
-23 -8 -28 -43 -32 l-40 -5 75 -36 c41 -20 95 -39 120 -43 24 -4 49 -11 55
-16 15 -12 122 -19 132 -9 5 5 38 12 73 15 63 7 108 17 297 69 84 23 285 106
307 126 6 5 16 9 23 9 23 0 167 113 230 181 46 50 63 76 68 105 3 22 15 68 25
104 11 36 25 103 31 150 12 97 26 151 63 234 14 32 26 67 26 77 0 10 11 42 24
71 14 29 41 103 61 163 20 61 40 114 45 118 4 5 24 1 45 -7 49 -21 84 -20 118
3 36 23 53 48 62 91 4 19 23 71 42 115 40 93 53 134 83 268 12 53 26 100 31
103 5 3 9 34 9 69 0 35 4 67 10 70 6 3 10 15 10 25 0 10 16 36 35 57 19 21 35
41 35 44 0 4 8 24 17 45 9 22 16 45 14 52 -1 7 7 29 18 48 11 19 18 40 15 47
-3 8 2 20 11 27 18 15 55 95 55 121 0 10 5 21 10 24 16 10 12 42 -7 49 -14 6
-14 8 -1 19 9 6 21 28 26 47 12 37 10 159 -2 179 -4 6 1 25 11 41 16 28 16 32
1 63 -9 17 -20 59 -23 92 -9 81 -73 274 -100 305 -22 24 -32 58 -40 128 -1 18
-8 39 -14 46 -6 7 -9 21 -5 30 3 9 2 16 -3 16 -10 0 -37 69 -30 76 2 2 10 -2
17 -11 20 -24 43 -19 34 8 -7 25 -67 87 -84 87 -5 0 -10 10 -10 23 0 13 -7 32
-15 43 -8 10 -15 29 -15 42 0 12 -7 25 -15 28 -8 4 -15 12 -15 19 0 7 -15 16
-32 20 l-33 8 30 4 c45 7 49 16 27 64 -29 65 -114 153 -177 185 -30 16 -55 31
-55 34 0 3 26 3 58 0 31 -4 67 -3 78 3 14 6 28 5 41 -2 14 -7 23 -7 31 1 8 8
15 8 26 -2 19 -15 46 -7 46 14 0 17 -21 26 -65 26 -18 0 -47 6 -64 13 -20 9
-50 11 -88 7 -32 -4 -67 -6 -78 -5 -11 1 -28 3 -37 4 -28 2 -21 15 13 28 17 7
33 21 36 33 4 16 13 20 42 19 20 0 62 5 93 12 32 7 60 11 62 8 3 -3 7 -16 9
-30 3 -16 11 -25 27 -27 20 -3 22 0 17 20 -4 12 -7 28 -7 33 0 38 -149 69
-192 41 -22 -14 -26 -14 -47 0 -21 15 -24 15 -37 -5 -11 -16 -22 -19 -40 -15
-13 3 -30 1 -37 -4 -17 -15 -112 71 -103 93 4 13 10 14 26 5 21 -11 40 -6 40
11 0 5 -9 9 -20 9 -11 0 -20 7 -20 15 0 19 60 46 91 41 13 -2 29 1 36 6 7 6
20 5 33 -2 28 -15 38 -5 21 22 -12 19 -10 23 10 39 15 12 41 19 71 19 62 0
148 19 148 32 0 6 -11 21 -25 34 -25 23 -34 23 -80 4 -27 -12 -80 -21 -137
-25 -58 -4 -64 -7 -71 -44 -6 -27 -9 -29 -34 -22 -19 5 -29 15 -31 30 -2 14
-9 21 -17 17 -14 -5 -28 17 -18 28 4 3 21 6 40 6 19 0 45 7 58 16 13 8 36 14
51 12 16 -2 29 2 31 10 3 8 -7 12 -31 12 -25 0 -38 6 -46 20 -6 11 -19 20 -30
20 -22 0 -35 -16 -20 -25 15 -9 12 -22 -6 -29 -9 -4 -28 1 -41 10 -14 9 -34
13 -46 10 -12 -3 -26 -1 -33 5 -8 7 -14 7 -19 -1 -12 -20 -27 -10 -21 14 3 14
2 27 -4 31 -5 3 -7 12 -4 19 10 27 -14 25 -25 -2 -16 -39 -47 -57 -66 -38 -13
13 -13 16 4 28 31 22 12 40 -27 26 -41 -16 -64 1 -44 32 15 25 15 27 -3 34 -8
3 -14 2 -14 -2 1 -4 1 -13 0 -20 -2 -20 -21 -3 -21 19 0 14 -7 19 -25 19 -20
0 -25 5 -25 24 0 13 -6 27 -12 29 -7 3 2 6 19 6 27 1 34 -4 39 -24 5 -19 12
-24 33 -22 32 2 92 47 73 54 -16 6 -52 44 -52 55 0 12 23 9 41 -5 24 -19 41
-71 42 -129 0 -20 5 -28 18 -28 15 0 17 5 13 29 -7 31 20 80 43 81 7 0 16 7
21 16 9 15 99 27 130 16 20 -7 14 -32 -8 -32 -11 0 -23 -7 -27 -16 -3 -8 -12
-13 -20 -10 -19 7 -55 -12 -48 -25 4 -5 11 -7 16 -4 5 4 9 -1 9 -11 0 -12 -7
-15 -30 -12 -17 3 -33 1 -36 -4 -3 -4 11 -8 30 -8 40 0 51 -24 16 -33 -23 -6
-26 -25 -7 -51 19 -26 57 -13 57 19 0 14 9 29 21 36 20 10 21 9 14 -21 -6 -27
-4 -31 12 -28 11 2 18 12 18 25 0 13 9 29 19 36 12 9 17 20 13 31 -8 20 -26
21 -33 1 -9 -22 -31 -18 -37 5 -4 14 3 29 21 45 24 22 28 23 44 8 9 -8 24 -13
33 -10 17 7 20 33 5 42 -5 3 -10 17 -10 31 0 13 -5 24 -11 24 -5 0 -7 5 -4 10
4 6 -1 22 -10 36 -15 24 -15 29 -1 65 9 22 16 42 16 44 0 3 -29 5 -65 5 -66 0
-66 0 -63 -27 3 -24 -1 -28 -24 -31 -25 -3 -28 0 -28 27 l0 31 -154 0 c-145 0
-154 -1 -159 -20 -7 -26 -27 -26 -34 0 -5 20 -14 20 -780 20 -682 0 -774 -2
-769 -15 4 -10 -1 -15 -15 -15 -11 0 -22 7 -25 15 -5 13 -36 15 -194 15 -142
0 -189 -3 -193 -12 -3 -10 -7 -10 -19 0 -12 9 -155 12 -656 11 -352 0 -643 -3
-646 -6z m524 -31 c0 -13 -12 -22 -22 -16 -10 6 -1 24 13 24 5 0 9 -4 9 -8z
m1270 -12 c0 -5 -11 -10 -25 -10 -14 0 -25 5 -25 10 0 6 11 10 25 10 14 0 25
-4 25 -10z m-1490 -15 c-7 -8 -21 -15 -32 -15 -17 0 -18 3 -8 15 7 8 21 15 32
15 17 0 18 -3 8 -15z m-132 -13 c-12 -2 -18 -13 -18 -33 0 -19 -5 -29 -15 -29
-17 0 -18 4 -6 28 5 9 12 25 15 34 4 12 11 15 23 11 17 -7 17 -8 1 -11z m577
8 c3 -5 1 -10 -4 -10 -6 0 -11 -7 -11 -15 0 -8 -4 -15 -10 -15 -5 0 -10 7 -10
15 0 8 -5 15 -11 15 -5 0 -7 5 -4 10 3 6 15 10 25 10 10 0 22 -4 25 -10z m495
0 c0 -5 -7 -10 -15 -10 -8 0 -15 5 -15 10 0 6 7 10 15 10 8 0 15 -4 15 -10z
m-1138 -22 c-4 -16 -7 -18 -10 -8 -3 8 -10 18 -16 22 -6 5 -2 8 11 8 17 0 20
-4 15 -22z m1247 1 c-7 -14 -14 -18 -21 -11 -13 13 -2 32 18 32 12 0 13 -4 3
-21z m-699 2 c0 -16 -20 -23 -46 -17 -36 9 -29 26 11 26 19 0 35 -4 35 -9z
m3120 -10 c0 -25 -18 -37 -33 -22 -8 8 -8 11 1 11 7 0 12 7 12 15 0 8 5 15 10
15 6 0 10 -9 10 -19z m-3410 -11 c0 -5 -11 -12 -25 -16 -14 -3 -25 -13 -25
-21 0 -9 -6 -13 -15 -9 -8 3 -15 1 -15 -5 0 -14 -42 -7 -47 7 -2 7 12 15 32
18 19 4 35 11 35 16 0 8 20 16 48 19 6 0 12 -3 12 -9z m469 -11 c-16 -10 -23
-4 -14 10 3 6 11 8 17 5 6 -4 5 -9 -3 -15z m2728 7 c-15 -38 72 -50 116 -16
32 26 47 25 47 0 0 -24 -59 -55 -74 -39 -6 5 -24 9 -42 9 -23 0 -33 -5 -37
-20 -3 -12 -14 -20 -27 -20 -19 0 -21 4 -15 23 4 12 8 34 8 50 0 17 5 27 15
27 8 0 12 -6 9 -14z m-3077 -31 c7 -9 11 -18 8 -20 -9 -10 -38 7 -38 21 0 18
14 18 30 -1z m900 -27 c0 -12 -39 -30 -50 -23 -14 9 -12 43 3 48 13 4 47 -13
47 -25z m-589 -5 c-8 -15 -10 -15 -11 -2 0 17 10 32 18 25 2 -3 -1 -13 -7 -23z
m2652 20 c-7 -2 -19 -2 -25 0 -7 3 -2 5 12 5 14 0 19 -2 13 -5z m-2913 -13 c0
-5 -2 -10 -4 -10 -3 0 -8 5 -11 10 -3 6 -1 10 4 10 6 0 11 -4 11 -10z m2675
-9 c3 -5 1 -12 -5 -16 -5 -3 -10 1 -10 9 0 18 6 21 15 7z m-1645 -5 c0 -3 -4
-8 -10 -11 -5 -3 -10 -1 -10 4 0 6 5 11 10 11 6 0 10 -2 10 -4z m185 -54 c-3
-4 -10 0 -15 8 -6 9 -5 17 3 22 13 8 24 -19 12 -30z m1425 -1 c0 -16 -13 -19
-36 -9 -13 6 -24 20 -24 30 0 17 2 18 30 3 17 -9 30 -19 30 -24z m80 14 c0 -8
6 -15 13 -15 8 0 7 -4 -3 -10 -12 -8 -13 -13 -3 -29 17 -27 -9 -50 -33 -30
-14 11 -14 13 0 21 8 5 13 15 10 23 -4 9 0 15 7 15 10 0 10 3 1 12 -15 15 -16
28 -2 28 6 0 10 -7 10 -15z m207 -3 c17 -11 -1 -36 -21 -29 -9 4 -13 13 -10
22 7 17 13 18 31 7z m-1867 -14 c0 -5 -13 -8 -30 -8 -16 0 -30 4 -30 10 0 5
13 8 30 7 16 -1 30 -5 30 -9z m116 -4 c-3 -9 -6 -18 -6 -20 0 -2 -7 -4 -15 -4
-18 0 -19 12 -3 28 17 17 31 15 24 -4z m-297 -26 c6 -16 18 -28 32 -30 42 -6
30 -35 -23 -57 -62 -26 -97 -28 -78 -6 7 8 20 15 30 15 27 0 25 67 -1 75 -27
9 -23 30 6 30 18 0 27 -7 34 -27z m881 22 c0 -5 -4 -10 -10 -10 -5 0 -10 5
-10 10 0 6 5 10 10 10 6 0 10 -4 10 -10z m-530 -10 c0 -5 -4 -10 -10 -10 -5 0
-10 5 -10 10 0 6 5 10 10 10 6 0 10 -4 10 -10z m1300 -9 c3 -3 22 -15 44 -26
21 -10 33 -21 26 -23 -7 -3 -15 0 -19 5 -3 6 -15 13 -26 17 -11 3 -31 15 -45
26 -20 16 -21 19 -5 13 11 -3 22 -9 25 -12z m-1415 -19 c-3 -3 -11 0 -18 7 -9
10 -8 11 6 5 10 -3 15 -9 12 -12z m1192 12 c-3 -3 -12 -4 -19 -1 -8 3 -5 6 6
6 11 1 17 -2 13 -5z m146 -43 c47 -10 72 -31 39 -31 -13 0 -36 7 -51 15 -16 8
-31 12 -34 9 -8 -9 -47 6 -47 18 0 6 11 8 28 4 15 -4 44 -11 65 -15z m-1613 5
c0 -3 -4 -8 -10 -11 -5 -3 -10 -1 -10 4 0 6 5 11 10 11 6 0 10 -2 10 -4z
m1345 -14 c-2 -2 6 -13 18 -25 27 -27 8 -34 -37 -13 -19 9 -39 16 -45 16 -12
0 -15 13 -4 24 4 3 21 5 40 4 18 -1 31 -4 28 -6z m593 -31 c6 -37 -26 -21 -41
21 -5 14 -2 16 16 9 12 -5 23 -18 25 -30z m42 29 c0 -5 -7 -10 -15 -10 -8 0
-15 5 -15 10 0 6 7 10 15 10 8 0 15 -4 15 -10z m35 -68 c0 -15 11 -30 28 -40
29 -18 33 -27 16 -38 -6 -3 -23 6 -37 22 -14 16 -37 42 -51 57 l-26 29 35 -4
c29 -2 35 -7 35 -26z m-555 -19 c0 -13 -3 -13 -15 -3 -8 7 -15 16 -15 21 0 5
7 6 15 3 8 -4 15 -13 15 -21z m235 -3 c3 -5 1 -10 -4 -10 -6 0 -11 5 -11 10 0
6 2 10 4 10 3 0 8 -4 11 -10z m-342 -34 c32 -13 74 -52 66 -61 -3 -2 -31 14
-63 35 -60 41 -61 51 -3 26z m735 -44 c2 -7 -2 -10 -12 -6 -9 3 -16 11 -16 16
0 13 23 5 28 -10z m117 -2 c3 -11 13 -20 21 -20 14 0 19 -12 8 -23 -9 -9 -64
34 -64 50 0 21 28 15 35 -7z m133 2 c2 -7 -5 -16 -17 -19 -21 -5 -30 -33 -11
-33 5 0 7 -7 4 -15 -4 -8 -11 -12 -17 -8 -7 4 -8 0 -2 -13 14 -33 18 -74 7
-74 -23 0 -43 105 -21 112 9 3 9 9 0 25 -6 12 -11 26 -11 32 0 15 63 8 68 -7z
m-788 -2 c0 -5 -2 -10 -4 -10 -3 0 -8 5 -11 10 -3 6 -1 10 4 10 6 0 11 -4 11
-10z m-951 -91 l-1 -34 -8 29 c-5 16 -13 32 -18 35 -5 3 -12 16 -16 29 l-7 22
25 -23 c19 -18 26 -34 25 -58z m-69 25 c0 -8 -4 -12 -10 -9 -5 3 -10 10 -10
16 0 5 5 9 10 9 6 0 10 -7 10 -16z m-194 -56 c15 -28 12 -48 -7 -48 -5 0 -9 8
-9 18 0 10 -4 22 -9 28 -5 5 -12 20 -16 34 -7 23 -6 24 9 11 10 -8 24 -27 32
-43z m525 11 c-5 -13 -10 -19 -10 -12 -1 15 10 45 15 40 3 -2 0 -15 -5 -28z
m187 -112 c-1 -41 1 -78 5 -84 9 -14 -25 -114 -37 -110 -15 5 -16 167 -1 192
6 11 15 32 19 48 11 44 15 31 14 -46z m-1348 44 c0 -6 -4 -13 -10 -16 -5 -3
-10 1 -10 9 0 9 5 16 10 16 6 0 10 -4 10 -9z m1260 -41 c0 -5 -2 -10 -4 -10
-3 0 -8 5 -11 10 -3 6 -1 10 4 10 6 0 11 -4 11 -10z m296 -80 c10 0 14 -13 14
-45 0 -34 -3 -43 -14 -39 -8 3 -23 1 -35 -5 -16 -9 -21 -8 -26 9 -3 11 -13 20
-21 20 -15 0 -35 39 -27 53 3 4 11 3 19 -4 15 -12 17 -7 14 28 -3 42 11 47 37
14 13 -17 31 -31 39 -31z m-306 13 c0 -20 -3 -24 -11 -16 -7 7 -9 19 -6 27 10
24 17 19 17 -11z m603 -60 c78 -59 102 -84 80 -83 -5 0 -17 7 -27 15 -11 8
-30 15 -41 15 -29 0 -76 24 -102 52 -22 25 -31 96 -10 78 7 -6 51 -40 100 -77z
m-425 7 c2 -19 0 -32 -4 -28 -4 4 -13 3 -20 -3 -17 -14 -29 7 -14 26 7 9 8 15
0 20 -18 11 -11 26 13 23 17 -2 23 -11 25 -38z m236 19 c25 -14 36 -28 36 -44
0 -13 10 -30 25 -39 30 -20 33 -40 4 -33 -12 3 -22 0 -26 -9 -6 -17 -23 -19
-23 -2 0 6 -8 20 -17 30 -24 27 -54 118 -39 118 3 0 21 -9 40 -21z m991 -20
c11 -17 -1 -21 -15 -4 -8 9 -8 15 -2 15 6 0 14 -5 17 -11z m115 -37 c0 -13
-12 -22 -22 -16 -10 6 -1 24 13 24 5 0 9 -4 9 -8z m-770 -15 c8 -7 21 -19 27
-28 11 -13 9 -15 -17 -11 -17 2 -30 8 -30 12 0 5 -3 15 -6 24 -7 19 5 20 26 3z
m78 -87 c12 -16 22 -34 22 -40 0 -21 -16 -8 -37 30 -25 47 -16 53 15 10z m345
-117 c-3 -21 -10 -43 -15 -50 -6 -7 -22 -38 -38 -69 -22 -46 -34 -59 -64 -69
-34 -12 -39 -11 -57 8 -23 25 -24 40 -4 57 8 7 15 20 15 29 0 17 33 51 50 51
5 0 17 11 26 24 8 14 29 28 45 31 16 4 31 11 34 16 11 17 14 9 8 -28z m-1798
-43 c-3 -5 -10 -10 -16 -10 -5 0 -9 5 -9 10 0 6 7 10 16 10 8 0 12 -4 9 -10z
m2230 -10 c3 -5 1 -10 -4 -10 -6 0 -11 5 -11 10 0 6 2 10 4 10 3 0 8 -4 11
-10z m-86 -88 c65 -62 84 -96 65 -115 -4 -3 -18 3 -32 13 -13 11 -36 20 -50
20 -31 0 -72 36 -72 63 0 11 -7 28 -15 37 -15 16 -14 17 12 12 23 -4 26 -2 16
9 -7 7 -13 17 -13 21 0 19 23 4 89 -60z m201 48 c29 -20 62 -74 53 -84 -7 -6
-32 19 -67 67 -32 42 -28 47 14 17z m-74 -152 c0 -13 4 -31 9 -42 6 -14 4 -17
-11 -14 -10 2 -19 10 -19 18 0 8 -4 21 -8 28 -10 14 -1 32 16 32 7 0 12 -10
13 -22z m-976 -63 c0 -7 -7 -16 -16 -19 -24 -9 -26 -8 -19 15 5 16 4 19 -6 14
-9 -6 -11 -3 -6 9 4 10 7 23 7 29 1 16 40 -32 40 -48z m940 30 c0 -8 -4 -15
-10 -15 -5 0 -10 7 -10 15 0 8 5 15 10 15 6 0 10 -7 10 -15z m124 -40 c24 -36
19 -48 -9 -23 -25 21 -34 48 -16 48 5 0 16 -11 25 -25z m-144 -35 c10 -19 10
-20 -9 -8 -22 13 -28 28 -11 28 5 0 14 -9 20 -20z m160 -46 c0 -3 -13 3 -30
13 -16 9 -30 21 -30 26 0 5 14 -1 30 -13 17 -12 30 -24 30 -26z m-1030 26 c0
-5 -5 -10 -11 -10 -5 0 -7 5 -4 10 3 6 8 10 11 10 2 0 4 -4 4 -10z m200 -90
c0 -5 -4 -10 -10 -10 -5 0 -10 5 -10 10 0 6 5 10 10 10 6 0 10 -4 10 -10z
m-52 -17 c-2 -10 -13 -19 -26 -21 -17 -3 -22 2 -22 17 0 16 6 21 26 21 19 0
25 -5 22 -17z m182 -108 c0 -8 -6 -15 -14 -15 -17 0 -28 14 -19 24 12 12 33 6
33 -9z m-363 -731 c-3 -3 -12 -4 -19 -1 -8 3 -5 6 6 6 11 1 17 -2 13 -5z m165
-28 c63 -28 91 -55 78 -76 -7 -12 -13 -11 -33 8 -13 12 -26 22 -30 22 -4 0
-24 11 -45 24 -20 13 -52 27 -70 31 -18 4 -29 11 -26 17 8 13 62 2 126 -26z
m132 -132 c12 -17 15 -29 8 -36 -6 -6 -17 0 -30 20 -19 26 -20 43 -3 42 3 0
14 -12 25 -26z m-334 6 c0 -5 -4 -10 -10 -10 -5 0 -10 5 -10 10 0 6 5 10 10
10 6 0 10 -4 10 -10z m-51 -84 c13 -14 33 -26 45 -28 14 -2 21 -11 22 -25 1
-26 -23 -32 -33 -8 -3 9 -21 22 -39 30 -23 9 -34 21 -34 34 0 28 11 26 39 -3z
m-323 -51 c-6 -18 15 -20 32 -3 14 14 37 -3 46 -35 4 -12 20 -33 37 -46 28
-22 31 -22 49 -6 10 9 24 14 30 10 6 -4 16 -2 23 3 14 12 57 -2 57 -18 0 -6 4
-8 10 -5 5 3 20 -1 32 -9 13 -8 57 -20 98 -26 41 -7 98 -16 125 -22 35 -7 59
-6 78 1 44 17 67 14 67 -9 0 -12 10 -25 25 -32 14 -6 24 -14 22 -17 -29 -56
-31 -62 -16 -72 10 -6 17 -4 24 7 22 35 47 64 56 64 18 0 9 -22 -22 -52 -25
-26 -29 -35 -23 -62 4 -17 6 -35 5 -41 -1 -5 -3 -28 -5 -49 -2 -22 -10 -45
-18 -50 -7 -6 -20 -24 -28 -40 -8 -16 -30 -44 -47 -61 -18 -18 -33 -37 -33
-44 0 -6 -13 -11 -29 -11 -16 0 -34 -7 -41 -15 -11 -13 -7 -15 23 -15 28 0 35
-3 31 -15 -4 -8 -10 -12 -15 -9 -5 3 -12 -1 -15 -9 -4 -11 -19 -13 -62 -10
-74 5 -82 8 -82 33 0 11 -6 20 -13 20 -8 0 -19 11 -25 25 -8 17 -20 25 -37 25
-34 0 -32 21 6 65 18 20 29 39 25 42 -3 4 -11 2 -18 -5 -7 -7 -17 -8 -28 -2
-19 10 -54 95 -45 109 9 15 -34 34 -61 27 -22 -6 -24 -3 -24 30 0 21 -9 49
-22 67 -13 18 -22 38 -20 44 2 7 -5 13 -15 13 -10 0 -29 14 -43 31 -14 17 -40
46 -57 64 -18 18 -33 38 -33 44 0 6 -12 16 -26 21 -18 7 -24 15 -20 26 3 9 6
20 6 25 0 5 5 9 11 9 6 0 9 -7 5 -15z m218 0 c14 -11 23 -12 33 -4 9 9 13 8
13 0 0 -7 5 -9 10 -6 6 3 10 4 10 1 0 -2 -14 -11 -31 -20 -27 -14 -34 -14 -60
-1 -15 8 -35 15 -44 15 -16 0 -20 12 -8 23 11 12 57 7 77 -8z m146 -47 c0 -4
7 -8 15 -8 8 0 15 -7 15 -16 0 -9 -5 -14 -12 -11 -69 29 -88 48 -43 45 14 -1
25 -6 25 -10z m480 -228 c0 -5 -2 -10 -4 -10 -3 0 -8 5 -11 10 -3 6 -1 10 4
10 6 0 11 -4 11 -10z m-570 -144 c0 -3 -4 -8 -10 -11 -5 -3 -10 -1 -10 4 0 6
5 11 10 11 6 0 10 -2 10 -4z m20 -96 c0 -5 -4 -10 -10 -10 -5 0 -10 5 -10 10
0 6 5 10 10 10 6 0 10 -4 10 -10z m436 -37 c-10 -10 -19 5 -10 18 6 11 8 11
12 0 2 -7 1 -15 -2 -18z m-6 -59 c0 -8 -4 -12 -10 -9 -5 3 -10 10 -10 16 0 5
5 9 10 9 6 0 10 -7 10 -16z m-810 -670 c17 -4 35 -16 41 -27 7 -13 7 -17 1
-13 -6 3 -13 2 -16 -3 -4 -5 -2 -12 4 -16 18 -11 1 -23 -65 -44 -49 -16 -90
-21 -172 -21 -114 0 -150 9 -117 29 11 6 13 11 7 11 -7 0 -13 6 -13 14 0 24
-22 30 -37 11 -10 -15 -10 -20 0 -27 8 -5 7 -8 -5 -8 -10 0 -18 6 -18 14 0 24
12 46 25 46 6 0 20 9 29 19 10 11 28 22 40 25 26 6 254 -2 296 -10z m-375
-124 c3 -5 1 -10 -4 -10 -6 0 -11 5 -11 10 0 6 2 10 4 10 3 0 8 -4 11 -10z
m-75 -595 c0 -8 -7 -15 -15 -15 -9 0 -12 6 -9 15 4 8 10 15 15 15 5 0 9 -7 9
-15z m125 -275 c3 -5 -1 -10 -10 -10 -9 0 -13 5 -10 10 3 6 8 10 10 10 2 0 7
-4 10 -10z"/>
<path d="M2615 6569 c-10 -15 3 -25 16 -12 7 7 7 13 1 17 -6 3 -14 1 -17 -5z"/>
<path d="M3147 4433 c-12 -11 -8 -23 8 -23 8 0 15 7 15 15 0 16 -12 20 -23 8z"/>
<path d="M3000 4420 c0 -5 7 -10 16 -10 8 0 12 5 9 10 -3 6 -10 10 -16 10 -5
0 -9 -4 -9 -10z"/>
<path d="M3080 4400 c0 -5 5 -10 10 -10 6 0 10 5 10 10 0 6 -4 10 -10 10 -5 0
-10 -4 -10 -10z"/>
<path d="M3280 4314 c0 -10 31 -36 37 -31 10 10 -6 37 -22 37 -8 0 -15 -3 -15
-6z"/>
<path d="M3270 4235 c0 -2 9 -9 20 -15 16 -9 20 -8 20 5 0 8 -9 15 -20 15 -11
0 -20 -2 -20 -5z"/>
<path d="M3857 7351 c3 -31 1 -51 -6 -55 -8 -5 -4 -17 11 -39 13 -18 28 -41
34 -52 14 -26 84 -33 84 -9 0 10 -6 14 -15 10 -18 -6 -19 3 -5 39 6 15 15 23
21 20 6 -4 8 -9 5 -13 -3 -3 6 -15 19 -28 14 -13 25 -30 25 -38 0 -18 -56 -46
-85 -43 -12 1 -21 -5 -23 -17 -3 -16 1 -17 38 -11 37 6 41 5 40 -11 -1 -11 -2
-28 -1 -38 2 -32 19 -5 23 34 3 31 7 35 33 38 17 2 35 10 41 18 10 12 13 12
24 -1 18 -22 30 -18 30 10 0 25 24 44 37 31 4 -3 2 -23 -3 -44 -7 -27 -14 -37
-29 -37 -16 0 -20 -6 -19 -28 1 -28 -40 -87 -61 -87 -21 0 -16 -55 6 -68 26
-17 35 -9 22 20 -8 19 -6 25 21 39 21 11 31 24 31 40 0 26 17 49 35 49 6 0 20
-9 32 -20 26 -24 44 -26 52 -4 4 11 13 14 27 11 17 -5 14 1 -12 24 -18 16 -37
29 -43 29 -6 0 4 9 22 20 21 13 41 18 57 14 30 -7 33 -24 5 -31 -11 -3 -20
-12 -20 -19 0 -10 7 -13 23 -9 19 5 26 0 40 -29 l17 -36 34 35 c30 30 41 34
79 33 33 -2 49 3 68 20 23 22 23 24 7 52 -12 20 -13 32 -6 36 10 6 32 -15 40
-37 2 -5 14 -10 28 -11 20 -2 26 2 28 23 3 29 -40 89 -64 89 -8 0 -14 7 -14
15 0 17 16 20 25 5 11 -18 34 -11 47 15 8 15 18 21 26 17 9 -6 8 -17 -4 -49
-9 -23 -13 -50 -10 -60 7 -16 9 -16 28 7 19 23 21 24 33 7 11 -16 11 -25 -4
-58 -10 -22 -21 -42 -24 -46 -13 -12 -7 -43 8 -43 8 0 15 -4 15 -10 0 -5 11
-10 24 -10 13 0 31 -3 40 -6 18 -7 22 -49 6 -59 -13 -8 -7 -76 6 -75 5 1 8 14
6 30 -1 21 4 34 18 42 24 15 26 46 4 62 -10 8 -14 23 -12 45 l3 34 25 -26 c22
-22 28 -23 44 -11 14 10 16 17 8 27 -7 7 -7 18 -2 27 7 11 12 10 27 -8 10 -12
33 -25 52 -28 32 -7 33 -6 22 15 -13 24 -7 41 15 41 12 0 15 -9 12 -35 -3 -38
15 -54 20 -17 4 24 11 25 55 7 12 -5 17 -2 17 9 0 9 6 16 13 16 9 0 12 11 9
35 -4 29 -1 35 15 35 13 0 26 -15 42 -46 17 -35 25 -44 34 -35 8 8 6 15 -11
27 -12 8 -22 25 -22 38 0 31 -20 86 -31 86 -5 0 -14 -11 -19 -25 -5 -14 -14
-25 -19 -25 -5 0 -16 -3 -25 -6 -9 -3 -16 -1 -16 4 0 25 -21 63 -31 57 -7 -5
-5 -13 5 -24 20 -22 20 -31 1 -31 -8 0 -15 -9 -15 -20 0 -14 7 -20 23 -20 12
0 28 -4 36 -9 9 -6 5 -10 -16 -13 -42 -6 -53 0 -53 28 0 13 -4 24 -8 24 -10 0
-9 41 2 58 4 7 5 16 2 19 -3 3 -1 12 5 20 13 15 49 18 49 3 0 -5 7 -10 15 -10
8 0 15 6 15 14 0 8 7 16 15 20 8 3 15 15 15 26 0 20 -3 20 -649 19 l-650 0 6
-48z m477 1 c-11 -19 -23 -28 -32 -24 -13 4 -12 7 3 18 9 7 14 17 10 23 -3 7
0 8 9 5 10 -4 16 -1 16 7 0 7 3 10 6 6 3 -3 -2 -19 -12 -35z m-106 7 c37 -10
58 -29 32 -29 -5 0 -9 -5 -7 -12 5 -27 -32 -18 -48 11 -8 17 -22 31 -30 31 -8
0 -15 5 -15 11 0 6 6 8 13 5 6 -2 31 -10 55 -17z m688 -2 c9 -9 -23 -57 -37
-57 -22 0 -32 26 -19 50 9 16 43 21 56 7z m-992 -32 c5 -22 4 -26 -4 -15 -5 8
-10 24 -10 34 0 26 6 18 14 -19z m512 -2 c-10 -10 -19 5 -10 18 6 11 8 11 12
0 2 -7 1 -15 -2 -18z m394 3 c0 -2 -7 -6 -15 -10 -8 -3 -15 -1 -15 4 0 6 7 10
15 10 8 0 15 -2 15 -4z m-669 -23 c21 -12 29 -25 29 -44 0 -39 -21 -41 -52 -6
-28 31 -34 48 -21 60 9 10 11 9 44 -10z m294 -23 c0 -20 -29 -34 -58 -26 -34
8 -35 26 -3 26 14 0 28 5 31 11 9 13 30 6 30 -11z m535 10 c0 -5 -4 -10 -10
-10 -5 0 -10 5 -10 10 0 6 5 10 10 10 6 0 10 -4 10 -10z m-436 -16 c27 -10 18
-30 -14 -32 -32 -2 -33 -2 -24 22 7 17 14 19 38 10z m310 -7 c7 -7 15 -29 19
-51 6 -36 5 -38 -16 -31 -12 4 -32 9 -44 12 -28 6 -30 35 -5 62 21 23 30 25
46 8z m-526 -14 c-2 -12 -11 -17 -23 -15 -25 5 -29 8 -20 21 11 19 47 13 43
-6z m-273 -3 c3 -5 1 -10 -4 -10 -6 0 -11 5 -11 10 0 6 2 10 4 10 3 0 8 -4 11
-10z m419 -38 c-22 -5 -31 7 -14 18 9 6 17 5 22 -3 4 -7 1 -13 -8 -15z m516
17 c0 -5 -8 -17 -19 -28 -16 -16 -21 -17 -45 -4 -25 13 -32 24 -21 35 10 10
85 7 85 -3z m-565 -55 c19 -13 18 -14 -8 -14 -15 0 -27 -5 -27 -12 0 -9 -3 -9
-12 0 -7 7 -26 12 -42 13 -17 0 -25 3 -18 6 6 2 12 11 12 18 0 17 65 9 95 -11z
m45 6 c0 -5 -5 -10 -11 -10 -5 0 -7 5 -4 10 3 6 8 10 11 10 2 0 4 -4 4 -10z
m326 -34 c-4 -22 -14 -37 -26 -41 -40 -13 -55 21 -20 43 12 7 25 10 30 7 6 -4
10 4 10 16 0 12 3 20 6 16 4 -3 3 -22 0 -41z m-303 0 c9 -22 -14 -35 -42 -25
-19 8 -21 12 -11 24 16 19 46 19 53 1z"/>
<path d="M5200 7381 c0 -19 23 -35 34 -24 14 15 5 43 -14 43 -13 0 -20 -7 -20
-19z"/>
<path d="M5480 7371 c0 -6 5 -13 10 -16 6 -3 10 1 10 9 0 9 -4 16 -10 16 -5 0
-10 -4 -10 -9z"/>
<path d="M5427 7356 c-3 -8 -3 -17 0 -20 7 -7 33 13 33 25 0 15 -27 10 -33 -5z"/>
<path d="M5345 7351 c-3 -5 -1 -12 5 -16 5 -3 10 1 10 9 0 18 -6 21 -15 7z"/>
<path d="M5273 7344 c4 -4 -2 -13 -13 -21 -23 -16 -27 -70 -8 -124 12 -35 24
-49 46 -49 17 0 15 27 -2 33 -24 9 -31 73 -12 102 21 31 20 51 -1 59 -10 4
-14 4 -10 0z"/>
<path d="M5425 7310 c3 -5 8 -10 11 -10 2 0 4 5 4 10 0 6 -5 10 -11 10 -5 0
-7 -4 -4 -10z"/>
<path d="M5336 7263 c-14 -14 -4 -30 27 -41 17 -6 44 -23 60 -37 35 -34 34
-21 -4 35 -28 42 -65 61 -83 43z"/>
<path d="M5353 7203 c-18 -7 -16 -23 2 -23 8 0 15 7 15 15 0 8 -1 15 -2 14 -2
0 -9 -3 -15 -6z"/>
<path d="M10 7190 c0 -5 8 -15 19 -21 11 -7 16 -19 13 -31 -3 -13 1 -18 17
-18 14 0 21 6 21 20 0 11 -4 20 -9 20 -5 0 -11 9 -14 20 -5 20 -47 29 -47 10z"/>
<path d="M850 7185 c0 -8 7 -15 15 -15 8 0 15 -7 15 -15 0 -8 5 -15 10 -15 6
0 10 7 10 15 0 9 7 18 15 21 28 11 15 24 -25 24 -29 0 -40 -4 -40 -15z"/>
<path d="M233 7173 c-18 -6 -16 -33 1 -33 15 0 30 27 18 33 -4 3 -13 2 -19 0z"/>
<path d="M0 7136 c0 -22 3 -27 11 -19 8 8 8 16 0 30 -9 16 -10 14 -11 -11z"/>
<path d="M570 7139 c0 -11 5 -17 10 -14 6 3 10 13 10 21 0 8 -4 14 -10 14 -5
0 -10 -9 -10 -21z"/>
<path d="M5320 7116 c-14 -18 -6 -50 13 -44 15 6 22 37 10 49 -6 6 -15 4 -23
-5z"/>
<path d="M920 7105 c0 -9 5 -15 11 -13 6 2 11 8 11 13 0 5 -5 11 -11 13 -6 2
-11 -4 -11 -13z"/>
<path d="M3874 7094 c3 -9 -3 -27 -14 -41 -11 -14 -20 -35 -20 -46 0 -18 4
-17 28 12 l28 33 31 -26 c38 -32 43 -32 43 -3 0 13 -15 35 -40 55 -42 35 -66
42 -56 16z"/>
<path d="M4561 7071 c-39 -54 -18 -101 43 -101 35 0 49 -13 24 -23 -9 -4 -9
-6 -1 -6 6 -1 20 10 31 24 15 19 30 26 59 27 48 1 57 6 42 24 -10 13 -15 12
-35 -1 -13 -8 -34 -15 -48 -15 -14 0 -36 -5 -49 -11 -18 -8 -30 -8 -43 0 -11
6 -13 11 -6 11 6 0 12 12 12 26 0 17 6 28 20 31 23 6 25 14 8 31 -19 19 -35
14 -57 -17z"/>
<path d="M5145 7080 c3 -5 8 -10 11 -10 2 0 4 5 4 10 0 6 -5 10 -11 10 -5 0
-7 -4 -4 -10z"/>
<path d="M1105 7060 c3 -5 12 -10 20 -10 8 0 17 5 20 10 4 6 -5 10 -20 10 -15
0 -24 -4 -20 -10z"/>
<path d="M4650 7050 c-13 -8 -13 -11 2 -26 16 -17 18 -17 24 0 9 23 -7 38 -26
26z"/>
<path d="M5090 7050 c0 -5 9 -14 20 -20 16 -8 20 -8 20 4 0 7 -7 17 -16 20
-21 8 -24 8 -24 -4z"/>
<path d="M5200 7034 c0 -14 4 -23 10 -19 6 3 10 15 10 26 0 10 -4 19 -10 19
-5 0 -10 -12 -10 -26z"/>
<path d="M950 7035 c0 -8 5 -15 10 -15 6 0 10 7 10 15 0 8 -4 15 -10 15 -5 0
-10 -7 -10 -15z"/>
<path d="M4459 7021 c-18 -25 -27 -29 -50 -24 -33 6 -40 -12 -9 -22 11 -3 20
-13 20 -22 0 -22 23 -10 38 20 7 15 17 27 21 27 12 0 21 39 11 45 -5 3 -19 -8
-31 -24z"/>
<path d="M321 7024 c0 -11 3 -14 6 -6 3 7 2 16 -1 19 -3 4 -6 -2 -5 -13z"/>
<path d="M881 7018 c10 -18 49 -26 49 -9 0 13 -23 28 -42 28 -13 0 -15 -4 -7
-19z"/>
<path d="M385 7020 c-15 -25 -22 -68 -13 -83 14 -26 36 -21 31 7 -3 13 0 27 6
30 16 11 14 56 -3 56 -8 0 -18 -5 -21 -10z"/>
<path d="M1027 7023 c-2 -5 -4 -20 -5 -35 -1 -23 2 -28 22 -28 26 0 40 29 22
46 -20 18 -35 24 -39 17z"/>
<path d="M4273 7009 c-9 -9 -8 -15 2 -25 18 -19 31 -18 15 1 -9 10 -9 15 -1
15 6 0 11 5 11 10 0 13 -13 13 -27 -1z"/>
<path d="M3918 6989 c-2 -6 -2 -26 0 -44 3 -26 8 -32 22 -28 24 7 31 37 13 62
-16 23 -29 27 -35 10z"/>
<path d="M3520 6980 c0 -5 5 -10 11 -10 5 0 7 5 4 10 -3 6 -8 10 -11 10 -2 0
-4 -4 -4 -10z"/>
<path d="M4185 6971 c-10 -17 11 -21 31 -6 18 14 18 14 -3 15 -12 0 -24 -4
-28 -9z"/>
<path d="M4890 6960 c0 -5 5 -10 10 -10 6 0 10 5 10 10 0 6 -4 10 -10 10 -5 0
-10 -4 -10 -10z"/>
<path d="M4401 6904 c0 -11 3 -14 6 -6 3 7 2 16 -1 19 -3 4 -6 -2 -5 -13z"/>
<path d="M4457 6906 c-9 -22 18 -40 33 -22 6 9 9 20 5 26 -9 15 -32 12 -38 -4z"/>
<path d="M4560 6909 c0 -5 5 -7 10 -4 6 3 10 8 10 11 0 2 -4 4 -10 4 -5 0 -10
-5 -10 -11z"/>
<path d="M4180 6885 c0 -8 5 -15 10 -15 6 0 10 7 10 15 0 8 -4 15 -10 15 -5 0
-10 -7 -10 -15z"/>
<path d="M720 6880 c0 -5 5 -10 10 -10 6 0 10 5 10 10 0 6 -4 10 -10 10 -5 0
-10 -4 -10 -10z"/>
<path d="M845 6841 c-8 -14 7 -20 37 -14 15 3 25 9 22 14 -7 12 -51 12 -59 0z"/>
<path d="M760 6790 c0 -5 6 -10 14 -10 8 0 18 5 21 10 3 6 -3 10 -14 10 -12 0
-21 -4 -21 -10z"/>
<path d="M4640 6784 c0 -8 5 -12 10 -9 6 3 10 10 10 16 0 5 -4 9 -10 9 -5 0
-10 -7 -10 -16z"/>
<path d="M3942 6768 c-13 -17 29 -50 47 -38 10 6 8 13 -8 29 -25 25 -25 25
-39 9z"/>
<path d="M4040 6740 c0 -5 5 -10 10 -10 6 0 10 5 10 10 0 6 -4 10 -10 10 -5 0
-10 -4 -10 -10z"/>
<path d="M708 6733 c7 -3 16 -2 19 1 4 3 -2 6 -13 5 -11 0 -14 -3 -6 -6z"/>
<path d="M3860 6700 c0 -11 7 -20 15 -20 8 0 15 9 15 20 0 11 -7 20 -15 20 -8
0 -15 -9 -15 -20z"/>
<path d="M3918 6676 c-17 -12 -25 -46 -12 -46 18 0 44 24 44 40 0 23 -8 25
-32 6z"/>
<path d="M3808 6647 c-27 -27 -36 -47 -22 -47 4 0 18 12 31 26 33 36 25 56 -9
21z"/>
<path d="M4065 6650 c3 -5 8 -10 11 -10 2 0 4 5 4 10 0 6 -5 10 -11 10 -5 0
-7 -4 -4 -10z"/>
<path d="M4204 6605 c3 -9 6 -28 6 -41 0 -15 6 -24 16 -24 24 0 15 74 -10 78
-14 3 -17 0 -12 -13z"/>
<path d="M285 6050 c-4 -6 5 -10 20 -10 15 0 24 4 20 10 -3 6 -12 10 -20 10
-8 0 -17 -4 -20 -10z"/>
<path d="M4633 5888 c9 -15 17 -36 17 -48 0 -15 7 -20 27 -20 l26 0 -20 23
c-11 12 -30 33 -43 47 l-24 25 17 -27z"/>
<path d="M3116 5618 c-9 -43 1 -51 35 -27 32 22 28 42 -10 52 -15 3 -20 -2
-25 -25z"/>
<path d="M3018 5563 c7 -3 16 -2 19 1 4 3 -2 6 -13 5 -11 0 -14 -3 -6 -6z"/>
<path d="M3167 5563 c-3 -3 -3 -11 0 -18 5 -14 33 -9 33 5 0 10 -26 20 -33 13z"/>
<path d="M1742 5104 c2 -11 9 -20 16 -20 24 -3 26 -4 15 -15 -8 -8 -17 -8 -32
1 -31 16 -101 -19 -175 -89 -33 -31 -59 -57 -58 -58 1 -2 -10 -15 -25 -30 -31
-33 -86 -150 -77 -164 3 -5 1 -15 -4 -22 -12 -16 -23 -87 -13 -87 5 0 16 -12
26 -26 14 -22 15 -28 4 -35 -7 -4 -10 -11 -6 -16 5 -4 12 -1 17 6 4 8 15 11
25 7 21 -8 45 10 45 34 0 18 45 40 82 40 11 0 34 6 51 14 18 7 44 18 60 24 15
7 27 18 27 25 0 8 9 22 21 33 20 18 21 18 39 -5 16 -22 25 -24 106 -26 49 0
97 3 106 9 9 6 20 7 24 4 14 -15 -10 -26 -73 -32 -58 -6 -72 -11 -95 -37 -31
-34 -33 -40 -17 -56 9 -9 19 -8 39 2 15 8 30 12 33 8 4 -3 25 2 48 11 29 12
45 14 52 7 7 -7 4 -13 -9 -18 -10 -4 -25 -13 -32 -20 -7 -7 -21 -13 -30 -13
-15 0 -15 -1 1 -17 15 -16 18 -16 35 0 10 9 21 17 25 17 12 0 57 47 57 60 0 8
8 10 24 6 18 -4 28 -1 35 11 9 16 10 16 11 1 0 -9 -18 -39 -40 -67 -22 -28
-40 -53 -40 -57 0 -7 83 58 112 87 11 12 29 16 53 15 30 -3 39 1 57 28 12 17
33 43 46 59 20 20 22 27 10 27 -9 0 -29 7 -44 15 -16 8 -36 15 -45 15 -8 0
-24 7 -35 15 -28 21 -56 19 -52 -5 5 -31 -16 -28 -25 5 -15 49 -22 58 -66 92
-45 35 -117 61 -196 70 -78 9 -91 25 -15 19 116 -10 191 -37 261 -92 19 -16
60 -40 90 -54 30 -14 58 -30 62 -37 17 -27 46 -14 56 25 6 20 11 42 11 48 0
15 59 56 70 49 6 -3 10 3 10 14 0 14 -6 21 -20 21 -28 0 -38 30 -16 46 22 16
12 34 -19 34 -13 0 -43 15 -67 33 -36 28 -56 35 -113 41 -39 4 -86 9 -105 11
-19 2 -73 6 -120 9 -47 3 -111 8 -143 12 -54 6 -59 5 -55 -12z m-5 -160 c-3
-3 -12 -4 -19 -1 -8 3 -5 6 6 6 11 1 17 -2 13 -5z m-226 -202 c-9 -99 -15
-117 -35 -89 -7 9 -18 17 -24 17 -12 0 -32 31 -32 49 0 6 9 11 19 11 14 0 27
16 45 57 15 31 28 54 30 52 3 -2 1 -46 -3 -97z"/>
<path d="M1858 4523 c-22 -6 -23 -19 -3 -27 19 -7 66 14 59 25 -5 9 -26 10
-56 2z"/>
<path d="M980 4451 c-5 -11 -10 -44 -10 -73 0 -56 23 -148 32 -132 3 5 11 51
18 101 10 74 10 96 0 108 -17 20 -27 19 -40 -4z"/>
<path d="M1119 4138 c-16 -26 -19 -45 -16 -95 6 -93 47 -128 47 -40 0 23 7 62
15 86 27 76 -6 111 -46 49z"/>
<path d="M1230 3510 c-21 -14 0 -45 31 -45 19 0 25 6 27 28 3 23 0 27 -20 27
-13 0 -30 -5 -38 -10z"/>
<path d="M1406 2904 c1 -14 5 -28 8 -31 9 -9 19 25 12 42 -9 25 -23 17 -20
-11z"/>
<path d="M1535 2643 c-37 -8 -129 -47 -165 -69 -19 -12 -52 -28 -72 -35 -21
-7 -38 -19 -38 -26 0 -7 -14 -20 -30 -28 -17 -9 -57 -39 -88 -66 -31 -28 -69
-61 -85 -75 -15 -13 -33 -24 -40 -24 -6 0 -25 -7 -41 -15 -16 -9 -36 -13 -44
-10 -7 3 -32 -8 -55 -23 -77 -52 -122 -80 -160 -97 -21 -10 -57 -35 -80 -56
-60 -54 -65 -59 -72 -59 -4 0 -17 -13 -31 -29 -14 -17 -34 -33 -44 -36 -11 -4
-20 -12 -20 -18 0 -7 -17 -30 -38 -53 -20 -23 -50 -59 -67 -80 -27 -36 -55
-51 -55 -31 0 30 1 31 10 17 9 -15 11 -13 14 11 0 7 10 15 21 20 15 6 11 8
-19 8 -29 1 -36 4 -28 14 5 6 12 23 14 36 l3 23 24 -19 c22 -18 26 -19 43 -4
10 8 18 20 18 26 0 6 10 15 22 20 12 6 29 24 38 40 10 17 25 29 34 29 20 -2
21 10 1 26 -8 6 -23 9 -35 5 -16 -5 -32 2 -61 25 -28 22 -39 27 -39 16 0 -8
15 -26 33 -38 37 -27 48 -68 18 -68 -12 0 -23 -9 -27 -22 -11 -37 -26 -52 -35
-36 -5 7 -9 23 -9 34 0 13 -8 24 -21 27 -16 4 -19 11 -14 26 5 17 3 20 -12 14
-10 -4 -26 -17 -36 -30 -25 -32 -40 -29 -35 7 3 23 0 31 -15 36 -13 4 -17 12
-14 25 3 10 1 19 -4 19 -5 0 -9 -9 -9 -20 0 -13 -7 -20 -18 -20 -11 0 -22 -12
-30 -34 -12 -33 -8 -66 9 -66 4 0 6 -7 3 -15 -4 -8 -3 -23 2 -33 6 -13 9 -7
13 23 5 32 11 41 29 43 13 2 30 1 39 -2 12 -5 10 -10 -11 -27 -28 -22 -36 -69
-12 -69 7 0 19 -7 26 -15 18 -22 -8 -20 -32 2 -18 16 -21 14 -58 -26 -59 -63
-75 -51 -70 52 1 20 -3 37 -8 37 -5 0 -12 9 -15 20 -9 34 -40 14 -35 -22 3
-19 0 -32 -9 -35 -15 -6 -18 -33 -3 -33 6 0 10 -8 10 -18 0 -24 48 -68 82 -76
35 -8 37 -26 3 -26 -14 0 -25 4 -25 8 0 10 -45 32 -65 32 -13 0 -15 -118 -15
-890 l0 -890 2750 0 2750 0 0 708 0 709 -52 23 c-29 12 -100 45 -158 73 -58
27 -123 56 -144 63 -22 8 -60 26 -85 40 -26 14 -76 39 -113 55 -234 103 -430
200 -464 231 -12 11 -31 46 -43 78 -23 63 -81 148 -116 171 -93 60 -149 99
-205 144 -36 28 -74 57 -86 63 -12 6 -41 28 -65 48 -24 20 -71 49 -104 65 -33
15 -76 37 -95 48 -19 11 -68 35 -108 54 -65 30 -75 32 -88 19 -9 -8 -12 -21
-8 -31 4 -9 12 -34 18 -57 6 -23 17 -49 25 -58 19 -23 25 -97 11 -140 -18 -54
-75 -134 -148 -203 -36 -35 -66 -63 -68 -63 -13 0 -101 -77 -112 -96 -8 -15
-22 -24 -35 -24 -25 0 -187 -129 -268 -212 -38 -40 -52 -48 -83 -48 -45 0 -47
-16 -6 -71 31 -44 44 -87 38 -135 -3 -28 -4 -27 -35 26 -58 99 -180 210 -198
180 -2 -4 23 -39 58 -78 34 -39 72 -91 83 -114 22 -45 51 -154 42 -163 -2 -3
-25 30 -51 73 -25 43 -61 97 -81 122 -40 51 -165 160 -183 160 -25 0 -12 -23
45 -78 80 -79 124 -137 161 -209 45 -91 61 -142 60 -198 l0 -50 -13 40 c-19
59 -54 123 -101 185 -23 30 -46 63 -51 73 -19 34 -235 248 -261 258 -15 6 -38
8 -50 4 -13 -3 -51 2 -84 10 -35 9 -74 13 -91 10 -26 -6 -29 -10 -23 -33 3
-15 15 -33 25 -41 11 -7 20 -22 20 -32 0 -10 5 -21 10 -24 6 -3 10 -20 10 -36
0 -16 6 -32 14 -35 18 -7 33 -46 41 -106 3 -25 13 -52 20 -58 18 -15 19 -34 1
-85 -7 -23 -12 -73 -11 -117 2 -58 -1 -78 -11 -82 -16 -6 -19 -62 -4 -71 19
-12 50 -99 50 -141 0 -32 -5 -47 -21 -57 -18 -13 -19 -19 -11 -48 21 -72 64
-184 107 -279 25 -55 45 -103 45 -106 0 -3 13 -34 29 -69 32 -69 61 -148 61
-167 0 -17 -56 62 -65 92 -4 14 -32 60 -61 103 -30 43 -54 84 -54 91 0 7 -4
16 -10 22 -5 5 -34 59 -65 119 -53 104 -75 139 -75 121 0 -4 6 -20 14 -34 8
-15 19 -52 26 -82 7 -30 29 -91 50 -135 59 -122 92 -209 75 -195 -27 23 -102
134 -139 208 -49 98 -74 167 -83 231 -5 32 -14 56 -22 59 -11 4 -13 -9 -9 -67
6 -80 -5 -92 -37 -39 -10 18 -48 71 -85 118 -36 47 -78 106 -93 131 -15 25
-36 54 -47 64 -11 10 -20 23 -20 30 0 7 -13 30 -28 51 -34 48 -82 129 -100
169 -60 133 -113 289 -84 250 14 -20 92 -68 99 -61 16 16 -38 84 -133 167 -56
49 -106 102 -112 117 -27 77 -42 144 -36 169 3 15 18 53 34 83 26 52 27 58 17
113 -8 43 -7 61 1 69 6 6 13 10 15 7 46 -60 77 -110 77 -123 0 -10 5 -14 10
-11 18 11 11 58 -12 82 -19 20 -20 26 -8 47 14 26 7 61 -10 51 -11 -7 -26 22
-17 31 3 3 14 0 26 -7 28 -18 35 -6 18 28 -8 15 -18 43 -22 61 -8 37 -21 42
-30 11 -5 -15 -10 -18 -18 -10 -8 8 -8 23 1 56 7 25 12 65 12 90 0 49 24 131
47 156 15 18 21 69 9 88 -7 11 -24 12 -61 4z m-1215 -689 c0 -7 -13 -20 -30
-29 -29 -15 -30 -15 -30 9 0 34 27 61 46 45 8 -6 14 -18 14 -25z m3188 -74 c3
-21 2 -22 -12 -11 -19 16 -21 44 -3 39 6 -3 14 -15 15 -28z m-154 -54 c25 -46
26 -74 4 -60 -5 4 -21 30 -34 58 -45 97 -21 99 30 2z m85 -1 c0 -5 -9 1 -19
14 -11 13 -20 33 -20 45 1 17 4 14 20 -14 11 -19 19 -39 19 -45z m-3252 -7
c-3 -8 -6 -5 -6 6 -1 11 2 17 5 13 3 -3 4 -12 1 -19z m-7 -22 c0 -11 -19 -15
-25 -6 -3 5 1 10 9 10 9 0 16 -2 16 -4z m130 -10 c0 -3 -4 -8 -10 -11 -5 -3
-10 -1 -10 4 0 6 5 11 10 11 6 0 10 -2 10 -4z m-100 -37 c0 -5 -6 -9 -13 -9
-7 0 -18 -9 -25 -20 -7 -11 -16 -20 -21 -20 -6 0 -22 -5 -38 -11 -15 -6 -29
-9 -31 -7 -2 2 -8 -5 -13 -15 -6 -9 -15 -15 -20 -11 -16 9 19 42 57 54 19 7
34 16 34 21 0 5 9 9 19 9 10 0 22 7 25 16 6 15 26 11 26 -7z m3219 -93 c9 -11
7 -15 -11 -19 -12 -4 -25 -1 -29 5 -17 27 19 39 40 14z m-119 -51 c0 -7 7 -18
16 -23 12 -6 15 -18 12 -36 -4 -20 -1 -26 13 -26 11 0 19 -5 19 -10 0 -6 11
-16 25 -22 23 -10 28 -8 55 22 26 29 30 31 30 13 0 -11 -7 -27 -16 -34 -12
-10 -14 -23 -10 -51 5 -32 3 -38 -11 -38 -16 0 -29 -18 -50 -67 -8 -20 25 -15
47 7 11 11 26 17 33 14 7 -2 30 11 50 31 67 65 63 47 -40 -165 -142 -294 -183
-362 -378 -620 -120 -159 -140 -183 -174 -214 -18 -17 -40 -45 -50 -62 -18
-35 -131 -160 -131 -146 0 5 14 53 30 107 17 54 30 108 30 122 0 13 7 35 16
48 9 14 14 34 11 46 -3 13 2 28 14 40 10 10 19 24 19 30 0 24 33 79 52 85 16
5 18 11 13 32 -4 15 -9 41 -10 58 -2 18 -8 42 -15 53 -13 25 -6 57 15 65 9 3
15 18 15 35 0 21 6 32 20 36 11 4 26 18 34 33 8 15 24 38 35 51 26 30 26 38 1
51 -28 15 -26 22 19 70 37 40 38 42 28 84 -9 39 -7 45 17 72 51 55 56 61 56
69 0 4 -9 5 -20 2 -33 -9 -43 16 -23 59 10 22 23 42 28 46 6 5 6 8 1 8 -6 0 0
9 12 21 32 29 18 42 -35 34 -61 -9 -71 -14 -78 -36 -10 -30 -25 -22 -25 14 0
45 15 57 64 51 29 -4 67 3 131 24 109 36 105 35 105 17z m-340 -220 c0 -8 -2
-15 -4 -15 -2 0 -6 7 -10 15 -3 8 -1 15 4 15 6 0 10 -7 10 -15z"/>
<path d="M3184 1545 c19 -14 36 -12 36 6 0 5 -12 9 -27 9 -27 -1 -27 -1 -9
-15z"/>
<path d="M785 2571 c-3 -5 -1 -12 5 -16 5 -3 10 1 10 9 0 18 -6 21 -15 7z"/>
<path d="M640 2537 c0 -14 -4 -29 -10 -32 -17 -10 -11 -21 17 -34 18 -8 29 -9
37 -1 7 7 5 10 -7 10 -11 0 -18 9 -19 23 -2 41 -3 46 -11 53 -4 4 -7 -4 -7
-19z"/>
<path d="M995 2550 c4 -6 11 -8 16 -5 14 9 11 15 -7 15 -8 0 -12 -5 -9 -10z"/>
<path d="M1042 2511 c-10 -6 -12 -19 -5 -49 5 -27 12 -39 20 -34 12 8 16 24
14 65 -1 28 -7 32 -29 18z"/>
<path d="M873 2474 c-3 -8 -1 -20 5 -26 16 -16 42 -2 42 22 0 24 -38 28 -47 4z"/>
<path d="M970 2470 c0 -5 5 -10 10 -10 6 0 10 5 10 10 0 6 -4 10 -10 10 -5 0
-10 -4 -10 -10z"/>
<path d="M3526 2423 c7 -65 -6 -107 -35 -111 -22 -3 -22 -3 4 -23 27 -22 47
-17 44 9 -2 31 13 62 31 62 10 0 22 9 25 20 8 25 -4 82 -15 75 -5 -3 -11 -1
-15 5 -3 5 -15 10 -25 10 -17 0 -18 -6 -14 -47z"/>
<path d="M510 2440 c0 -5 7 -10 15 -10 8 0 15 5 15 10 0 6 -7 10 -15 10 -8 0
-15 -4 -15 -10z"/>
<path d="M670 2395 c-5 -14 -14 -25 -20 -25 -5 0 -10 -4 -10 -10 0 -18 31 -10
50 12 17 22 17 48 -1 48 -5 0 -14 -11 -19 -25z"/>
<path d="M755 2388 c-3 -7 -6 -29 -7 -48 -3 -30 0 -35 20 -38 25 -4 26 -3 12
32 -7 21 -6 26 5 26 8 0 15 9 15 20 0 23 -37 29 -45 8z"/>
<path d="M855 2380 c-10 -11 -16 -22 -14 -25 7 -6 49 24 49 36 0 15 -16 10
-35 -11z"/>
<path d="M1000 2389 c0 -5 5 -7 10 -4 6 3 10 8 10 11 0 2 -4 4 -10 4 -5 0 -10
-5 -10 -11z"/>
<path d="M590 2380 c0 -5 7 -10 16 -10 8 0 12 5 9 10 -3 6 -10 10 -16 10 -5 0
-9 -4 -9 -10z"/>
<path d="M914 2355 c8 -8 17 -15 20 -15 3 0 6 7 6 15 0 9 -9 15 -21 15 -18 0
-19 -2 -5 -15z"/>
<path d="M212 2343 c2 -9 9 -18 16 -21 18 -6 15 25 -4 32 -11 4 -14 1 -12 -11z"/>
<path d="M671 2320 c-17 -10 -7 -40 14 -40 8 0 15 9 15 19 0 24 -12 32 -29 21z"/>
<path d="M380 2251 c0 -6 4 -12 9 -15 13 -9 19 -65 7 -70 -7 -2 -7 -8 2 -17
11 -12 16 -10 33 10 23 28 25 51 4 51 -9 0 -15 9 -15 25 0 18 -5 25 -20 25
-11 0 -20 -4 -20 -9z"/>
<path d="M665 2239 c-10 -15 0 -21 27 -17 l23 3 -22 13 c-15 8 -24 9 -28 1z"/>
<path d="M726 2234 c-8 -21 -4 -25 14 -14 11 7 12 12 4 20 -8 8 -13 7 -18 -6z"/>
<path d="M528 2219 c-20 -22 -23 -45 -7 -55 6 -3 9 -19 5 -35 -8 -39 12 -38
58 4 48 44 50 78 2 42 -11 -8 -23 -15 -28 -15 -12 0 -10 48 2 55 6 3 10 10 10
16 0 15 -24 9 -42 -12z"/>
<path d="M65 2130 c-3 -5 3 -10 15 -10 12 0 18 5 15 10 -3 6 -10 10 -15 10 -5
0 -12 -4 -15 -10z"/>
<path d="M457 2113 c-10 -10 -8 -33 3 -33 5 0 14 9 20 20 8 15 8 20 -3 20 -8
0 -17 -3 -20 -7z"/>
<path d="M350 2052 c0 -21 13 -42 26 -42 10 0 11 6 5 22 -8 23 -31 37 -31 20z"/>
<path d="M1916 1761 c9 -17 21 -31 28 -31 8 0 31 -16 52 -35 21 -19 42 -35 46
-35 5 0 15 14 22 30 7 17 15 27 19 23 4 -3 7 -2 7 3 0 11 -57 34 -84 34 -9 0
-27 6 -39 14 -12 8 -32 17 -44 20 -21 7 -22 6 -7 -23z"/>
<path d="M2076 1353 c-6 -21 2 -205 12 -279 1 -6 10 -21 20 -32 9 -12 25 -33
35 -47 11 -15 28 -25 43 -25 18 0 29 -9 41 -35 18 -38 45 -44 51 -11 5 22 -30
60 -86 93 -54 32 -74 71 -77 153 -6 146 -24 231 -39 183z"/>
<path d="M2260 850 c-13 -8 -12 -10 3 -10 9 0 17 5 17 10 0 12 -1 12 -20 0z"/>
<path d="M2150 832 c0 -19 12 -42 22 -42 14 0 5 43 -9 48 -7 2 -13 -1 -13 -6z"/>
<path d="M2190 733 c0 -17 5 -35 10 -38 13 -8 13 35 0 55 -7 11 -10 7 -10 -17z"/>
</g>
</svg>
