<?xml version="1.0" standalone="no"?>
<!DOCTYPE svg PUBLIC "-//W3C//DTD SVG 20010904//EN"
 "http://www.w3.org/TR/2001/REC-SVG-20010904/DTD/svg10.dtd">
<svg version="1.0" xmlns="http://www.w3.org/2000/svg"
 width="648.000000pt" height="848.000000pt" viewBox="0 0 648.000000 848.000000"
 preserveAspectRatio="xMidYMid meet">

<g transform="translate(0.000000,848.000000) scale(0.100000,-0.100000)"
fill="#000000" stroke="none">
<path d="M292 6910 c0 -811 0 -1483 -1 -1492 -1 -20 -39 -58 -57 -58 -7 0 -40
-16 -74 -35 -34 -19 -70 -35 -81 -35 -10 0 -19 -4 -19 -10 0 -5 -7 -10 -15
-10 -12 0 -15 17 -16 88 0 91 -5 215 -18 492 -4 91 -9 -1188 -9 -2842 l-2
-3008 1289 0 1288 0 11 33 10 32 1 -32 1 -33 1940 0 1940 0 -2 1078 c-1 592
-5 1260 -8 1483 l-6 406 -28 48 c-16 26 -75 94 -132 151 -57 56 -104 106 -104
111 0 5 -8 18 -18 29 -30 33 -168 246 -200 309 -46 91 -83 136 -145 175 -59
37 -70 54 -87 135 -6 27 -15 54 -19 60 -16 21 -60 142 -72 195 -6 30 -13 91
-15 135 -1 44 -12 114 -23 155 -12 41 -37 135 -56 209 -20 74 -47 158 -61 187
-44 92 -119 154 -219 178 -16 4 -51 21 -78 37 -26 16 -51 29 -56 29 -5 0 -13
6 -19 13 -6 6 -46 30 -89 52 -43 22 -80 43 -83 46 -5 6 -178 90 -270 132 -30
14 -86 33 -125 42 -38 9 -99 25 -135 35 -90 25 -156 40 -182 40 -12 0 -46 8
-76 17 -43 14 -60 26 -82 58 -54 78 -165 165 -191 149 -6 -4 -15 -1 -19 6 -10
16 -22 -63 -14 -98 4 -20 3 -23 -5 -13 -8 12 -11 10 -16 -12 -4 -16 -2 -33 5
-42 9 -11 7 -19 -9 -36 -12 -13 -21 -33 -21 -47 0 -19 -4 -22 -21 -17 -21 7
-22 5 -15 -33 5 -33 3 -43 -11 -51 -16 -9 -16 -12 -3 -22 11 -8 12 -12 3 -16
-7 -2 -13 -19 -13 -38 0 -18 -7 -38 -15 -45 -8 -7 -15 -29 -15 -50 0 -28 -6
-42 -22 -54 -18 -12 -19 -14 -4 -9 19 6 19 6 1 -24 -11 -18 -24 -29 -32 -26
-8 3 -13 -2 -13 -14 0 -19 -18 -43 -32 -43 -5 0 -6 11 -2 24 4 17 1 27 -11 34
-24 13 -11 72 15 72 10 0 20 7 24 15 3 9 0 15 -9 15 -8 0 -15 7 -15 15 0 8 5
15 10 15 14 0 60 54 52 60 -17 12 -31 49 -22 55 6 3 10 1 10 -4 0 -6 4 -11 8
-11 5 0 9 14 9 30 0 36 -4 37 -33 9 -29 -27 -60 -19 -44 11 9 16 8 20 -5 20
-8 0 -15 7 -15 15 0 8 -7 15 -16 15 -11 0 -15 -6 -11 -20 3 -10 -1 -27 -9 -37
-7 -10 -14 -26 -14 -35 0 -10 -7 -18 -16 -18 -14 0 -14 -2 -1 -15 31 -30 -9
-75 -65 -75 -12 0 -45 -8 -74 -17 -49 -17 -52 -19 -49 -50 3 -38 -3 -40 -77
-35 -58 4 -75 15 -38 25 13 3 18 11 14 20 -4 12 -18 15 -57 12 -29 -2 -54 -4
-57 -5 -3 -1 -8 -2 -12 -1 -4 0 -12 -8 -18 -19 -6 -11 -16 -20 -23 -20 -7 0
-6 4 3 10 25 16 -56 12 -97 -5 -19 -8 -44 -15 -54 -15 -24 0 -99 -32 -99 -42
0 -5 7 -8 15 -8 21 0 19 -13 -7 -42 -46 -51 -73 -88 -93 -125 -41 -76 -75 -99
-75 -51 0 14 -5 18 -15 14 -8 -3 -15 -1 -15 3 0 5 -8 7 -19 4 -11 -3 -24 3
-32 14 -24 33 -119 62 -119 36 0 -8 -4 -12 -9 -8 -5 3 -7 21 -4 40 5 31 3 35
-16 35 -26 0 -73 29 -66 40 3 5 -5 25 -17 46 -12 20 -22 44 -23 54 -1 10 -14
29 -29 44 -23 20 -26 29 -17 40 9 10 8 15 -2 19 -19 7 -27 53 -13 68 8 9 6 10
-11 6 -20 -4 -22 -2 -17 18 3 13 1 32 -5 44 -10 18 -9 20 6 14 13 -5 15 -3 10
11 -4 10 -7 22 -7 27 0 6 -4 8 -9 5 -12 -8 -21 18 -21 55 0 17 -5 39 -10 50
-7 13 -7 19 0 19 5 0 9 16 7 35 -1 28 -6 35 -23 35 -16 0 -20 6 -18 31 1 17 7
36 13 42 6 6 11 22 10 36 0 15 -3 20 -6 14 -2 -7 -9 -13 -14 -13 -6 0 -7 26
-3 65 5 44 3 65 -4 65 -6 0 -13 -8 -15 -17 -2 -10 -3 -5 -1 11 2 16 4 48 4 72
0 34 3 42 15 38 11 -5 15 1 15 21 0 18 -6 29 -19 32 -13 3 -17 11 -13 25 4 16
1 19 -14 16 -14 -3 -24 6 -36 32 -10 19 -17 42 -18 51 0 9 -10 24 -22 33 -23
15 -23 16 -4 31 11 8 28 15 39 15 10 0 15 5 12 10 -3 6 -1 10 4 10 12 0 109
-50 126 -65 7 -5 52 -30 102 -54 l91 -45 18 -75 c22 -97 38 -135 77 -183 61
-76 110 -89 277 -74 95 9 178 29 226 57 18 10 40 16 51 15 10 -2 12 -1 6 1
-19 7 -16 13 26 68 22 27 37 53 34 59 -4 5 1 7 10 3 10 -3 17 -2 17 4 0 6 4 8
8 5 17 -10 34 13 37 50 3 44 24 103 44 128 12 14 11 20 -9 41 -23 24 -23 26
-7 43 15 14 19 15 26 3 6 -9 11 -10 15 -2 5 7 13 7 24 2 9 -5 26 -13 37 -16
11 -4 15 -9 9 -12 -12 -4 -8 -39 7 -58 4 -5 17 -39 29 -75 11 -36 26 -73 31
-83 6 -10 13 -42 16 -70 3 -29 10 -60 15 -69 13 -27 103 -47 213 -49 110 -1
130 2 147 19 7 7 17 12 23 12 22 0 101 88 132 146 17 32 43 91 57 129 19 51
37 80 66 105 22 20 42 46 45 59 4 22 -22 81 -35 81 -14 0 -80 67 -80 81 0 19
-58 109 -71 109 -19 0 -8 -39 24 -81 35 -48 67 -111 67 -134 0 -10 -11 -15
-32 -16 -18 0 -27 -3 -20 -6 17 -7 15 -33 -3 -33 -17 0 -20 -16 -5 -25 6 -3
10 -30 11 -58 0 -37 3 -46 8 -32 5 11 6 24 3 29 -3 5 0 6 6 2 22 -13 11 -78
-11 -71 -7 3 -24 -23 -40 -58 -15 -35 -43 -80 -62 -101 l-33 -38 15 51 c18 62
13 102 -6 56 -7 -16 -17 -38 -22 -47 -5 -10 -9 -24 -9 -31 0 -8 -11 -26 -24
-42 -21 -24 -35 -29 -125 -40 -96 -13 -105 -12 -149 6 -63 26 -83 68 -84 171
0 41 5 84 10 94 6 10 16 33 22 51 18 47 121 95 132 61 4 -10 10 -10 32 0 27
12 27 12 23 -26 -5 -40 7 -72 31 -86 11 -7 8 -11 -16 -23 -26 -13 -28 -17 -18
-38 6 -13 14 -21 18 -18 5 2 5 9 2 15 -5 7 0 9 14 6 12 -4 25 -2 28 3 8 14 36
11 31 -3 -2 -7 -10 -12 -16 -11 -6 2 -11 -6 -11 -16 0 -11 -6 -18 -16 -17 -9
0 -19 -5 -22 -13 -7 -19 35 -4 75 28 32 25 32 27 14 41 -18 14 -18 17 -2 44 9
16 21 28 26 28 6 0 16 4 22 10 10 8 17 1 28 -25 8 -20 15 -43 15 -52 0 -15 19
-22 21 -7 0 4 3 16 6 27 3 11 5 33 4 48 0 15 4 39 9 52 7 20 6 25 -10 30 -12
4 -20 15 -20 27 0 18 4 20 36 15 35 -6 36 -6 19 13 -14 16 -15 23 -6 34 7 8 8
17 3 20 -5 3 -6 20 -3 38 6 30 -12 91 -23 78 -2 -3 -13 7 -25 21 -11 15 -29
29 -39 31 -21 6 -102 -27 -102 -41 0 -5 -11 -12 -25 -15 -14 -4 -25 -12 -25
-19 0 -7 -39 -28 -86 -46 -47 -19 -88 -40 -91 -47 -2 -7 -18 -16 -34 -19 -19
-4 -29 -13 -29 -24 0 -34 -87 -54 -219 -52 -55 1 -67 5 -91 29 -64 63 -85 69
-247 68 -92 -1 -123 2 -123 12 0 7 -13 12 -30 12 -21 0 -30 -5 -30 -16 0 -11
6 -15 20 -11 11 3 20 1 20 -4 0 -5 -6 -9 -13 -9 -7 0 -18 -10 -25 -21 -13 -21
-13 -21 25 -15 36 6 37 6 18 -9 -11 -9 -30 -14 -42 -12 -13 2 -23 0 -23 -4 0
-5 5 -9 11 -9 5 0 8 -4 4 -9 -3 -5 5 -13 17 -17 13 -4 24 -2 26 5 4 13 92 15
92 2 0 -13 47 -20 59 -8 19 19 87 10 115 -16 25 -23 34 -47 18 -47 -4 0 -18
10 -32 23 -22 21 -31 22 -120 19 -60 -2 -90 0 -82 6 11 7 8 11 -9 15 -29 8
-35 2 -18 -15 25 -23 68 -38 97 -32 34 7 64 -19 36 -30 -10 -4 -22 -2 -28 4
-12 12 -113 14 -120 1 -3 -4 -22 -7 -41 -4 -23 2 -41 -2 -51 -12 -9 -8 -22
-15 -30 -15 -19 0 -8 -50 15 -67 46 -35 160 -12 175 35 4 12 15 22 24 24 30 6
72 -4 72 -17 0 -17 26 -26 56 -19 17 4 24 13 24 30 0 19 5 24 23 24 28 0 57
-29 57 -56 0 -10 -7 -39 -15 -64 -8 -25 -17 -57 -19 -71 -7 -31 -51 -79 -108
-116 -41 -27 -49 -28 -163 -28 -111 0 -122 2 -143 23 -12 12 -28 22 -34 21
-10 0 -10 -2 0 -6 6 -2 12 -9 12 -15 0 -5 7 -16 15 -25 9 -8 13 -18 10 -21 -9
-9 -57 21 -67 43 -5 11 -18 36 -28 55 -11 19 -19 43 -20 52 0 14 5 12 26 -9
39 -39 50 -18 28 56 -10 34 -22 61 -26 61 -4 0 -8 4 -8 10 0 5 3 9 8 9 26 -4
34 3 28 24 -7 28 20 71 40 63 10 -4 12 2 7 27 -3 18 -10 34 -15 35 -16 7 3 22
27 22 34 0 42 20 8 21 -15 1 -31 1 -35 0 -4 0 -15 13 -25 29 -14 24 -22 28
-42 23 -34 -8 -41 -12 -41 -25 0 -6 13 -9 34 -5 31 5 34 3 44 -31 9 -29 9 -40
-2 -50 -11 -12 -19 -8 -48 22 -19 20 -42 36 -51 36 -8 0 -18 6 -20 13 -4 8 -6
7 -6 -3 -1 -9 5 -22 12 -29 10 -11 8 -13 -13 -7 -14 3 -45 9 -70 12 l-45 6 25
-21 c32 -26 21 -26 -42 1 -41 17 -47 23 -32 28 14 5 4 10 -34 19 -29 6 -66 11
-83 11 -41 0 -138 34 -246 86 -50 24 -97 44 -105 44 -10 0 -10 3 2 11 13 9 12
10 -2 5 -24 -7 -48 3 -48 20 0 8 -6 11 -15 8 -8 -4 -15 -1 -15 4 0 15 -104 52
-129 45 -21 -5 -30 -23 -12 -23 5 0 16 -12 24 -27 8 -16 22 -41 31 -58 9 -16
16 -36 16 -43 0 -7 4 -11 9 -8 5 4 8 -2 6 -11 -14 -70 -14 -70 -41 -67 -28 3
-36 10 -99 89 -59 76 -87 99 -135 119 -58 23 -80 27 -80 15 0 -14 38 -87 49
-93 4 -3 9 -46 9 -96 0 -50 4 -109 7 -133 7 -37 6 -40 -8 -28 -30 25 44 -159
81 -202 8 -9 13 -19 11 -21 -2 -2 -29 -7 -59 -11 -63 -8 -218 -85 -352 -176
-111 -76 -164 -99 -228 -99 -32 0 -62 -4 -65 -10 -3 -5 -22 -10 -41 -10 l-34
0 0 93 c-1 167 -27 776 -36 830 -4 20 -10 37 -14 37 -14 0 -20 -190 -19 -594
0 -224 -3 -412 -8 -417 -25 -25 -216 -109 -248 -109 -17 0 -23 90 -30 430 -3
157 -10 402 -15 545 -6 143 -12 391 -15 550 -21 1148 -27 1400 -35 1414 -5 10
-8 -580 -8 -1459z m3505 -566 c-3 -3 -12 -4 -19 -1 -8 3 -5 6 6 6 11 1 17 -2
13 -5z m-145 -20 c-18 -8 -38 -12 -44 -8 -16 10 12 24 47 23 l30 -1 -33 -14z
m96 9 c-10 -2 -26 -2 -35 0 -10 3 -2 5 17 5 19 0 27 -2 18 -5z m-2248 -17 c0
-8 4 -16 8 -18 18 -7 71 -86 82 -120 6 -21 15 -38 19 -38 4 0 14 -13 24 -29
20 -34 23 -101 5 -120 -11 -10 -10 -14 4 -22 9 -5 19 -23 23 -39 4 -16 13 -33
21 -38 35 -20 64 -76 64 -126 0 -28 3 -62 7 -75 6 -23 7 -23 14 -5 5 13 8 7 8
-23 1 -24 -3 -43 -8 -43 -11 0 -82 48 -103 71 -10 10 -23 21 -31 26 -22 14
-47 61 -41 77 9 22 25 20 31 -4 6 -23 33 -28 33 -6 0 8 6 13 13 12 23 -2 19
15 -15 57 -55 69 -76 87 -101 87 -33 0 -74 47 -87 102 -13 52 -5 214 11 223 4
3 6 19 2 35 -3 19 -1 30 6 30 6 0 11 -6 11 -14z m2040 -36 c-21 -21 -40 -26
-40 -12 0 8 36 30 53 31 4 1 -2 -8 -13 -19z m165 5 c-33 -7 -68 -16 -77 -20
-11 -4 -18 -3 -18 3 0 6 24 15 53 20 77 14 112 12 42 -3z m-1930 -46 c-4 -6 3
-13 14 -16 17 -4 20 -10 15 -27 -14 -46 -21 -49 -28 -12 -7 38 -14 43 -35 24
-10 -11 -10 -8 0 15 7 15 19 27 26 27 8 0 11 -5 8 -11z m311 -4 c-4 -24 -16
-30 -16 -7 0 12 4 22 9 22 5 0 8 -7 7 -15z m1408 0 c-4 -8 -11 -12 -16 -9 -6
4 -5 10 3 15 19 12 19 11 13 -6z m-1667 -27 c-3 -8 -6 -5 -6 6 -1 11 2 17 5
13 3 -3 4 -12 1 -19z m2226 -38 c-6 -23 -16 -25 -32 -7 -13 16 -5 27 20 27 12
0 16 -6 12 -20z m-2290 -150 c3 -14 1 -20 -6 -17 -7 2 -14 14 -15 26 -4 28 13
20 21 -9z m787 -27 c0 -55 -17 -48 -24 10 -4 28 -2 37 9 37 11 0 15 -13 15
-47z m-785 -59 c3 -25 4 -48 1 -51 -9 -9 -47 89 -41 105 10 26 32 -5 40 -54z
m145 -49 c0 -9 5 -25 11 -36 5 -11 9 -29 7 -40 -3 -18 -5 -18 -30 6 -24 22
-28 34 -28 82 l0 56 20 -26 c11 -14 20 -33 20 -42z m-356 -1 c17 -16 22 -54 8
-54 -8 0 -16 14 -40 63 -7 13 16 7 32 -9z m2296 -49 c-7 -8 -18 -15 -24 -15
-6 0 -2 7 8 15 25 19 32 19 16 0z m-1844 -19 c0 -14 -5 -21 -9 -17 -4 4 -5 15
-1 24 9 24 12 21 10 -7z m-31 4 c3 -5 1 -10 -4 -10 -6 0 -11 5 -11 10 0 6 2
10 4 10 3 0 8 -4 11 -10z m99 -37 l16 -38 -6 38 c-7 40 -4 43 28 26 16 -8 19
-17 14 -40 -3 -15 -1 -31 4 -34 6 -3 10 -24 10 -45 0 -21 5 -42 10 -45 6 -3
10 -27 10 -53 -1 -45 -1 -46 -15 -22 -10 18 -10 27 -2 32 7 4 1 11 -15 17 -20
7 -25 15 -21 30 4 15 1 21 -11 21 -12 0 -16 10 -17 38 0 28 -2 32 -8 17 -7
-16 -11 -9 -20 33 -13 64 -13 62 -2 62 5 0 16 -17 25 -37z m926 13 c0 -3 -4
-8 -10 -11 -5 -3 -10 -1 -10 4 0 6 5 11 10 11 6 0 10 -2 10 -4z m-970 -26 c0
-5 -4 -10 -10 -10 -5 0 -10 5 -10 10 0 6 5 10 10 10 6 0 10 -4 10 -10z m1870
-100 c0 -5 -2 -10 -4 -10 -3 0 -8 5 -11 10 -3 6 -1 10 4 10 6 0 11 -4 11 -10z
m-23 -42 c-3 -7 -5 -2 -5 12 0 14 2 19 5 13 2 -7 2 -19 0 -25z m-2027 -3 c0
-9 -6 -18 -14 -21 -15 -6 -17 -94 -2 -105 5 -4 10 -29 11 -55 4 -72 4 -71 21
-89 12 -11 13 -19 5 -29 -6 -7 -8 -16 -4 -19 3 -4 8 -20 9 -36 6 -49 83 -271
122 -349 26 -51 60 -96 118 -155 122 -124 207 -202 216 -200 4 2 8 -3 8 -10 0
-6 14 -20 31 -30 l31 -17 -7 -108 c-5 -80 -12 -115 -27 -139 -11 -18 -24 -33
-30 -33 -14 0 -72 65 -120 135 -22 33 -51 71 -63 85 -28 32 -203 318 -243 395
-36 72 -71 187 -106 346 -27 123 -33 203 -23 334 5 67 10 82 29 97 28 22 38
22 38 3z m1960 -280 c0 -8 -4 -15 -10 -15 -5 0 -10 7 -10 15 0 8 5 15 10 15 6
0 10 -7 10 -15z m-610 -230 c0 -8 -7 -15 -15 -15 -16 0 -20 12 -8 23 11 12 23
8 23 -8z m390 -6 c0 -5 -4 -9 -8 -9 -5 0 -9 7 -9 15 0 8 4 12 9 9 4 -3 8 -9 8
-15z m-440 1 c3 -1 -4 -5 -15 -10 -16 -7 -12 -9 20 -10 22 -1 49 -1 60 0 15 1
17 -1 8 -10 -13 -14 -153 -4 -153 11 0 5 9 9 20 9 11 0 20 4 20 9 0 8 16 8 40
1z m390 -10 c0 -5 -4 -10 -10 -10 -5 0 -10 5 -10 10 0 6 5 10 10 10 6 0 10 -4
10 -10z m20 -51 c0 -5 -7 -9 -15 -9 -15 0 -20 12 -9 23 8 8 24 -1 24 -14z
m-100 -25 c0 -8 -6 -14 -13 -14 -19 0 -27 10 -20 25 6 17 33 8 33 -11z m112
-2 c-7 -2 -12 -10 -12 -17 0 -14 -25 -27 -34 -18 -14 15 -5 42 17 45 25 4 48
-3 29 -10z m-447 -39 c6 -18 40 -16 81 3 34 16 36 16 59 -6 14 -13 25 -19 25
-13 0 6 9 9 20 6 14 -4 20 0 20 12 0 13 6 16 23 11 12 -3 32 -6 45 -6 12 0 22
-4 22 -10 0 -5 -7 -10 -15 -10 -8 0 -15 -7 -15 -15 0 -8 -9 -19 -20 -25 -14
-8 -20 -8 -20 0 0 7 -6 7 -21 0 -11 -7 -27 -9 -34 -6 -7 2 -19 -2 -26 -10 -8
-10 -23 -14 -38 -11 -13 3 -31 -1 -38 -9 -9 -9 -20 -11 -31 -5 -9 5 -37 17
-62 27 -56 23 -62 31 -44 60 16 24 60 28 69 7z m385 -28 c0 -8 -4 -15 -10 -15
-5 0 -10 7 -10 15 0 8 5 15 10 15 6 0 10 -7 10 -15z m40 5 c0 -5 -4 -10 -9
-10 -6 0 -13 5 -16 10 -3 6 1 10 9 10 9 0 16 -4 16 -10z m-500 -60 c0 -5 21
-19 48 -30 34 -16 51 -19 64 -11 12 7 19 6 28 -4 6 -8 18 -11 26 -8 9 3 14 -1
14 -12 0 -15 -7 -17 -46 -11 -26 3 -53 11 -60 17 -10 8 -16 5 -26 -10 -7 -12
-19 -21 -28 -21 -12 0 -12 -3 2 -16 9 -9 36 -17 63 -19 47 -3 76 -15 36 -15
-12 0 -19 -4 -16 -10 8 -13 145 -13 145 0 0 10 91 53 98 45 3 -2 -1 -12 -9
-21 -11 -14 -11 -18 5 -30 22 -16 38 -10 30 11 -7 17 19 30 41 22 12 -5 12
-10 0 -34 -8 -15 -15 -43 -15 -61 0 -22 -6 -35 -17 -39 -10 -3 -30 -19 -45
-34 -14 -16 -28 -24 -30 -18 -2 5 -11 7 -21 3 -10 -3 -16 -12 -13 -19 5 -14
-21 -24 -64 -26 -14 0 -19 -3 -12 -6 23 -9 12 -23 -13 -17 -14 3 -25 2 -25 -3
0 -9 -23 -13 -77 -13 -23 1 -33 -4 -33 -15 0 -19 -24 -20 -40 0 -9 11 -17 12
-30 5 -10 -6 -25 -7 -33 -4 -27 10 -18 207 18 384 2 8 4 18 4 23 1 11 31 9 31
-3z m-534 -35 c26 -23 30 -24 41 -9 10 14 11 10 6 -22 -3 -22 -9 -43 -13 -47
-11 -13 -81 33 -78 52 2 9 -3 15 -9 14 -20 -4 -15 25 5 30 9 3 17 5 18 6 0 0
14 -10 30 -24z m781 -33 c-15 -15 -18 -15 -33 -1 -14 14 -12 16 17 17 30 1 31
0 16 -16z m-696 -25 c-1 -12 -15 -9 -19 4 -3 6 1 10 8 8 6 -3 11 -8 11 -12z
m922 -17 c-3 -11 -7 -20 -9 -20 -2 0 -4 9 -4 20 0 11 4 20 9 20 5 0 7 -9 4
-20z m-623 -234 c-19 -154 -30 -170 -27 -36 2 72 8 124 17 140 21 39 24 8 10
-104z m310 -118 c0 -13 -7 -58 -15 -102 -8 -43 -20 -138 -25 -210 -5 -72 -14
-174 -20 -226 -5 -52 -11 -143 -12 -202 -3 -111 -11 -136 -21 -70 -4 20 -11
57 -17 82 -6 25 -13 62 -17 83 -3 20 -9 37 -12 37 -4 0 -13 17 -20 38 -8 20
-29 69 -47 108 -32 68 -33 74 -35 215 -2 142 6 189 32 189 6 0 38 13 72 29
130 60 137 61 137 29z m-621 -100 c-1 -29 -5 -66 -9 -83 -7 -26 -8 -23 -9 21
0 28 -4 66 -7 83 -5 24 -3 31 10 31 13 0 16 -10 15 -52z m279 -4 c20 -4 22 -9
18 -32 -4 -15 -8 -75 -11 -135 -4 -109 -9 -132 -26 -121 -5 3 -8 54 -6 117 5
137 2 150 -26 136 -17 -10 -19 -9 -14 5 9 22 -13 29 -46 17 -27 -11 -44 0 -32
20 6 9 81 6 143 -7z m-611 -144 c15 -18 17 -60 3 -60 -9 0 -50 80 -50 97 0 7
31 -18 47 -37z m362 -119 c8 -24 8 -38 1 -45 -5 -5 -10 -21 -10 -35 0 -14 -4
-50 -10 -80 -5 -31 -14 -90 -19 -131 -11 -76 -30 -155 -36 -148 -2 1 1 26 6
53 16 86 21 136 24 260 2 66 4 136 4 155 1 29 3 32 15 20 7 -8 19 -30 25 -49z
m251 -63 c0 -32 -11 -68 -20 -68 -8 0 -11 70 -3 83 9 15 23 6 23 -15z m-17
-140 l-11 -33 -1 45 c-1 33 2 41 11 32 8 -8 8 -20 1 -44z m-2 -94 l-8 -29 -6
27 c-4 14 -4 34 -1 43 11 29 24 -7 15 -41z m-1 -84 c0 -16 -4 -30 -10 -30 -11
0 -14 43 -3 53 11 12 13 8 13 -23z m-328 -121 c11 -7 -1 -41 -13 -33 -5 3 -9
0 -9 -6 0 -6 -4 -8 -10 -5 -11 7 -14 88 -3 99 4 4 12 -5 17 -21 5 -15 13 -31
18 -34z m318 -14 c0 -25 -4 -45 -9 -45 -5 0 -9 20 -8 45 0 25 5 45 9 45 4 0 8
-20 8 -45z m-157 -147 c-3 -18 -14 -41 -24 -50 -15 -15 -18 -15 -23 -2 -10 27
-7 43 14 64 29 29 40 25 33 -12z m144 10 c-3 -8 -6 -5 -6 6 -1 11 2 17 5 13 3
-3 4 -12 1 -19z m190 -143 c13 -7 20 -15 16 -18 -3 -4 3 -7 15 -7 12 0 22 -4
22 -9 0 -5 16 -15 35 -22 19 -7 35 -17 35 -21 0 -4 9 -8 20 -8 11 0 23 -6 26
-14 3 -8 17 -17 32 -21 14 -3 32 -15 39 -25 8 -11 30 -22 49 -26 25 -5 32 -9
22 -15 -10 -7 -9 -9 5 -9 9 0 25 -4 35 -9 59 -32 99 -47 110 -44 6 3 12 -2 12
-11 0 -10 9 -16 25 -16 29 0 34 -16 8 -23 -10 -3 -1 -5 19 -6 36 -1 37 -2 28
-27 -13 -34 -13 -34 11 -34 16 0 20 -5 16 -20 -3 -11 -1 -18 4 -14 5 3 9 0 9
-5 0 -6 -7 -11 -15 -11 -8 0 -15 5 -15 10 0 6 -6 10 -12 9 -45 -6 -109 3 -122
17 -15 14 -17 14 -22 0 -7 -17 -34 -22 -34 -6 0 20 -19 10 -23 -12 -3 -18 -5
-17 -6 7 -2 29 -2 29 -16 11 -14 -19 -15 -18 -15 13 0 26 -3 32 -15 27 -9 -3
-18 0 -20 7 -7 15 -80 16 -80 0 0 -22 -17 -28 -30 -10 -7 10 -17 17 -21 16
-17 -4 -44 13 -44 27 0 8 -4 14 -10 14 -13 0 -13 -7 2 -33 27 -48 30 -130 8
-173 -13 -25 -49 -62 -84 -87 -7 -5 -5 -12 8 -22 11 -8 22 -11 25 -6 3 4 15
11 27 15 11 3 29 15 41 25 40 38 104 71 136 71 18 0 43 7 55 16 12 8 53 18 90
21 56 5 74 2 98 -13 54 -34 112 -87 117 -105 5 -20 66 -49 103 -49 13 0 32 -9
43 -21 11 -12 24 -18 30 -14 16 9 14 25 -3 25 -26 0 -26 41 0 67 13 13 24 35
24 48 0 32 34 34 51 4 7 -13 17 -19 29 -16 13 3 20 -2 24 -19 4 -15 21 -31 41
-41 21 -10 35 -24 35 -35 0 -12 7 -18 24 -18 15 0 26 -7 29 -20 3 -11 17 -24
32 -30 15 -6 29 -19 32 -30 9 -34 21 -22 29 25 5 38 10 45 28 44 17 -1 17 -2
4 -6 -18 -4 -25 -22 -10 -24 96 -9 132 -9 132 0 0 6 8 11 18 10 10 0 12 -3 5
-6 -26 -10 -12 -22 17 -16 23 4 30 2 28 -8 -2 -8 3 -13 10 -12 6 2 12 -2 12
-7 0 -6 9 -10 19 -10 11 0 23 -5 26 -11 4 -6 13 -8 19 -6 13 5 42 -32 37 -48
-1 -5 3 -4 10 3 10 9 10 15 1 24 -21 21 -13 32 8 13 16 -14 19 -26 14 -48 -5
-26 -4 -28 14 -23 16 5 20 1 24 -24 3 -17 2 -33 -2 -35 -4 -2 -10 -37 -13 -76
-3 -40 -11 -76 -18 -80 -6 -4 -9 -11 -5 -17 3 -6 -14 -32 -39 -59 -25 -26 -45
-51 -45 -55 0 -5 -5 -8 -11 -8 -8 0 -8 4 0 14 7 8 8 17 3 20 -22 14 -52 -57
-55 -129 l-2 -59 -37 -9 c-27 -6 -38 -14 -38 -27 0 -11 -4 -22 -10 -25 -15 -9
-12 -25 5 -25 8 0 15 3 15 8 0 4 14 15 30 24 33 19 33 19 44 -34 4 -18 -1 -38
-14 -60 -11 -18 -20 -43 -20 -55 0 -27 -43 -43 -116 -43 -54 0 -128 26 -118
42 3 4 0 8 -5 8 -6 0 -11 -4 -11 -10 0 -5 -19 -9 -42 -8 -37 1 -39 2 -10 5 30
4 31 5 15 21 -12 12 -18 13 -21 4 -2 -6 -14 -12 -28 -12 -17 0 -22 -4 -18 -15
5 -13 2 -14 -19 -6 -31 12 -65 4 -70 -18 -3 -9 -5 -2 -6 16 -1 38 -21 56 -21
19 0 -14 -4 -26 -10 -26 -5 0 -10 10 -10 23 -1 19 -2 20 -13 6 -11 -14 -14
-14 -30 2 -18 16 -18 19 -2 43 10 14 26 26 36 26 11 0 19 5 19 10 0 6 -5 10
-11 10 -5 0 -8 4 -5 9 3 5 -1 11 -8 14 -10 4 -17 -4 -21 -24 -4 -16 -11 -29
-15 -29 -21 0 -31 -41 -20 -76 13 -38 6 -58 -11 -34 -8 11 -12 12 -16 3 -2 -7
-13 -13 -23 -13 -10 0 -20 6 -23 13 -3 9 -8 9 -22 -3 -17 -14 -16 -15 6 -21
20 -5 18 -6 -13 -10 -27 -4 -38 -1 -38 8 0 20 -20 16 -21 -4 -1 -16 -2 -16 -6
-1 -5 21 -30 31 -39 16 -4 -7 -3 -8 4 -4 8 5 12 -1 12 -18 0 -27 -15 -42 -25
-26 -4 6 -16 10 -28 8 -14 -2 -23 4 -26 17 -4 11 -14 21 -23 21 -22 2 -23 -9
-3 -26 8 -7 15 -18 14 -24 0 -7 -2 -6 -6 2 -2 6 -14 12 -25 12 -14 0 -18 5
-14 15 3 8 1 15 -4 15 -6 0 -10 -6 -10 -13 0 -26 -74 -49 -82 -25 -6 16 -58 1
-58 -17 0 -13 25 -21 53 -16 4 0 7 -12 7 -29 0 -30 24 -43 32 -18 3 9 12 9 36
-1 17 -7 49 -14 71 -14 33 -2 38 -4 26 -13 -23 -17 -18 -24 15 -24 21 0 39 -9
55 -26 24 -26 25 -26 25 -5 0 11 4 21 8 21 12 0 41 -33 40 -45 0 -5 9 -14 21
-20 11 -5 21 -17 21 -27 0 -9 5 -20 10 -23 6 -4 10 10 10 34 0 23 5 41 10 41
6 0 10 -9 10 -19 0 -11 5 -23 10 -26 6 -3 10 -15 10 -26 0 -10 5 -19 10 -19 6
0 10 9 10 20 0 11 7 20 15 20 8 0 16 10 16 23 l2 22 4 -22 c5 -24 18 -30 28
-13 3 5 13 6 22 3 12 -5 15 -2 11 13 -8 30 14 45 38 26 14 -11 15 -13 3 -9
-13 4 -15 1 -12 -14 6 -22 18 -25 30 -6 4 6 15 18 24 25 14 10 20 10 33 -3 18
-19 38 -12 29 10 -3 10 1 15 15 15 12 0 24 5 27 10 5 8 12 7 22 -2 12 -10 18
-9 30 7 14 19 15 18 11 -12 -3 -18 -1 -33 4 -33 4 0 8 9 8 20 0 11 4 20 9 20
5 0 12 12 16 27 6 26 8 27 20 10 11 -15 17 -16 41 -6 16 7 34 11 41 10 6 -1
14 3 18 9 4 6 22 7 44 4 27 -4 42 -2 54 10 8 9 31 16 49 16 25 0 29 3 18 10
-11 7 2 10 45 12 33 1 76 2 95 3 19 1 45 -5 58 -13 16 -10 37 -13 72 -9 57 7
65 2 18 -12 l-33 -9 40 -2 c22 -1 46 -2 53 -1 6 1 12 -2 12 -6 0 -5 36 -7 81
-5 67 3 83 1 93 -13 18 -24 52 -15 49 13 -2 14 3 22 12 22 8 0 15 -7 15 -15 0
-8 5 -15 10 -15 6 0 10 6 10 13 0 9 10 12 30 9 25 -3 29 -1 24 12 -9 25 33 20
46 -5 8 -14 15 -17 23 -11 7 6 35 13 62 16 31 3 41 3 25 -2 l-25 -8 23 -8 c12
-4 22 -14 22 -21 0 -26 23 -65 39 -66 10 0 12 -2 4 -6 -18 -7 -16 -62 2 -69 8
-4 13 -10 10 -14 -3 -5 -1 -11 5 -15 22 -14 7 -22 -46 -23 -31 -1 -65 -4 -75
-7 -11 -4 -19 -2 -19 6 0 9 -4 8 -15 -1 -8 -7 -22 -9 -32 -5 -10 4 -38 9 -62
12 -25 2 -50 11 -56 20 -8 11 -18 14 -31 8 -12 -5 -15 -9 -6 -12 17 -7 15 -23
-3 -23 -24 0 -17 -18 8 -22 12 -2 22 -10 22 -18 0 -9 8 -14 20 -13 11 2 48 0
83 -3 48 -5 62 -10 58 -20 -4 -9 2 -14 17 -14 17 -1 15 -4 -13 -16 -31 -14
-33 -16 -17 -26 13 -7 22 -7 30 1 17 17 27 13 27 -10 0 -12 8 -23 19 -26 19
-5 36 -31 27 -41 -9 -9 -56 28 -56 44 0 8 -4 12 -10 9 -5 -3 -10 -15 -10 -26
0 -10 -4 -19 -10 -19 -5 0 -10 -12 -10 -26 0 -21 -4 -25 -20 -21 -11 3 -20 0
-21 -6 0 -8 -2 -8 -6 0 -6 17 -34 17 -31 1 2 -7 -7 -14 -19 -16 -24 -3 -32 13
-11 20 8 3 9 11 3 24 -8 19 -9 19 -12 -1 -5 -28 -48 -48 -64 -29 -11 14 -21 9
-57 -28 -18 -20 -57 -24 -67 -8 -3 5 -1 10 4 10 6 0 11 11 11 25 0 30 35 48
64 33 15 -8 24 -4 45 19 l27 29 -23 18 c-13 9 -23 23 -23 30 0 15 -45 30 -60
21 -5 -3 -19 4 -30 15 -20 20 -21 20 -45 3 -27 -20 -34 -46 -10 -37 9 4 15 0
15 -10 0 -9 -7 -16 -15 -16 -10 0 -13 -9 -10 -35 4 -30 2 -35 -16 -35 -14 0
-19 -5 -17 -17 2 -10 10 -17 16 -15 11 2 16 -10 13 -34 -1 -7 5 -14 14 -18 35
-13 2 -103 -60 -163 -29 -28 -33 -38 -32 -80 1 -27 6 -51 11 -55 5 -3 -13 -9
-40 -12 -27 -4 -63 -8 -80 -10 -22 -3 -34 1 -42 15 -7 10 -20 19 -30 19 -13 0
-14 -2 -4 -9 21 -13 -15 -23 -39 -11 -14 8 -19 7 -19 -1 0 -9 -4 -8 -14 0 -11
9 -19 9 -35 0 -17 -11 -23 -10 -39 4 -23 21 -38 22 -46 1 -3 -8 -11 -12 -16
-9 -6 4 -18 1 -26 -6 -12 -10 -20 -10 -35 -1 -11 7 -24 10 -28 7 -5 -3 -14 9
-20 25 -11 34 -31 40 -31 10 0 -11 5 -20 10 -20 6 0 10 -8 10 -17 -1 -15 -5
-13 -25 9 -15 18 -25 23 -28 15 -4 -8 -6 -7 -6 3 -1 22 14 41 34 44 25 4 29
20 10 36 -12 10 -15 10 -15 -5 0 -11 -5 -15 -15 -11 -10 4 -15 -1 -15 -14 0
-11 -4 -20 -10 -20 -5 0 -10 13 -10 29 0 19 -8 35 -22 45 -29 20 -34 14 -18
-24 17 -42 4 -51 -25 -17 -28 32 -39 35 -30 7 8 -26 -8 -26 -45 1 -19 15 -37
20 -55 16 -21 -3 -29 0 -32 14 -5 19 -15 24 -26 13 -5 -6 19 -52 34 -64 13
-11 16 -60 3 -60 -7 0 -14 -5 -16 -11 -3 -8 -10 -8 -26 2 -20 12 -24 12 -33
-1 -8 -11 -9 -8 -5 13 6 26 5 27 -39 27 -32 0 -47 -5 -52 -16 -4 -10 -13 -14
-29 -10 -13 4 -29 0 -38 -9 -19 -19 -30 -19 -22 0 6 17 -9 21 -19 5 -9 -14
-47 -1 -63 21 -14 21 -42 15 -42 -10 0 -9 -8 -1 -16 17 -9 17 -19 32 -23 32
-19 -1 -32 -21 -29 -46 2 -22 9 -30 27 -32 20 -3 61 -30 49 -33 -2 0 -21 -1
-43 -3 -22 -1 -47 -4 -55 -7 -9 -2 -14 2 -12 9 2 9 -4 11 -18 7 -11 -3 -25 -3
-32 2 -7 4 -22 9 -32 10 -11 2 -25 8 -33 14 -9 8 -14 7 -18 -4 -4 -8 -17 -14
-31 -14 -14 0 -26 -2 -29 -4 -2 -2 -11 -39 -19 -83 -9 -43 -21 -87 -27 -97
-10 -19 -59 -27 -59 -9 0 5 -6 7 -14 4 -7 -3 -30 2 -51 10 -21 9 -51 16 -68
16 -16 0 -82 9 -146 19 -64 11 -154 22 -201 26 -137 11 -230 61 -230 123 1 92
69 221 300 562 23 35 73 143 110 239 38 98 54 108 140 93 30 -6 96 -11 147
-11 84 -1 93 1 103 20 17 31 6 46 -42 54 -47 8 -58 18 -58 53 0 12 -5 22 -11
22 -6 0 -9 7 -6 15 4 8 1 17 -4 21 -6 3 -9 15 -6 25 3 11 2 19 -1 19 -4 1 -18
10 -31 21 -27 23 -23 36 7 18 11 -7 28 -9 38 -5 16 6 12 11 -26 31 -41 21 -46
22 -57 8 -12 -15 -16 -15 -47 2 -26 14 -31 21 -22 31 7 7 15 9 20 3 25 -23 70
1 47 24 -9 9 -14 9 -20 -2 -5 -8 -16 -11 -30 -6 -12 4 -21 2 -21 -4 0 -19 -57
-13 -64 6 -6 14 -9 15 -16 4 -9 -16 -94 -9 -116 10 -7 5 -18 9 -26 8 -23 -5
-58 12 -58 27 0 8 -7 14 -15 14 -8 0 -15 3 -15 8 0 4 -14 8 -30 9 -21 2 -30
-2 -30 -12 0 -8 -3 -15 -6 -15 -11 0 -63 54 -59 61 3 4 89 6 192 4 187 -3 236
-11 256 -42 4 -7 13 -13 20 -13 8 0 6 4 -3 11 -12 8 -9 9 11 5 15 -3 34 0 45
8 17 13 16 15 -21 38 -41 24 -126 46 -182 47 -18 1 -33 6 -33 12 0 8 -5 7 -16
-2 -13 -10 -20 -10 -44 4 -19 12 -31 14 -35 7 -5 -8 -13 -6 -26 6 -13 12 -19
13 -19 4 0 -9 -17 -11 -67 -7 -101 9 -108 11 -143 40 -25 21 -31 33 -27 52 2
14 0 25 -4 25 -13 0 -11 24 4 42 11 15 19 14 82 -17 39 -19 82 -37 98 -40 24
-6 102 8 212 38 22 6 54 12 70 14 17 2 37 6 45 10 8 4 20 8 25 8 6 1 23 7 38
14 16 6 32 9 37 6 4 -3 13 2 20 10 11 13 8 14 -21 9 -19 -3 -46 -10 -62 -16
-15 -6 -41 -8 -57 -4 -17 3 -30 2 -30 -3 0 -4 -26 -11 -57 -15 -31 -4 -66 -9
-78 -11 -25 -6 -45 6 -49 31 -2 11 -10 18 -20 16 -9 -2 -17 2 -17 8 -3 22 -5
26 -29 53 -13 15 -26 23 -29 18 -9 -13 -51 -24 -51 -13 0 12 -54 32 -85 32
-13 0 -28 7 -35 15 -7 9 -19 14 -27 11 -8 -3 -32 5 -53 19 -22 14 -44 25 -50
25 -16 0 -101 92 -112 122 -4 9 -23 22 -43 29 -33 12 -36 16 -31 43 9 42 33
57 87 53 48 -4 159 -45 159 -59 0 -4 11 -8 25 -8 14 0 28 -7 31 -15 7 -16 24
-21 24 -6 0 5 -18 28 -40 51 l-39 41 8 69 c5 40 17 81 29 97 11 15 23 38 26
51 8 25 81 102 97 102 6 0 22 13 37 29 24 27 31 29 71 24 l44 -6 -24 -18 c-13
-10 -31 -19 -41 -19 -21 0 -68 -56 -68 -80 0 -35 22 -67 59 -87 40 -22 128
-32 117 -14 -5 8 0 8 16 3 25 -9 64 -8 89 2 9 4 20 6 25 5 23 -4 33 2 27 17
-4 10 1 17 16 21 20 5 31 43 12 43 -5 0 -14 14 -21 30 -7 17 -16 30 -21 30 -5
0 -9 7 -9 15 0 8 -4 15 -10 15 -5 0 -10 5 -10 11 0 7 11 9 30 6 36 -8 45 4 19
26 -10 9 -19 13 -19 9 0 -4 -5 0 -10 8 -11 17 -13 92 -4 138 6 29 7 30 37 19
17 -6 42 -16 54 -22z m-232 -155 c3 -6 -1 -7 -9 -4 -18 7 -21 14 -7 14 6 0 13
-4 16 -10z m45 6 c0 -2 -7 -7 -16 -10 -8 -3 -12 -2 -9 4 6 10 25 14 25 6z
m-10 -136 c0 -5 -6 -7 -14 -4 -7 3 -16 -2 -19 -10 -9 -23 -27 -20 -27 4 0 16
7 20 30 20 17 0 30 -4 30 -10z m30 -45 c-7 -8 -17 -12 -23 -8 -6 4 -3 9 9 14
27 11 28 11 14 -6z m-70 -15 c0 -5 -2 -10 -4 -10 -3 0 -8 5 -11 10 -3 6 -1 10
4 10 6 0 11 -4 11 -10z m880 -75 c0 -8 -7 -15 -15 -15 -16 0 -20 12 -8 23 11
12 23 8 23 -8z m125 -25 c3 -5 1 -10 -4 -10 -6 0 -11 5 -11 10 0 6 2 10 4 10
3 0 8 -4 11 -10z m-37 -18 c6 -18 -15 -14 -22 4 -4 10 -1 14 6 12 6 -2 14 -10
16 -16z m32 -17 c0 -8 -2 -15 -4 -15 -2 0 -6 7 -10 15 -3 8 -1 15 4 15 6 0 10
-7 10 -15z m40 -32 c0 -7 -4 -13 -10 -13 -5 0 -10 12 -10 28 0 21 2 24 10 12
5 -8 10 -21 10 -27z m-48 -55 c-7 -7 -12 -8 -12 -2 0 6 3 14 7 17 3 4 9 5 12
2 2 -3 -1 -11 -7 -17z m303 -18 c3 -5 1 -10 -4 -10 -6 0 -11 5 -11 10 0 6 2
10 4 10 3 0 8 -4 11 -10z m-31 -35 c3 -8 1 -15 -4 -15 -6 0 -10 7 -10 15 0 8
2 15 4 15 2 0 6 -7 10 -15z m580 -57 c50 -12 94 -22 98 -22 3 -1 10 -4 14 -8
4 -5 15 -8 23 -8 23 0 160 -70 196 -100 143 -119 249 -293 230 -378 -3 -15
-20 -43 -38 -63 l-33 -37 -70 5 c-78 6 -71 10 -198 -109 -34 -31 -115 -95
-181 -143 -149 -109 -227 -139 -305 -118 -20 5 -15 9 34 20 50 11 75 26 153
90 98 79 133 124 200 256 31 61 37 84 41 152 4 77 2 83 -32 145 -20 36 -44 80
-52 98 -29 66 -175 221 -208 222 -6 0 -20 7 -31 16 -19 14 -17 14 24 9 25 -3
86 -15 135 -27z m-493 7 c0 -5 -9 -11 -21 -13 -20 -3 -27 8 -13 22 10 9 34 3
34 -9z m-1451 -245 c0 -5 -4 -10 -10 -10 -5 0 -10 5 -10 10 0 6 5 10 10 10 6
0 10 -4 10 -10z m1886 -245 c3 -14 14 -30 23 -35 12 -8 9 -9 -14 -4 -50 10
-55 13 -55 33 0 17 11 28 32 30 4 1 10 -10 14 -24z m-1996 -71 c0 -8 -5 -12
-10 -9 -6 4 -8 11 -5 16 9 14 15 11 15 -7z m1907 -96 c-3 -8 -6 -5 -6 6 -1 11
2 17 5 13 3 -3 4 -12 1 -19z m-1503 -139 c6 -5 3 -11 -7 -14 -9 -3 -24 -7 -33
-10 -17 -5 -74 24 -74 38 0 11 101 -1 114 -14z m186 -49 c0 -5 -6 -10 -14 -10
-8 0 -18 5 -21 10 -3 6 3 10 14 10 12 0 21 -4 21 -10z m1135 -210 c3 -5 -1
-10 -10 -10 -9 0 -13 5 -10 10 3 6 8 10 10 10 2 0 7 -4 10 -10z m98 -7 c-7 -2
-19 -2 -25 0 -7 3 -2 5 12 5 14 0 19 -2 13 -5z m-313 -43 c0 -5 -5 -10 -11
-10 -5 0 -7 5 -4 10 3 6 8 10 11 10 2 0 4 -4 4 -10z m950 -325 c0 -14 -4 -25
-10 -25 -11 0 -14 33 -3 43 11 11 13 8 13 -18z m375 -45 c3 -5 -1 -10 -9 -10
-9 0 -16 5 -16 10 0 6 4 10 9 10 6 0 13 -4 16 -10z m-94 -29 c24 -22 16 -45
-13 -38 -14 4 -18 2 -14 -9 3 -8 -1 -14 -9 -14 -14 0 -20 14 -15 35 2 6 2 18
2 28 -1 23 24 22 49 -2z m64 -21 c3 -5 1 -10 -4 -10 -6 0 -11 5 -11 10 0 6 2
10 4 10 3 0 8 -4 11 -10z m-149 -42 c-10 -6 -20 -7 -24 -3 -9 8 20 25 31 18 5
-3 2 -10 -7 -15z m-216 -89 c0 -5 -4 -9 -10 -9 -5 0 -10 7 -10 16 0 8 5 12 10
9 6 -3 10 -10 10 -16z m153 -35 c-3 -8 -12 -13 -20 -10 -8 3 -18 6 -21 7 -8 0
29 17 40 18 4 1 5 -6 1 -15z m-199 -89 c-4 -8 -13 -15 -21 -15 -8 0 -11 -5 -7
-12 5 -7 2 -9 -9 -5 -11 4 -17 -1 -19 -16 -4 -30 -20 -28 -29 5 -6 23 -3 28
20 37 14 5 35 12 46 14 11 3 21 5 22 6 1 0 0 -6 -3 -14z m-94 -49 c0 -3 -4 -8
-10 -11 -5 -3 -10 -1 -10 4 0 6 5 11 10 11 6 0 10 -2 10 -4z m-660 -42 c0 -8
-4 -14 -10 -14 -5 0 -10 9 -10 21 0 11 5 17 10 14 6 -3 10 -13 10 -21z m-55
-4 c3 -5 -1 -10 -9 -10 -9 0 -16 5 -16 10 0 6 4 10 9 10 6 0 13 -4 16 -10z
m459 -75 c-6 -16 -42 -30 -51 -21 -4 3 2 6 11 6 12 0 16 5 12 15 -4 10 1 15
14 15 13 0 17 -5 14 -15z m-314 -30 c-7 -8 -17 -15 -23 -15 -5 0 -2 9 8 20 21
23 35 19 15 -5z m-1667 -475 c-5 -19 -23 -29 -23 -12 0 7 20 32 26 32 1 0 0
-9 -3 -20z m-22 -57 c-8 -15 -10 -15 -11 -2 0 17 10 32 18 25 2 -3 -1 -13 -7
-23z"/>
<path d="M2097 5723 c-12 -11 -8 -23 8 -23 8 0 15 7 15 15 0 16 -12 20 -23 8z"/>
<path d="M1920 4995 c0 -5 5 -17 10 -25 5 -8 10 -10 10 -5 0 6 -5 17 -10 25
-5 8 -10 11 -10 5z"/>
<path d="M3210 4970 c0 -5 7 -10 15 -10 8 0 15 5 15 10 0 6 -7 10 -15 10 -8 0
-15 -4 -15 -10z"/>
<path d="M3840 2739 c0 -5 5 -7 10 -4 6 3 10 8 10 11 0 2 -4 4 -10 4 -5 0 -10
-5 -10 -11z"/>
<path d="M3000 2665 c0 -8 7 -15 16 -15 14 0 14 3 4 15 -7 8 -14 15 -16 15 -2
0 -4 -7 -4 -15z"/>
<path d="M2677 2649 c-11 -7 -37 -8 -64 -4 -34 5 -44 4 -41 -6 13 -40 158 -43
253 -5 l40 16 -79 -7 c-58 -4 -77 -3 -72 5 9 15 -13 15 -37 1z"/>
<path d="M4066 2563 c6 -4 14 -15 17 -23 5 -11 6 -9 4 4 -1 11 -9 21 -17 23
-10 3 -11 2 -4 -4z"/>
<path d="M4160 2520 c0 -5 5 -10 10 -10 6 0 10 5 10 10 0 6 -4 10 -10 10 -5 0
-10 -4 -10 -10z"/>
<path d="M2640 2419 c0 -5 5 -7 10 -4 6 3 10 8 10 11 0 2 -4 4 -10 4 -5 0 -10
-5 -10 -11z"/>
<path d="M4231 2384 c0 -11 3 -14 6 -6 3 7 2 16 -1 19 -3 4 -6 -2 -5 -13z"/>
<path d="M3168 2343 c7 -3 16 -2 19 1 4 3 -2 6 -13 5 -11 0 -14 -3 -6 -6z"/>
<path d="M2840 2140 c0 -5 4 -10 9 -10 6 0 13 5 16 10 3 6 -1 10 -9 10 -9 0
-16 -4 -16 -10z"/>
<path d="M2688 2133 c7 -3 16 -2 19 1 4 3 -2 6 -13 5 -11 0 -14 -3 -6 -6z"/>
<path d="M4068 2108 c-4 -10 -18 -18 -30 -18 -19 0 -20 -2 -8 -10 13 -9 13
-11 0 -20 -8 -5 -20 -10 -26 -10 -7 0 -14 -7 -18 -15 -3 -9 -12 -12 -21 -8
-13 4 -16 1 -13 -18 2 -18 -2 -24 -17 -24 -11 -1 -25 -4 -32 -8 -6 -4 -14 -3
-18 3 -11 17 -19 12 -86 -50 -93 -88 -93 -88 -146 -95 -50 -7 -208 -58 -255
-81 -15 -8 -40 -15 -55 -16 -15 -1 -36 -7 -47 -14 -14 -10 -23 -10 -38 -1 -15
10 -20 9 -28 -3 -7 -12 -3 -16 18 -21 15 -3 31 -3 36 0 17 9 61 8 79 -1 13 -7
24 -5 37 7 11 10 38 17 69 18 28 1 51 6 51 10 0 5 4 6 10 2 5 -3 18 0 29 7 15
9 23 9 35 -1 14 -12 16 -10 16 7 0 27 15 35 30 17 19 -22 29 -18 24 9 -5 32 6
38 38 22 27 -15 51 -7 46 14 -2 7 3 15 11 18 11 3 12 -2 7 -24 -7 -28 -7 -28
8 -9 8 11 12 30 9 43 -3 13 -1 22 6 22 6 0 11 -4 11 -10 0 -32 69 30 70 63 0
11 8 17 25 17 16 0 25 6 25 16 0 13 7 15 35 10 28 -6 35 -4 35 9 0 9 9 15 25
15 14 0 28 7 31 15 4 8 12 15 20 15 8 0 14 5 14 10 0 6 19 28 41 50 46 45 49
63 5 25 -37 -32 -44 -31 -48 3 -2 21 -4 23 -10 10z"/>
<path d="M4305 2111 c-3 -5 -1 -12 5 -16 5 -3 10 1 10 9 0 18 -6 21 -15 7z"/>
<path d="M3192 2060 c0 -14 2 -19 5 -12 2 6 2 18 0 25 -3 6 -5 1 -5 -13z"/>
<path d="M3236 2063 c-16 -16 -4 -33 24 -33 17 0 30 4 30 8 0 12 -46 32 -54
25z"/>
<path d="M3760 2029 c0 -6 -5 -7 -11 -3 -6 3 -15 0 -20 -7 -7 -11 -11 -11 -17
-2 -6 9 -18 9 -52 -3 -25 -9 -49 -19 -55 -24 -5 -4 -23 -10 -40 -13 -65 -12
-125 -31 -125 -39 0 -4 -18 -8 -39 -8 -22 0 -43 -4 -46 -10 -3 -5 -16 -10 -28
-10 -21 -1 -21 -1 3 -15 14 -8 38 -12 55 -9 17 2 46 6 65 9 19 2 49 8 67 14
17 5 33 7 36 5 2 -2 34 12 71 31 37 19 78 35 90 35 13 0 35 11 50 24 23 19 25
24 12 29 -9 4 -16 2 -16 -4z"/>
<path d="M4093 1879 c-7 -7 -13 -27 -13 -43 l1 -31 15 28 c18 34 16 65 -3 46z"/>
<path d="M4252 1848 c-14 -14 -16 -48 -4 -48 12 0 33 48 23 54 -4 3 -13 0 -19
-6z"/>
<path d="M3960 1815 c0 -16 6 -25 15 -25 16 0 19 9 9 34 -9 25 -24 19 -24 -9z"/>
<path d="M4050 1824 c0 -8 5 -12 10 -9 6 4 8 11 5 16 -9 14 -15 11 -15 -7z"/>
<path d="M3860 1770 c0 -5 5 -10 10 -10 6 0 10 5 10 10 0 6 -4 10 -10 10 -5 0
-10 -4 -10 -10z"/>
<path d="M3686 1744 c-9 -24 -2 -26 12 -4 7 11 8 20 3 20 -5 0 -12 -7 -15 -16z"/>
<path d="M4538 1563 c7 -3 16 -2 19 1 4 3 -2 6 -13 5 -11 0 -14 -3 -6 -6z"/>
<path d="M4658 1543 c12 -2 32 -2 45 0 12 2 2 4 -23 4 -25 0 -35 -2 -22 -4z"/>
<path d="M4448 1533 c6 -2 18 -2 25 0 6 3 1 5 -13 5 -14 0 -19 -2 -12 -5z"/>
<path d="M5275 1520 c4 -6 11 -8 16 -5 14 9 11 15 -7 15 -8 0 -12 -5 -9 -10z"/>
<path d="M5160 1496 c0 -9 5 -16 10 -16 6 0 10 4 10 9 0 6 -4 13 -10 16 -5 3
-10 -1 -10 -9z"/>
<path d="M4585 1470 c-9 -15 4 -30 25 -30 13 0 17 5 14 14 -7 18 -32 28 -39
16z"/>
<path d="M4960 1240 c0 -6 7 -10 15 -10 8 0 15 2 15 4 0 2 -7 6 -15 10 -8 3
-15 1 -15 -4z"/>
<path d="M5195 1210 c-3 -6 1 -7 9 -4 18 7 21 14 7 14 -6 0 -13 -4 -16 -10z"/>
<path d="M5158 1163 c7 -3 16 -2 19 1 4 3 -2 6 -13 5 -11 0 -14 -3 -6 -6z"/>
<path d="M4605 930 c-3 -5 -1 -10 4 -10 6 0 11 5 11 10 0 6 -2 10 -4 10 -3 0
-8 -4 -11 -10z"/>
<path d="M3712 873 c-19 -7 -4 -23 24 -23 27 0 32 15 8 24 -9 3 -16 6 -17 5
-1 0 -8 -3 -15 -6z"/>
<path d="M3591 844 c0 -11 3 -14 6 -6 3 7 2 16 -1 19 -3 4 -6 -2 -5 -13z"/>
<path d="M3600 789 c0 -5 5 -7 10 -4 6 3 10 8 10 11 0 2 -4 4 -10 4 -5 0 -10
-5 -10 -11z"/>
<path d="M4310 792 c0 -18 26 -62 35 -59 15 5 13 30 -3 50 -16 18 -32 23 -32
9z"/>
<path d="M3953 765 c-8 -22 6 -33 17 -15 13 20 12 30 0 30 -6 0 -13 -7 -17
-15z"/>
<path d="M3335 710 c3 -5 8 -10 11 -10 2 0 4 5 4 10 0 6 -5 10 -11 10 -5 0 -7
-4 -4 -10z"/>
<path d="M2718 8113 c-38 -6 -35 -17 4 -20 60 -4 47 -18 -20 -21 -36 -1 -70
-6 -76 -12 -5 -5 -22 -6 -37 -3 -17 3 -29 1 -29 -4 0 -6 -19 -13 -42 -17 -32
-5 -39 -9 -28 -16 13 -9 13 -10 0 -11 -8 0 -2 -6 14 -13 l28 -13 -44 -11 c-25
-6 -70 -14 -102 -18 -31 -4 -59 -11 -63 -17 -4 -7 18 -7 68 -2 41 4 97 9 126
10 28 2 55 5 60 7 10 6 142 -8 208 -22 28 -6 65 -12 84 -14 18 -3 38 -9 44
-15 6 -6 29 -12 51 -12 l41 -1 -48 -9 c-27 -6 -55 -6 -65 -1 -26 14 -423 -1
-477 -18 -16 -5 -51 -12 -77 -16 -27 -3 -48 -10 -48 -15 0 -5 5 -9 10 -9 16 0
11 -27 -6 -34 -9 -3 -27 -6 -41 -6 -13 0 -23 -5 -21 -11 2 -6 8 -10 13 -10 19
0 43 -30 38 -48 -7 -27 34 -41 77 -27 22 8 66 10 118 7 45 -3 82 -4 82 -2 0 2
-8 10 -17 16 -16 12 -14 14 19 20 51 10 70 0 33 -15 l-30 -13 25 -7 c21 -7 22
-8 4 -9 -11 -1 -30 -10 -42 -21 -11 -11 -28 -17 -36 -14 -9 3 -23 -1 -31 -10
-9 -9 -30 -16 -46 -16 -16 0 -29 -4 -29 -10 0 -5 -10 -10 -22 -9 -22 0 -22 1
-3 9 19 7 18 8 -5 14 -14 3 -69 8 -123 10 -82 3 -96 2 -86 -10 9 -11 8 -14 -2
-14 -8 -1 2 -14 21 -30 19 -17 29 -30 22 -30 -7 0 -12 -6 -12 -14 0 -8 -9 -18
-21 -21 -16 -5 -18 -10 -8 -21 6 -8 18 -14 25 -14 8 0 14 -7 14 -15 0 -8 7
-15 15 -15 8 0 15 -7 15 -15 0 -11 -5 -12 -26 -5 -30 12 -45 13 -42 3 0 -5 -2
-16 -7 -26 -5 -11 -2 -24 8 -35 14 -16 13 -17 -10 -19 -19 -1 -22 1 -12 8 10
6 2 9 -24 9 -35 0 -37 -2 -27 -20 10 -18 9 -19 -15 -10 -36 14 -40 13 -24 -6
11 -13 9 -14 -17 -8 -16 5 -39 8 -51 7 -13 0 -20 3 -17 8 8 14 -14 11 -47 -7
-17 -8 -36 -13 -42 -11 -7 2 12 13 42 24 49 18 52 21 29 26 -32 8 -85 -13
-117 -47 -29 -31 -46 -34 -29 -6 10 16 9 22 -10 38 l-22 20 22 6 c23 7 22 8
-5 18 -24 8 -31 7 -42 -8 -7 -11 -17 -16 -21 -12 -3 4 8 23 25 43 17 20 29 40
26 45 -3 5 24 23 61 40 44 22 64 36 60 46 -3 7 1 20 10 28 9 9 10 17 4 21 -5
3 -10 10 -10 14 0 11 61 54 77 54 7 0 13 7 13 15 0 10 -6 12 -17 7 -10 -4 -28
-10 -40 -12 -12 -3 -28 -11 -34 -19 -6 -8 -18 -14 -25 -14 -8 0 -14 -4 -14
-10 0 -5 -6 -10 -13 -10 -18 0 -53 -27 -109 -85 -26 -27 -48 -45 -48 -39 0 6
43 55 95 108 52 54 95 102 95 107 0 12 -27 12 -35 -1 -10 -17 -25 -11 -25 10
0 11 -4 20 -9 20 -13 0 -45 -53 -44 -73 1 -10 -4 -17 -10 -16 -29 4 -39 -2
-33 -17 4 -11 -1 -22 -14 -31 -11 -8 -18 -18 -16 -22 3 -4 -13 -27 -35 -52
-21 -24 -39 -47 -39 -50 0 -4 -7 -10 -16 -13 -12 -5 -14 -1 -8 16 6 21 5 21
-10 9 -10 -8 -15 -22 -13 -32 3 -9 -4 -30 -14 -46 -26 -39 -24 -46 12 -38 22
5 29 4 25 -4 -4 -6 -22 -11 -39 -11 -32 0 -32 -1 -32 -46 0 -25 -5 -50 -11
-55 -7 -5 -15 -26 -19 -46 -6 -31 -3 -39 17 -55 13 -9 18 -18 12 -18 -15 0
-24 -24 -30 -76 -4 -36 -2 -42 16 -47 12 -3 19 -10 16 -16 -4 -6 -13 -8 -21
-5 -18 7 -32 -43 -17 -58 6 -6 7 -19 2 -32 -4 -11 -6 -37 -4 -56 11 -127 24
-279 24 -298 0 -12 14 -36 30 -52 36 -35 30 -34 66 -15 29 15 87 12 110 -6 6
-5 19 -7 28 -3 9 3 16 1 16 -5 0 -6 7 -11 15 -11 8 0 23 -4 33 -9 45 -23 160
-61 184 -61 30 0 68 23 68 41 0 24 33 33 73 18 28 -10 37 -9 60 5 18 12 24 23
19 34 -6 16 -7 16 -10 0 -2 -10 -12 -18 -22 -18 -13 0 -17 5 -14 15 4 8 10 15
15 15 5 0 9 10 9 23 1 12 10 40 21 62 l20 40 -4 -37 c-3 -38 6 -51 17 -23 3 8
12 12 21 9 8 -3 15 -1 15 6 0 6 5 8 10 5 6 -3 11 -23 11 -43 l1 -37 8 30 c15
59 13 64 -27 62 -28 -2 -38 2 -38 13 0 10 8 14 23 13 35 -4 28 32 -10 51 -50
24 -68 41 -68 63 0 16 -5 19 -25 15 -20 -3 -25 0 -25 17 0 11 -4 21 -9 21 -5
0 -8 10 -6 23 2 12 5 31 7 42 2 12 -3 20 -12 20 -21 0 -41 27 -29 41 15 19 -5
129 -22 119 -10 -7 0 24 14 43 6 7 10 27 11 45 1 18 6 32 11 32 6 1 20 6 32
13 16 9 29 9 49 2 15 -6 34 -8 41 -6 8 3 24 -1 36 -9 24 -15 126 -41 142 -36
19 7 70 0 79 -9 16 -16 134 -11 233 9 69 14 103 16 140 9 26 -5 75 -11 108
-13 48 -3 56 -1 38 7 -28 14 -30 28 -3 28 11 0 20 -4 20 -10 0 -5 7 -7 15 -4
8 4 17 -1 21 -9 4 -12 19 -14 65 -11 40 3 58 1 54 -6 -4 -6 6 -10 24 -10 21 0
31 -5 31 -15 0 -17 25 -20 35 -5 10 16 45 12 45 -5 0 -8 5 -15 10 -15 6 0 10
9 10 19 0 11 4 22 9 26 6 3 6 18 0 38 -5 17 -9 33 -9 34 0 2 10 3 23 3 17 0
19 2 7 10 -8 5 -11 12 -7 16 4 4 21 -5 37 -21 16 -16 33 -26 36 -22 4 3 15 2
26 -4 14 -7 23 -7 33 1 8 6 23 9 33 6 14 -5 21 -1 25 14 3 11 0 20 -6 20 -6 0
-7 3 -3 7 4 4 16 -3 26 -17 18 -23 26 -18 21 13 -1 5 9 1 21 -7 12 -9 32 -16
44 -16 18 0 21 5 17 23 -3 14 -2 18 4 9 7 -9 15 -4 31 18 13 16 29 30 37 30 8
0 15 5 15 11 0 6 7 8 17 5 9 -4 20 -1 24 5 4 8 17 -7 33 -39 14 -28 29 -53 34
-56 5 -3 23 -67 42 -143 18 -76 36 -145 40 -153 4 -8 6 -57 4 -109 -1 -51 1
-90 5 -85 5 5 14 55 21 111 11 84 11 113 0 160 -15 70 -57 185 -99 273 -17 36
-31 75 -31 87 0 12 -10 34 -23 50 -13 15 -36 55 -52 88 -91 186 -236 344 -404
438 -114 64 -136 69 -129 33 3 -17 1 -23 -8 -19 -7 2 -25 -9 -39 -26 -17 -18
-33 -27 -42 -24 -13 5 -13 7 1 15 14 8 15 13 5 24 -9 11 -9 14 1 14 8 0 10 8
6 25 -5 18 -2 25 9 25 8 0 15 6 15 13 0 16 -58 49 -115 67 -22 7 -44 16 -50
20 -33 26 -221 46 -307 33z m-68 -83 c0 -5 -2 -10 -4 -10 -3 0 -8 5 -11 10 -3
6 -1 10 4 10 6 0 11 -4 11 -10z m350 -100 c0 -5 -2 -10 -4 -10 -3 0 -8 5 -11
10 -3 6 -1 10 4 10 6 0 11 -4 11 -10z m310 -10 c0 -5 -12 -10 -27 -9 -25 0
-26 1 -8 9 27 12 35 12 35 0z m-237 -7 c-7 -2 -21 -2 -30 0 -10 3 -4 5 12 5
17 0 24 -2 18 -5z m42 -43 c22 -7 46 -14 54 -16 11 -4 9 -9 -7 -20 -20 -14
-25 -14 -50 4 -15 10 -35 22 -44 25 -10 4 -18 11 -18 18 0 6 6 8 13 5 6 -2 30
-10 52 -16z m15 -61 c0 -6 -4 -7 -10 -4 -5 3 -10 11 -10 16 0 6 5 7 10 4 6 -3
10 -11 10 -16z m-773 5 c-3 -3 -12 -4 -19 -1 -8 3 -5 6 6 6 11 1 17 -2 13 -5z
m340 -150 c-3 -3 -12 -4 -19 -1 -8 3 -5 6 6 6 11 1 17 -2 13 -5z m-407 -60 c0
-2 -7 -4 -15 -4 -8 0 -15 4 -15 10 0 5 7 7 15 4 8 -4 15 -8 15 -10z m532 -36
c-10 -13 -12 -19 -12 -37 0 -5 -24 -14 -52 -21 -29 -6 -62 -14 -73 -16 -19 -5
-19 -4 -2 10 24 19 6 29 -29 16 -15 -6 -29 -9 -31 -7 -8 9 30 30 67 37 34 6
38 5 29 -7 -15 -17 -4 -29 13 -16 7 6 25 13 40 17 19 4 26 11 22 21 -4 11 1
15 16 15 17 0 20 -3 12 -12z m-528 -134 c9 -8 16 -20 16 -25 0 -5 8 -9 18 -9
11 0 27 -9 37 -20 18 -20 18 -20 -29 -4 -25 9 -46 20 -46 25 0 5 -6 9 -14 9
-18 0 -29 16 -21 30 9 14 21 12 39 -6z m496 -124 c0 -5 -5 -10 -11 -10 -5 0
-7 5 -4 10 3 6 8 10 11 10 2 0 4 -4 4 -10z m-755 -21 c16 -6 14 -8 -15 -10
-19 -1 -39 -3 -45 -4 -41 -10 -55 -20 -55 -36 0 -15 -7 -19 -36 -19 -21 0 -33
4 -29 10 3 6 15 10 25 10 10 0 22 5 25 10 6 10 -19 7 -65 -6 -8 -3 -1 7 15 20
17 14 39 26 50 26 11 0 27 5 35 10 15 10 56 5 95 -11z m945 -155 c0 -2 -7 -4
-15 -4 -8 0 -15 4 -15 10 0 5 7 7 15 4 8 -4 15 -8 15 -10z m-1347 -71 c-7 -2
-19 -2 -25 0 -7 3 -2 5 12 5 14 0 19 -2 13 -5z m-93 -94 c0 -5 -4 -9 -10 -9
-5 0 -10 7 -10 16 0 8 5 12 10 9 6 -3 10 -10 10 -16z m160 -39 c-20 -13 -43
-13 -35 0 3 6 16 10 28 10 18 0 19 -2 7 -10z m344 -89 c-5 -5 -19 -12 -31 -16
-18 -5 -22 -3 -17 8 3 9 13 13 25 10 11 -3 19 0 19 8 0 7 3 9 7 6 4 -4 2 -11
-3 -16z m93 -126 c6 -14 7 -27 2 -31 -5 -3 -9 2 -9 11 0 8 -7 18 -15 21 -8 4
-12 10 -9 15 9 15 18 10 31 -16z m-214 -70 c7 -16 -8 -29 -23 -20 -15 9 -12
35 4 35 8 0 16 -7 19 -15z m187 -95 c0 -5 -2 -10 -4 -10 -3 0 -8 5 -11 10 -3
6 -1 10 4 10 6 0 11 -4 11 -10z m20 -55 c0 -8 -4 -15 -10 -15 -5 0 -10 7 -10
15 0 8 5 15 10 15 6 0 10 -7 10 -15z"/>
<path d="M2598 8083 c7 -3 16 -2 19 1 4 3 -2 6 -13 5 -11 0 -14 -3 -6 -6z"/>
<path d="M2518 8053 c6 -2 18 -2 25 0 6 3 1 5 -13 5 -14 0 -19 -2 -12 -5z"/>
<path d="M2435 7990 c-3 -5 -2 -10 4 -10 5 0 13 5 16 10 3 6 2 10 -4 10 -5 0
-13 -4 -16 -10z"/>
<path d="M2385 7910 c-3 -5 -1 -10 4 -10 6 0 11 5 11 10 0 6 -2 10 -4 10 -3 0
-8 -4 -11 -10z"/>
<path d="M2275 7900 c-3 -5 1 -10 10 -10 9 0 13 5 10 10 -3 6 -8 10 -10 10 -2
0 -7 -4 -10 -10z"/>
<path d="M2568 7903 c7 -3 16 -2 19 1 4 3 -2 6 -13 5 -11 0 -14 -3 -6 -6z"/>
<path d="M2478 7893 c7 -3 16 -2 19 1 4 3 -2 6 -13 5 -11 0 -14 -3 -6 -6z"/>
<path d="M2040 7710 c0 -5 4 -10 9 -10 6 0 13 5 16 10 3 6 -1 10 -9 10 -9 0
-16 -4 -16 -10z"/>
<path d="M2195 7683 c10 -42 45 -59 45 -23 0 11 5 20 11 20 8 0 8 5 -1 15 -7
8 -24 15 -37 15 -22 0 -24 -3 -18 -27z"/>
<path d="M1655 7565 c-16 -13 -27 -27 -24 -29 3 -3 18 8 34 24 35 36 31 38
-10 5z"/>
<path d="M1939 7520 c-51 -26 -84 -60 -59 -60 19 0 9 -15 -21 -33 -48 -27 -27
-31 39 -8 75 27 162 39 162 22 0 -16 29 -14 46 4 24 23 7 63 -37 85 -50 26
-63 25 -130 -10z"/>
<path d="M1964 7394 c-18 -15 -17 -15 15 -10 18 3 38 6 43 6 5 0 6 5 3 10 -9
15 -39 12 -61 -6z"/>
<path d="M3941 6644 c0 -11 3 -14 6 -6 3 7 2 16 -1 19 -3 4 -6 -2 -5 -13z"/>
<path d="M673 6600 c0 -25 2 -35 4 -22 2 12 2 32 0 45 -2 12 -4 2 -4 -23z"/>
<path d="M2276 6557 c3 -10 9 -15 12 -12 3 3 0 11 -7 18 -10 9 -11 8 -5 -6z"/>
<path d="M2321 6494 c0 -11 3 -14 6 -6 3 7 2 16 -1 19 -3 4 -6 -2 -5 -13z"/>
<path d="M2698 6323 c7 -3 16 -2 19 1 4 3 -2 6 -13 5 -11 0 -14 -3 -6 -6z"/>
<path d="M3960 6290 c0 -5 5 -10 10 -10 6 0 10 5 10 10 0 6 -4 10 -10 10 -5 0
-10 -4 -10 -10z"/>
<path d="M2540 6226 c0 -8 5 -18 10 -21 6 -3 10 1 10 9 0 8 -4 18 -10 21 -5 3
-10 -1 -10 -9z"/>
<path d="M3595 6210 c-3 -5 -1 -10 4 -10 6 0 11 5 11 10 0 6 -2 10 -4 10 -3 0
-8 -4 -11 -10z"/>
<path d="M2075 6170 c-3 -6 1 -7 9 -4 18 7 21 14 7 14 -6 0 -13 -4 -16 -10z"/>
<path d="M2660 6160 c-11 -7 -7 -10 17 -10 17 0 35 5 38 10 8 13 -35 13 -55 0z"/>
<path d="M1 6094 c0 -11 3 -14 6 -6 3 7 2 16 -1 19 -3 4 -6 -2 -5 -13z"/>
<path d="M3620 6065 c-10 -12 -10 -15 3 -15 19 0 31 16 18 24 -5 3 -14 -1 -21
-9z"/>
<path d="M3520 6052 c0 -4 6 -16 13 -26 11 -15 18 -16 32 -9 17 10 15 12 -13
27 -18 9 -32 13 -32 8z"/>
<path d="M3480 6040 c0 -5 7 -10 15 -10 8 0 15 5 15 10 0 6 -7 10 -15 10 -8 0
-15 -4 -15 -10z"/>
<path d="M3587 6009 c-5 -20 0 -24 19 -11 9 5 8 10 -1 19 -10 9 -14 8 -18 -8z"/>
<path d="M2985 6012 c-19 -4 -35 -19 -35 -34 0 -10 50 -2 63 11 15 15 -2 29
-28 23z"/>
<path d="M2914 5997 c-3 -9 -25 -15 -57 -16 -52 -3 -93 -6 -112 -10 -5 -1 -2
-6 8 -12 9 -5 17 -18 17 -27 1 -11 6 -7 17 13 l16 29 10 -24 c6 -14 9 -31 8
-37 -2 -16 1 -16 34 -1 27 12 32 24 13 30 -7 3 -6 7 5 11 13 5 17 1 17 -15 0
-16 3 -18 14 -9 8 7 17 24 21 39 4 15 12 30 18 34 8 5 6 8 -6 8 -10 0 -20 -6
-23 -13z"/>
<path d="M2705 5980 c-3 -5 -1 -10 4 -10 6 0 11 5 11 10 0 6 -2 10 -4 10 -3 0
-8 -4 -11 -10z"/>
<path d="M3233 5849 c-3 -18 -14 -34 -23 -36 -12 -3 -16 -11 -13 -24 4 -15 2
-18 -12 -13 -15 6 -17 3 -12 -18 5 -18 1 -30 -13 -43 -14 -12 -17 -25 -13 -46
3 -17 1 -29 -5 -29 -6 0 -13 10 -15 23 -3 13 -5 8 -6 -15 -1 -28 3 -38 15 -38
8 0 13 -4 10 -9 -3 -5 3 -11 14 -14 14 -3 20 -14 20 -31 0 -23 -4 -26 -36 -26
-21 0 -33 -4 -29 -10 3 -6 17 -7 31 -4 13 3 24 2 24 -4 0 -5 -14 -12 -31 -14
-22 -4 -33 0 -40 14 -5 10 -7 23 -4 29 11 17 -3 53 -24 66 -22 14 -47 9 -49
-10 -1 -7 -4 -33 -8 -58 -5 -39 -3 -49 19 -75 20 -23 32 -29 66 -28 34 1 47
-5 87 -42 26 -24 60 -48 76 -55 21 -8 27 -17 23 -28 -11 -28 -10 -33 4 -39 8
-3 11 0 7 6 -7 12 25 36 64 47 77 21 160 75 160 105 0 18 -1 18 -40 -1 -23
-11 -45 -17 -50 -14 -5 3 -12 0 -15 -5 -5 -8 -11 -6 -18 4 -7 9 -39 29 -73 45
-35 17 -61 36 -61 45 0 12 4 13 19 5 40 -22 68 20 31 46 -19 14 -27 149 -9
178 7 12 8 20 1 25 -11 7 -34 62 -42 100 -8 32 -22 27 -30 -9z m47 -129 c0 -5
-5 -10 -11 -10 -5 0 -7 5 -4 10 3 6 8 10 11 10 2 0 4 -4 4 -10z"/>
<path d="M3147 5803 c-4 -3 -7 -11 -7 -17 0 -6 5 -5 12 2 6 6 9 14 7 17 -3 3
-9 2 -12 -2z"/>
<path d="M3484 5658 c-10 -17 35 -51 51 -38 16 13 40 -14 59 -68 9 -23 15 -44
16 -47 0 -6 1 -12 5 -22 1 -5 6 -22 10 -40 4 -17 18 -42 32 -55 20 -19 25 -20
33 -8 16 24 11 49 -10 60 -11 6 -20 16 -20 23 0 7 9 19 20 27 23 16 27 35 6
27 -10 -4 -12 0 -9 14 4 15 0 22 -16 26 -21 5 -21 6 -4 26 16 18 16 20 1 14
-11 -4 -18 1 -21 14 -3 10 -14 19 -25 19 -10 0 -29 9 -42 20 -15 13 -27 17
-33 11 -7 -7 -16 -7 -28 -1 -12 7 -20 6 -25 -2z"/>
<path d="M3320 5636 c0 -8 5 -18 10 -21 6 -3 10 3 10 14 0 12 -4 21 -10 21 -5
0 -10 -6 -10 -14z"/>
<path d="M3727 5581 c-4 -17 -3 -21 5 -13 5 5 8 16 6 23 -3 8 -7 3 -11 -10z"/>
<path d="M3534 5508 c-1 -32 3 -55 7 -52 5 3 9 12 9 21 0 9 7 25 17 35 9 10
13 21 8 26 -4 4 -10 1 -12 -5 -7 -21 -21 -15 -25 10 -2 12 -4 -4 -4 -35z"/>
<path d="M3780 5530 c0 -5 5 -10 10 -10 6 0 10 5 10 10 0 6 -4 10 -10 10 -5 0
-10 -4 -10 -10z"/>
<path d="M3570 5445 c0 -8 5 -15 10 -15 6 0 10 7 10 15 0 8 -4 15 -10 15 -5 0
-10 -7 -10 -15z"/>
<path d="M3761 5374 c0 -11 3 -14 6 -6 3 7 2 16 -1 19 -3 4 -6 -2 -5 -13z"/>
<path d="M3431 5336 c-9 -10 -8 -15 3 -19 16 -7 26 1 26 20 0 17 -14 17 -29
-1z"/>
<path d="M2280 5315 c0 -8 5 -15 10 -15 6 0 10 7 10 15 0 8 -4 15 -10 15 -5 0
-10 -7 -10 -15z"/>
<path d="M3277 5153 c-14 -13 -6 -23 18 -21 28 3 33 13 9 22 -19 7 -19 7 -27
-1z"/>
<path d="M2745 4980 c-4 -6 -3 -16 3 -22 6 -6 12 -6 17 2 4 6 3 16 -3 22 -6 6
-12 6 -17 -2z"/>
<path d="M2705 4860 c-3 -5 -1 -10 4 -10 6 0 11 5 11 10 0 6 -2 10 -4 10 -3 0
-8 -4 -11 -10z"/>
</g>
</svg>
